<?xml version="1.0" encoding="UTF-8" standalone="no"?>
<!DOCTYPE svg PUBLIC "-//W3C//DTD SVG 1.1//EN" "http://www.w3.org/Graphics/SVG/1.1/DTD/svg11.dtd">
<svg xmlns="http://www.w3.org/2000/svg" version="1.1" viewBox="0.00 0.00 521.00 195.00">
<g stroke-width="2.00" fill="none" stroke-linecap="butt">
<path stroke="#f4f4f3" vector-effect="non-scaling-stroke" d="
  M 492.73 90.21
  Q 492.12 90.43 491.35 90.38
  A 1.56 1.49 63.0 0 1 490.61 90.12
  Q 490.19 89.82 489.68 89.79
  Q 489.26 89.77 488.94 90.05
  Q 488.44 90.50 487.78 90.63
  A 0.90 0.89 -20.5 0 1 486.82 90.20
  Q 484.74 86.62 480.77 86.33
  C 478.97 86.20 476.89 85.70 476.54 84.00
  Q 475.58 79.23 473.82 74.68
  C 471.65 69.08 463.61 62.48 457.70 60.02
  C 450.43 57.00 440.57 57.49 433.11 59.40
  C 427.16 60.93 417.93 66.93 414.03 71.75
  C 411.25 75.19 407.67 78.70 406.11 82.90
  C 405.34 84.99 403.83 85.05 402.22 83.67
  Q 399.93 81.71 396.48 80.09
  C 391.05 77.54 388.06 79.46 383.24 81.48
  C 381.06 82.39 379.46 81.93 378.26 79.74
  Q 376.71 76.92 374.59 74.50
  C 373.22 72.93 372.50 71.36 371.52 69.60
  Q 371.28 69.15 370.81 68.96
  C 365.94 66.96 360.77 63.48 355.54 65.45
  A 2.02 2.02 0.0 0 1 352.85 63.98
  C 351.95 59.74 351.46 55.44 349.00 51.83
  C 345.50 46.69 340.68 41.33 334.46 39.75
  C 329.28 38.43 321.82 38.13 317.10 41.12
  C 310.47 45.32 307.48 48.76 306.20 57.05
  C 305.77 59.80 306.61 62.11 307.25 64.73
  Q 307.72 66.66 305.73 66.60
  A 2.10 2.03 57.8 0 1 304.87 66.39
  Q 295.68 61.74 286.70 66.98
  C 283.50 68.85 284.44 71.54 283.14 73.63
  Q 281.85 75.71 279.99 74.99
  Q 271.77 71.83 264.22 71.78
  C 258.73 71.75 254.12 75.32 248.97 75.27
  A 0.53 0.53 0.0 0 1 248.52 74.47
  Q 251.44 69.62 256.18 66.46
  C 258.28 65.07 258.16 62.45 257.04 60.26
  C 254.08 54.48 250.90 48.12 244.77 45.03
  C 240.47 42.86 236.92 40.93 231.00 39.10
  C 224.11 36.95 219.14 38.72 212.84 41.94
  C 204.99 45.95 199.67 51.50 196.57 59.74
  C 195.70 62.06 195.34 65.43 197.32 66.95
  Q 201.47 70.13 204.76 73.99
  A 1.25 1.25 0.0 0 1 203.83 76.05
  C 198.14 76.16 191.40 75.01 186.04 76.53
  Q 182.11 77.64 178.39 79.37
  Q 176.87 80.08 175.76 79.25
  A 0.73 0.72 -51.1 0 1 175.65 78.18
  Q 179.55 73.96 183.53 70.61
  Q 184.72 69.62 184.92 68.87
  Q 185.30 67.45 183.45 66.61
  Q 174.18 62.38 164.01 63.32
  C 156.57 64.01 145.70 71.51 144.19 79.20
  Q 143.90 80.71 142.85 83.66
  Q 141.85 86.46 142.15 89.51
  Q 142.34 91.42 140.65 91.25
  A 1.86 1.84 -21.8 0 1 139.66 90.83
  Q 131.36 83.67 120.99 85.91
  C 116.44 86.88 113.98 89.47 113.70 94.08
  A 1.78 1.77 -89.1 0 1 111.99 95.75
  C 103.95 96.01 96.91 97.09 91.18 103.14
  Q 90.71 103.64 90.43 104.02
  A 2.20 2.19 26.3 0 0 91.60 107.45
  Q 100.10 109.82 107.12 115.15
  Q 110.23 117.52 106.35 117.02
  C 93.75 115.38 83.76 115.64 72.34 122.05
  A 1.25 1.24 45.2 0 1 71.10 122.04
  Q 69.89 121.35 71.30 119.99
  Q 74.33 117.08 78.13 115.31
  C 79.70 114.58 80.89 113.00 79.04 111.70
  C 67.08 103.33 54.14 100.56 39.74 103.79
  C 35.22 104.81 31.64 106.89 27.96 109.50
  Q 26.55 110.50 23.14 114.06
  Q 20.86 116.45 17.96 118.34"
/>
<path stroke="#e0e6ea" vector-effect="non-scaling-stroke" d="
  M 134.99 78.56
  Q 135.40 79.05 136.01 79.06
  Q 136.61 79.07 136.75 77.37"
/>
<path stroke="#d9dfe4" vector-effect="non-scaling-stroke" d="
  M 492.72 93.36
  Q 489.53 94.77 489.02 96.68
  Q 488.90 97.13 489.28 97.40
  L 490.51 98.25
  A 0.77 0.77 0.0 0 1 490.79 99.17
  L 487.91 106.49
  A 1.45 1.45 0.0 0 0 488.46 108.23
  C 489.92 109.19 490.44 110.94 491.52 112.18
  Q 492.78 113.62 493.56 115.41
  Q 497.71 124.84 490.52 132.03
  C 484.65 137.90 477.98 143.05 469.54 143.45
  C 462.46 143.79 457.45 144.50 450.18 140.87
  Q 432.26 131.94 429.27 112.21
  A 0.68 0.67 63.4 0 0 428.13 111.83
  Q 426.35 113.59 424.47 115.23
  C 422.79 116.69 420.96 117.07 418.90 117.69
  A 1.90 1.89 -15.1 0 0 417.61 119.93
  C 418.70 124.64 419.10 127.57 413.87 129.55
  C 409.26 131.28 403.97 128.16 401.43 124.27
  Q 400.44 122.76 399.50 122.81
  C 396.10 123.01 392.32 123.53 389.16 123.01
  Q 378.53 121.26 372.51 111.86
  A 1.04 1.04 0.0 0 0 370.66 112.05
  C 366.74 122.33 356.85 129.29 345.57 128.98
  C 342.94 128.91 339.87 128.09 337.46 127.32
  Q 333.74 126.14 336.17 129.19
  Q 341.71 136.14 350.72 138.51
  C 352.29 138.92 354.20 139.92 354.30 141.48
  C 354.87 150.47 347.26 159.45 339.26 162.30
  C 328.92 165.98 315.22 163.25 304.26 158.94
  Q 295.69 155.56 289.05 149.20
  Q 287.86 148.07 287.52 146.97
  A 1.54 1.54 0.0 0 0 285.32 146.08
  C 282.68 147.50 280.36 149.17 277.42 149.82
  C 267.50 151.99 256.71 152.80 248.26 145.87
  C 247.06 144.89 245.55 142.99 243.78 141.85
  A 1.70 1.69 -55.1 0 0 241.51 142.26
  C 240.32 143.84 239.31 145.66 237.85 147.01
  C 235.12 149.53 230.94 153.20 227.31 154.13
  C 225.05 154.71 223.61 155.97 221.39 156.31
  C 217.08 156.97 213.00 157.59 208.41 156.18
  C 203.63 154.72 199.48 150.81 195.63 147.56
  Q 194.59 146.68 194.41 145.94
  Q 194.10 144.61 195.72 143.89
  Q 203.73 140.33 208.38 133.96
  Q 208.89 133.26 208.88 132.55
  A 0.64 0.63 -13.5 0 0 207.96 131.99
  C 204.03 133.97 199.94 136.02 195.49 135.10
  C 190.46 134.06 185.57 130.54 183.81 125.45
  A 0.81 0.81 0.0 0 0 182.30 125.41
  C 179.71 131.64 174.08 134.32 167.45 134.76
  C 161.23 135.17 156.05 132.46 150.75 130.25
  A 0.48 0.48 0.0 0 0 150.10 130.59
  Q 149.99 131.09 150.42 131.59
  Q 155.80 137.90 163.01 142.03
  Q 164.00 142.59 164.49 143.31
  A 1.33 1.32 65.7 0 1 163.72 145.35
  C 155.74 147.34 147.42 151.13 138.25 149.32
  C 136.16 148.91 133.97 148.83 131.85 148.46
  C 128.96 147.95 126.12 148.48 123.48 147.49
  C 117.53 145.26 112.74 141.70 107.51 138.23
  Q 105.98 137.21 103.48 137.09
  A 1.31 1.31 0.0 0 0 102.60 137.36
  Q 95.98 142.36 90.75 145.07
  Q 88.62 146.16 81.83 149.23
  C 71.83 153.74 63.21 154.67 51.77 154.05
  Q 48.69 153.89 45.75 154.66"
/>
<path stroke="#f4f4f3" vector-effect="non-scaling-stroke" d="
  M 269.82 91.18
  Q 258.16 83.28 244.73 88.24
  C 242.61 89.02 240.30 88.81 238.14 87.58
  C 226.13 80.79 210.02 83.34 204.73 97.56
  Q 203.77 100.16 202.67 102.66
  Q 202.56 102.92 202.81 103.05
  L 203.06 103.18
  A 0.59 0.59 0.0 0 0 203.83 102.95
  Q 205.45 100.19 207.24 97.51
  C 215.80 84.75 231.28 87.22 240.18 98.17
  A 1.01 1.01 0.0 0 0 241.93 97.80
  C 242.50 95.80 243.75 94.86 245.81 94.30
  C 253.91 92.12 261.07 91.73 266.57 98.67
  C 267.90 100.35 269.33 101.65 271.09 99.57
  C 277.85 91.57 287.16 90.62 296.45 94.45
  Q 300.74 96.23 297.94 92.53
  C 295.73 89.62 283.05 84.69 279.58 87.03
  Q 275.46 89.82 270.74 91.31
  Q 270.25 91.47 269.82 91.18"
/>
<path stroke="#d9dfe4" vector-effect="non-scaling-stroke" d="
  M 308.10 114.69
  A 0.43 0.42 -36.5 0 0 307.34 114.58
  C 303.59 120.03 298.25 124.27 291.51 120.60
  C 285.89 117.53 286.22 118.33 281.74 121.98
  C 276.58 126.19 267.06 126.76 260.90 125.34
  C 257.62 124.58 254.91 122.85 252.20 120.86
  A 0.62 0.62 0.0 0 0 251.21 121.29
  C 250.90 124.07 255.99 129.15 257.91 130.82
  Q 261.57 134.00 266.35 135.23
  C 273.69 137.10 278.83 136.19 286.49 132.94
  Q 287.71 132.41 291.53 132.90
  C 299.35 133.89 305.27 130.59 307.99 122.99
  Q 309.43 118.99 308.10 114.69"
/>
</g>
<path fill="#fafaf9" d="
  M 492.73 90.21
  Q 492.12 90.43 491.35 90.38
  A 1.56 1.49 63.0 0 1 490.61 90.12
  Q 490.19 89.82 489.68 89.79
  Q 489.26 89.77 488.94 90.05
  Q 488.44 90.50 487.78 90.63
  A 0.90 0.89 -20.5 0 1 486.82 90.20
  Q 484.74 86.62 480.77 86.33
  C 478.97 86.20 476.89 85.70 476.54 84.00
  Q 475.58 79.23 473.82 74.68
  C 471.65 69.08 463.61 62.48 457.70 60.02
  C 450.43 57.00 440.57 57.49 433.11 59.40
  C 427.16 60.93 417.93 66.93 414.03 71.75
  C 411.25 75.19 407.67 78.70 406.11 82.90
  C 405.34 84.99 403.83 85.05 402.22 83.67
  Q 399.93 81.71 396.48 80.09
  C 391.05 77.54 388.06 79.46 383.24 81.48
  C 381.06 82.39 379.46 81.93 378.26 79.74
  Q 376.71 76.92 374.59 74.50
  C 373.22 72.93 372.50 71.36 371.52 69.60
  Q 371.28 69.15 370.81 68.96
  C 365.94 66.96 360.77 63.48 355.54 65.45
  A 2.02 2.02 0.0 0 1 352.85 63.98
  C 351.95 59.74 351.46 55.44 349.00 51.83
  C 345.50 46.69 340.68 41.33 334.46 39.75
  C 329.28 38.43 321.82 38.13 317.10 41.12
  C 310.47 45.32 307.48 48.76 306.20 57.05
  C 305.77 59.80 306.61 62.11 307.25 64.73
  Q 307.72 66.66 305.73 66.60
  A 2.10 2.03 57.8 0 1 304.87 66.39
  Q 295.68 61.74 286.70 66.98
  C 283.50 68.85 284.44 71.54 283.14 73.63
  Q 281.85 75.71 279.99 74.99
  Q 271.77 71.83 264.22 71.78
  C 258.73 71.75 254.12 75.32 248.97 75.27
  A 0.53 0.53 0.0 0 1 248.52 74.47
  Q 251.44 69.62 256.18 66.46
  C 258.28 65.07 258.16 62.45 257.04 60.26
  C 254.08 54.48 250.90 48.12 244.77 45.03
  C 240.47 42.86 236.92 40.93 231.00 39.10
  C 224.11 36.95 219.14 38.72 212.84 41.94
  C 204.99 45.95 199.67 51.50 196.57 59.74
  C 195.70 62.06 195.34 65.43 197.32 66.95
  Q 201.47 70.13 204.76 73.99
  A 1.25 1.25 0.0 0 1 203.83 76.05
  C 198.14 76.16 191.40 75.01 186.04 76.53
  Q 182.11 77.64 178.39 79.37
  Q 176.87 80.08 175.76 79.25
  A 0.73 0.72 -51.1 0 1 175.65 78.18
  Q 179.55 73.96 183.53 70.61
  Q 184.72 69.62 184.92 68.87
  Q 185.30 67.45 183.45 66.61
  Q 174.18 62.38 164.01 63.32
  C 156.57 64.01 145.70 71.51 144.19 79.20
  Q 143.90 80.71 142.85 83.66
  Q 141.85 86.46 142.15 89.51
  Q 142.34 91.42 140.65 91.25
  A 1.86 1.84 -21.8 0 1 139.66 90.83
  Q 131.36 83.67 120.99 85.91
  C 116.44 86.88 113.98 89.47 113.70 94.08
  A 1.78 1.77 -89.1 0 1 111.99 95.75
  C 103.95 96.01 96.91 97.09 91.18 103.14
  Q 90.71 103.64 90.43 104.02
  A 2.20 2.19 26.3 0 0 91.60 107.45
  Q 100.10 109.82 107.12 115.15
  Q 110.23 117.52 106.35 117.02
  C 93.75 115.38 83.76 115.64 72.34 122.05
  A 1.25 1.24 45.2 0 1 71.10 122.04
  Q 69.89 121.35 71.30 119.99
  Q 74.33 117.08 78.13 115.31
  C 79.70 114.58 80.89 113.00 79.04 111.70
  C 67.08 103.33 54.14 100.56 39.74 103.79
  C 35.22 104.81 31.64 106.89 27.96 109.50
  Q 26.55 110.50 23.14 114.06
  Q 20.86 116.45 17.96 118.34
  C 19.43 105.60 30.61 96.57 42.06 92.38
  C 57.77 86.64 74.84 85.62 90.87 90.22
  C 93.09 90.85 98.83 91.79 100.89 90.87
  Q 101.36 90.66 101.55 90.19
  Q 102.15 88.69 102.02 87.50
  C 101.17 79.59 98.86 68.54 110.93 68.21
  C 115.57 68.09 119.79 68.32 123.39 70.79
  Q 129.14 74.72 134.99 78.56
  Q 135.40 79.05 136.01 79.06
  Q 136.61 79.07 136.75 77.37
  Q 136.89 74.55 136.52 71.43
  C 135.89 66.12 135.73 61.44 135.00 56.00
  Q 134.74 54.02 135.37 51.54
  C 140.26 32.47 161.73 24.06 177.41 36.82
  C 182.45 40.93 185.75 48.38 189.81 53.86
  A 0.91 0.90 51.7 0 0 191.13 54.02
  Q 191.81 53.44 192.44 52.43
  C 199.65 40.89 204.83 31.92 218.37 26.88
  Q 237.33 19.82 256.16 28.07
  C 266.29 32.51 272.61 41.71 278.41 50.68
  A 2.26 1.91 -24.5 0 0 280.89 51.38
  Q 281.66 51.13 282.28 49.74
  C 287.96 37.08 292.21 24.42 306.51 19.12
  C 319.35 14.35 335.80 13.47 347.75 21.28
  Q 355.22 26.15 360.89 34.77
  Q 363.25 38.35 363.83 40.77
  C 364.55 43.78 366.20 51.84 368.55 53.69
  Q 368.94 54.00 369.43 53.88
  Q 371.63 53.35 372.82 52.08
  Q 376.57 48.09 381.20 46.38
  C 386.01 44.59 389.00 46.51 393.17 48.86
  C 400.97 53.24 399.54 59.55 401.94 66.69
  A 1.50 1.49 57.7 0 0 404.43 67.26
  C 411.79 59.70 419.41 52.79 430.29 50.53
  Q 459.25 44.52 482.04 64.15
  C 488.43 69.65 493.34 81.89 492.73 90.21
  Z"
/>
<path fill="#ededed" d="
  M 492.73 90.21
  L 492.72 93.36
  Q 489.53 94.77 489.02 96.68
  Q 488.90 97.13 489.28 97.40
  L 490.51 98.25
  A 0.77 0.77 0.0 0 1 490.79 99.17
  L 487.91 106.49
  A 1.45 1.45 0.0 0 0 488.46 108.23
  C 489.92 109.19 490.44 110.94 491.52 112.18
  Q 492.78 113.62 493.56 115.41
  Q 497.71 124.84 490.52 132.03
  C 484.65 137.90 477.98 143.05 469.54 143.45
  C 462.46 143.79 457.45 144.50 450.18 140.87
  Q 432.26 131.94 429.27 112.21
  A 0.68 0.67 63.4 0 0 428.13 111.83
  Q 426.35 113.59 424.47 115.23
  C 422.79 116.69 420.96 117.07 418.90 117.69
  A 1.90 1.89 -15.1 0 0 417.61 119.93
  C 418.70 124.64 419.10 127.57 413.87 129.55
  C 409.26 131.28 403.97 128.16 401.43 124.27
  Q 400.44 122.76 399.50 122.81
  C 396.10 123.01 392.32 123.53 389.16 123.01
  Q 378.53 121.26 372.51 111.86
  A 1.04 1.04 0.0 0 0 370.66 112.05
  C 366.74 122.33 356.85 129.29 345.57 128.98
  C 342.94 128.91 339.87 128.09 337.46 127.32
  Q 333.74 126.14 336.17 129.19
  Q 341.71 136.14 350.72 138.51
  C 352.29 138.92 354.20 139.92 354.30 141.48
  C 354.87 150.47 347.26 159.45 339.26 162.30
  C 328.92 165.98 315.22 163.25 304.26 158.94
  Q 295.69 155.56 289.05 149.20
  Q 287.86 148.07 287.52 146.97
  A 1.54 1.54 0.0 0 0 285.32 146.08
  C 282.68 147.50 280.36 149.17 277.42 149.82
  C 267.50 151.99 256.71 152.80 248.26 145.87
  C 247.06 144.89 245.55 142.99 243.78 141.85
  A 1.70 1.69 -55.1 0 0 241.51 142.26
  C 240.32 143.84 239.31 145.66 237.85 147.01
  C 235.12 149.53 230.94 153.20 227.31 154.13
  C 225.05 154.71 223.61 155.97 221.39 156.31
  C 217.08 156.97 213.00 157.59 208.41 156.18
  C 203.63 154.72 199.48 150.81 195.63 147.56
  Q 194.59 146.68 194.41 145.94
  Q 194.10 144.61 195.72 143.89
  Q 203.73 140.33 208.38 133.96
  Q 208.89 133.26 208.88 132.55
  A 0.64 0.63 -13.5 0 0 207.96 131.99
  C 204.03 133.97 199.94 136.02 195.49 135.10
  C 190.46 134.06 185.57 130.54 183.81 125.45
  A 0.81 0.81 0.0 0 0 182.30 125.41
  C 179.71 131.64 174.08 134.32 167.45 134.76
  C 161.23 135.17 156.05 132.46 150.75 130.25
  A 0.48 0.48 0.0 0 0 150.10 130.59
  Q 149.99 131.09 150.42 131.59
  Q 155.80 137.90 163.01 142.03
  Q 164.00 142.59 164.49 143.31
  A 1.33 1.32 65.7 0 1 163.72 145.35
  C 155.74 147.34 147.42 151.13 138.25 149.32
  C 136.16 148.91 133.97 148.83 131.85 148.46
  C 128.96 147.95 126.12 148.48 123.48 147.49
  C 117.53 145.26 112.74 141.70 107.51 138.23
  Q 105.98 137.21 103.48 137.09
  A 1.31 1.31 0.0 0 0 102.60 137.36
  Q 95.98 142.36 90.75 145.07
  Q 88.62 146.16 81.83 149.23
  C 71.83 153.74 63.21 154.67 51.77 154.05
  Q 48.69 153.89 45.75 154.66
  Q 36.85 151.94 30.95 147.82
  Q 15.68 137.17 17.96 118.34
  Q 20.86 116.45 23.14 114.06
  Q 26.55 110.50 27.96 109.50
  C 31.64 106.89 35.22 104.81 39.74 103.79
  C 54.14 100.56 67.08 103.33 79.04 111.70
  C 80.89 113.00 79.70 114.58 78.13 115.31
  Q 74.33 117.08 71.30 119.99
  Q 69.89 121.35 71.10 122.04
  A 1.25 1.24 45.2 0 0 72.34 122.05
  C 83.76 115.64 93.75 115.38 106.35 117.02
  Q 110.23 117.52 107.12 115.15
  Q 100.10 109.82 91.60 107.45
  A 2.20 2.19 26.3 0 1 90.43 104.02
  Q 90.71 103.64 91.18 103.14
  C 96.91 97.09 103.95 96.01 111.99 95.75
  A 1.78 1.77 -89.1 0 0 113.70 94.08
  C 113.98 89.47 116.44 86.88 120.99 85.91
  Q 131.36 83.67 139.66 90.83
  A 1.86 1.84 -21.8 0 0 140.65 91.25
  Q 142.34 91.42 142.15 89.51
  Q 141.85 86.46 142.85 83.66
  Q 143.90 80.71 144.19 79.20
  C 145.70 71.51 156.57 64.01 164.01 63.32
  Q 174.18 62.38 183.45 66.61
  Q 185.30 67.45 184.92 68.87
  Q 184.72 69.62 183.53 70.61
  Q 179.55 73.96 175.65 78.18
  A 0.73 0.72 -51.1 0 0 175.76 79.25
  Q 176.87 80.08 178.39 79.37
  Q 182.11 77.64 186.04 76.53
  C 191.40 75.01 198.14 76.16 203.83 76.05
  A 1.25 1.25 0.0 0 0 204.76 73.99
  Q 201.47 70.13 197.32 66.95
  C 195.34 65.43 195.70 62.06 196.57 59.74
  C 199.67 51.50 204.99 45.95 212.84 41.94
  C 219.14 38.72 224.11 36.95 231.00 39.10
  C 236.92 40.93 240.47 42.86 244.77 45.03
  C 250.90 48.12 254.08 54.48 257.04 60.26
  C 258.16 62.45 258.28 65.07 256.18 66.46
  Q 251.44 69.62 248.52 74.47
  A 0.53 0.53 0.0 0 0 248.97 75.27
  C 254.12 75.32 258.73 71.75 264.22 71.78
  Q 271.77 71.83 279.99 74.99
  Q 281.85 75.71 283.14 73.63
  C 284.44 71.54 283.50 68.85 286.70 66.98
  Q 295.68 61.74 304.87 66.39
  A 2.10 2.03 57.8 0 0 305.73 66.60
  Q 307.72 66.66 307.25 64.73
  C 306.61 62.11 305.77 59.80 306.20 57.05
  C 307.48 48.76 310.47 45.32 317.10 41.12
  C 321.82 38.13 329.28 38.43 334.46 39.75
  C 340.68 41.33 345.50 46.69 349.00 51.83
  C 351.46 55.44 351.95 59.74 352.85 63.98
  A 2.02 2.02 0.0 0 0 355.54 65.45
  C 360.77 63.48 365.94 66.96 370.81 68.96
  Q 371.28 69.15 371.52 69.60
  C 372.50 71.36 373.22 72.93 374.59 74.50
  Q 376.71 76.92 378.26 79.74
  C 379.46 81.93 381.06 82.39 383.24 81.48
  C 388.06 79.46 391.05 77.54 396.48 80.09
  Q 399.93 81.71 402.22 83.67
  C 403.83 85.05 405.34 84.99 406.11 82.90
  C 407.67 78.70 411.25 75.19 414.03 71.75
  C 417.93 66.93 427.16 60.93 433.11 59.40
  C 440.57 57.49 450.43 57.00 457.70 60.02
  C 463.61 62.48 471.65 69.08 473.82 74.68
  Q 475.58 79.23 476.54 84.00
  C 476.89 85.70 478.97 86.20 480.77 86.33
  Q 484.74 86.62 486.82 90.20
  A 0.90 0.89 -20.5 0 0 487.78 90.63
  Q 488.44 90.50 488.94 90.05
  Q 489.26 89.77 489.68 89.79
  Q 490.19 89.82 490.61 90.12
  A 1.56 1.49 63.0 0 0 491.35 90.38
  Q 492.12 90.43 492.73 90.21
  Z
  M 269.82 91.18
  Q 258.16 83.28 244.73 88.24
  C 242.61 89.02 240.30 88.81 238.14 87.58
  C 226.13 80.79 210.02 83.34 204.73 97.56
  Q 203.77 100.16 202.67 102.66
  Q 202.56 102.92 202.81 103.05
  L 203.06 103.18
  A 0.59 0.59 0.0 0 0 203.83 102.95
  Q 205.45 100.19 207.24 97.51
  C 215.80 84.75 231.28 87.22 240.18 98.17
  A 1.01 1.01 0.0 0 0 241.93 97.80
  C 242.50 95.80 243.75 94.86 245.81 94.30
  C 253.91 92.12 261.07 91.73 266.57 98.67
  C 267.90 100.35 269.33 101.65 271.09 99.57
  C 277.85 91.57 287.16 90.62 296.45 94.45
  Q 300.74 96.23 297.94 92.53
  C 295.73 89.62 283.05 84.69 279.58 87.03
  Q 275.46 89.82 270.74 91.31
  Q 270.25 91.47 269.82 91.18
  Z
  M 308.10 114.69
  A 0.43 0.42 -36.5 0 0 307.34 114.58
  C 303.59 120.03 298.25 124.27 291.51 120.60
  C 285.89 117.53 286.22 118.33 281.74 121.98
  C 276.58 126.19 267.06 126.76 260.90 125.34
  C 257.62 124.58 254.91 122.85 252.20 120.86
  A 0.62 0.62 0.0 0 0 251.21 121.29
  C 250.90 124.07 255.99 129.15 257.91 130.82
  Q 261.57 134.00 266.35 135.23
  C 273.69 137.10 278.83 136.19 286.49 132.94
  Q 287.71 132.41 291.53 132.90
  C 299.35 133.89 305.27 130.59 307.99 122.99
  Q 309.43 118.99 308.10 114.69
  Z"
/>
<path fill="#c5d1db" d="
  M 136.75 77.37
  Q 136.61 79.07 136.01 79.06
  Q 135.40 79.05 134.99 78.56
  Q 135.54 78.94 136.75 77.37
  Z"
/>
<path fill="#fafaf9" d="
  M 270.74 91.31
  Q 275.46 89.82 279.58 87.03
  C 283.05 84.69 295.73 89.62 297.94 92.53
  Q 300.74 96.23 296.45 94.45
  C 287.16 90.62 277.85 91.57 271.09 99.57
  C 269.33 101.65 267.90 100.35 266.57 98.67
  C 261.07 91.73 253.91 92.12 245.81 94.30
  C 243.75 94.86 242.50 95.80 241.93 97.80
  A 1.01 1.01 0.0 0 1 240.18 98.17
  C 231.28 87.22 215.80 84.75 207.24 97.51
  Q 205.45 100.19 203.83 102.95
  A 0.59 0.59 0.0 0 1 203.06 103.18
  L 202.81 103.05
  Q 202.56 102.92 202.67 102.66
  Q 203.77 100.16 204.73 97.56
  C 210.02 83.34 226.13 80.79 238.14 87.58
  C 240.30 88.81 242.61 89.02 244.73 88.24
  Q 258.16 83.28 269.82 91.18
  Q 270.25 91.47 270.74 91.31
  Z"
/>
<path fill="#c5d1db" d="
  M 492.72 93.36
  Q 492.94 99.18 492.93 105.66
  Q 492.92 107.95 493.89 110.18
  C 497.97 119.60 500.31 128.37 492.78 136.77
  C 486.97 143.25 480.68 148.18 470.89 149.90
  C 455.56 152.59 440.23 147.74 427.45 139.51
  Q 426.46 138.87 425.08 138.61
  A 1.73 1.72 16.0 0 0 423.16 139.67
  C 420.31 146.82 414.40 153.70 407.01 156.33
  C 397.35 159.77 381.58 153.73 373.14 148.75
  Q 372.71 148.49 372.25 148.68
  Q 369.86 149.64 368.91 150.65
  C 359.94 160.11 347.44 171.77 333.91 172.56
  C 315.73 173.63 301.08 165.14 287.77 153.42
  C 286.07 151.93 284.77 151.73 282.76 152.57
  C 276.21 155.30 269.56 155.29 262.48 154.91
  C 257.40 154.63 251.38 152.53 247.25 151.99
  C 242.85 151.42 237.54 156.80 234.31 159.54
  C 216.69 174.46 191.12 172.73 174.77 156.70
  C 172.59 154.57 170.59 153.56 167.78 154.84
  C 151.68 162.21 131.81 159.62 117.26 150.27
  C 113.05 147.56 106.35 140.44 100.90 143.33
  C 89.39 149.44 78.65 155.77 65.75 156.53
  Q 57.23 157.02 45.75 154.66
  Q 48.69 153.89 51.77 154.05
  C 63.21 154.67 71.83 153.74 81.83 149.23
  Q 88.62 146.16 90.75 145.07
  Q 95.98 142.36 102.60 137.36
  A 1.31 1.31 0.0 0 1 103.48 137.09
  Q 105.98 137.21 107.51 138.23
  C 112.74 141.70 117.53 145.26 123.48 147.49
  C 126.12 148.48 128.96 147.95 131.85 148.46
  C 133.97 148.83 136.16 148.91 138.25 149.32
  C 147.42 151.13 155.74 147.34 163.72 145.35
  A 1.33 1.32 65.7 0 0 164.49 143.31
  Q 164.00 142.59 163.01 142.03
  Q 155.80 137.90 150.42 131.59
  Q 149.99 131.09 150.10 130.59
  A 0.48 0.48 0.0 0 1 150.75 130.25
  C 156.05 132.46 161.23 135.17 167.45 134.76
  C 174.08 134.32 179.71 131.64 182.30 125.41
  A 0.81 0.81 0.0 0 1 183.81 125.45
  C 185.57 130.54 190.46 134.06 195.49 135.10
  C 199.94 136.02 204.03 133.97 207.96 131.99
  A 0.64 0.63 -13.5 0 1 208.88 132.55
  Q 208.89 133.26 208.38 133.96
  Q 203.73 140.33 195.72 143.89
  Q 194.10 144.61 194.41 145.94
  Q 194.59 146.68 195.63 147.56
  C 199.48 150.81 203.63 154.72 208.41 156.18
  C 213.00 157.59 217.08 156.97 221.39 156.31
  C 223.61 155.97 225.05 154.71 227.31 154.13
  C 230.94 153.20 235.12 149.53 237.85 147.01
  C 239.31 145.66 240.32 143.84 241.51 142.26
  A 1.70 1.69 -55.1 0 1 243.78 141.85
  C 245.55 142.99 247.06 144.89 248.26 145.87
  C 256.71 152.80 267.50 151.99 277.42 149.82
  C 280.36 149.17 282.68 147.50 285.32 146.08
  A 1.54 1.54 0.0 0 1 287.52 146.97
  Q 287.86 148.07 289.05 149.20
  Q 295.69 155.56 304.26 158.94
  C 315.22 163.25 328.92 165.98 339.26 162.30
  C 347.26 159.45 354.87 150.47 354.30 141.48
  C 354.20 139.92 352.29 138.92 350.72 138.51
  Q 341.71 136.14 336.17 129.19
  Q 333.74 126.14 337.46 127.32
  C 339.87 128.09 342.94 128.91 345.57 128.98
  C 356.85 129.29 366.74 122.33 370.66 112.05
  A 1.04 1.04 0.0 0 1 372.51 111.86
  Q 378.53 121.26 389.16 123.01
  C 392.32 123.53 396.10 123.01 399.50 122.81
  Q 400.44 122.76 401.43 124.27
  C 403.97 128.16 409.26 131.28 413.87 129.55
  C 419.10 127.57 418.70 124.64 417.61 119.93
  A 1.90 1.89 -15.1 0 1 418.90 117.69
  C 420.96 117.07 422.79 116.69 424.47 115.23
  Q 426.35 113.59 428.13 111.83
  A 0.68 0.67 63.4 0 1 429.27 112.21
  Q 432.26 131.94 450.18 140.87
  C 457.45 144.50 462.46 143.79 469.54 143.45
  C 477.98 143.05 484.65 137.90 490.52 132.03
  Q 497.71 124.84 493.56 115.41
  Q 492.78 113.62 491.52 112.18
  C 490.44 110.94 489.92 109.19 488.46 108.23
  A 1.45 1.45 0.0 0 1 487.91 106.49
  L 490.79 99.17
  A 0.77 0.77 0.0 0 0 490.51 98.25
  L 489.28 97.40
  Q 488.90 97.13 489.02 96.68
  Q 489.53 94.77 492.72 93.36
  Z"
/>
<path fill="#c5d1db" d="
  M 308.10 114.69
  Q 309.43 118.99 307.99 122.99
  C 305.27 130.59 299.35 133.89 291.53 132.90
  Q 287.71 132.41 286.49 132.94
  C 278.83 136.19 273.69 137.10 266.35 135.23
  Q 261.57 134.00 257.91 130.82
  C 255.99 129.15 250.90 124.07 251.21 121.29
  A 0.62 0.62 0.0 0 1 252.20 120.86
  C 254.91 122.85 257.62 124.58 260.90 125.34
  C 267.06 126.76 276.58 126.19 281.74 121.98
  C 286.22 118.33 285.89 117.53 291.51 120.60
  C 298.25 124.27 303.59 120.03 307.34 114.58
  A 0.43 0.42 -36.5 0 1 308.10 114.69
  Z"
/>
</svg>
