<?xml version="1.0" encoding="UTF-8" standalone="no"?>
<!DOCTYPE svg PUBLIC "-//W3C//DTD SVG 1.1//EN" "http://www.w3.org/Graphics/SVG/1.1/DTD/svg11.dtd">
<svg xmlns="http://www.w3.org/2000/svg" version="1.1" viewBox="0.00 0.00 326.00 179.00">
<g stroke-width="2.00" fill="none" stroke-linecap="butt">
<path stroke="#f4f4f4" vector-effect="non-scaling-stroke" d="
  M 311.13 89.96
  C 308.48 90.69 306.84 88.63 305.48 86.82
  Q 305.17 86.41 304.66 86.37
  C 299.85 85.94 295.57 80.70 290.86 80.55
  A 2.12 2.12 0.0 0 0 288.97 83.73
  Q 289.74 85.05 290.21 87.28
  Q 290.71 89.63 288.06 88.33
  A 1.19 1.18 -7.5 0 1 287.65 88.02
  C 284.60 84.37 277.96 79.66 273.00 80.85
  C 271.75 81.15 270.19 81.97 268.92 81.30
  A 0.80 0.79 -42.7 0 1 268.98 79.87
  L 272.84 78.21
  A 1.42 1.42 0.0 0 0 273.55 76.26
  Q 272.10 73.41 269.21 71.85
  C 259.44 66.57 251.68 71.27 243.98 77.11
  A 1.78 1.78 0.0 0 1 241.58 76.89
  C 239.88 75.01 238.85 73.04 236.79 71.80
  C 229.38 67.35 222.86 65.88 214.59 69.48
  C 209.43 71.73 207.07 72.72 203.91 77.62
  A 1.20 1.20 0.0 0 1 201.80 77.45
  Q 196.76 65.77 185.62 62.24
  C 173.18 58.30 160.96 66.75 157.35 78.52
  C 156.78 80.36 156.22 81.37 154.13 80.40
  C 148.94 78.01 140.73 75.28 134.83 75.86
  C 133.19 76.02 130.39 76.90 128.89 76.47
  Q 124.00 75.05 128.76 73.54
  Q 130.29 73.05 131.81 72.30
  A 1.34 1.33 55.1 0 0 132.18 70.18
  C 128.75 66.57 124.98 64.27 121.09 61.29
  C 108.79 51.85 93.56 50.11 80.53 58.81
  Q 77.47 60.85 75.56 63.29
  C 72.78 66.81 72.67 70.78 71.87 74.73
  C 71.40 77.08 71.91 78.64 72.61 80.79
  C 74.06 85.25 77.12 83.61 80.18 83.97
  Q 83.98 84.42 87.30 85.57
  A 0.52 0.52 0.0 0 1 87.26 86.57
  C 80.98 88.12 73.50 89.04 68.67 93.86
  A 2.10 2.10 0.0 0 1 65.79 93.94
  C 63.04 91.46 60.87 90.86 55.99 90.76
  C 44.97 90.55 36.97 94.63 28.83 101.62
  C 26.53 103.59 25.40 106.40 23.76 108.26
  Q 21.01 111.36 18.11 115.33"
/>
<path stroke="#d9dfe4" vector-effect="non-scaling-stroke" d="
  M 299.22 111.47
  C 295.73 111.57 292.62 112.70 289.25 112.32
  C 282.14 111.52 275.80 111.02 271.11 104.92
  A 1.43 1.43 0.0 0 0 268.80 104.98
  Q 265.51 109.74 260.11 111.75
  Q 257.84 112.60 260.24 112.94
  C 261.80 113.15 265.22 112.57 266.17 114.58
  C 271.06 124.85 263.87 138.41 251.74 137.45
  Q 244.10 136.84 240.57 130.05
  C 238.97 126.98 239.33 123.54 240.15 120.31
  A 0.78 0.77 -4.2 0 0 239.10 119.41
  C 236.33 120.56 234.03 122.15 231.16 122.77
  C 228.76 123.29 226.31 124.03 223.91 123.84
  Q 219.18 123.47 214.79 121.58
  Q 213.76 121.13 212.96 121.13
  A 0.58 0.58 0.0 0 0 212.56 122.13
  Q 214.12 123.64 215.67 124.81
  C 221.82 129.46 207.83 140.35 203.02 141.71
  Q 201.02 142.28 199.40 143.02
  C 195.26 144.93 188.66 144.57 183.00 144.37
  C 171.69 143.97 158.52 136.23 148.22 128.75
  Q 145.71 126.93 143.89 128.86
  C 135.78 137.50 125.47 135.79 116.26 130.07
  Q 109.47 125.86 109.82 118.10
  A 1.66 1.65 3.8 0 0 108.31 116.38
  Q 100.39 115.68 96.29 109.22
  C 95.47 107.92 95.24 106.45 94.75 104.92
  A 1.31 1.30 56.3 0 0 92.52 104.47
  C 87.92 109.88 81.05 113.06 74.75 116.44
  Q 71.87 117.99 61.56 119.66
  C 57.61 120.30 59.69 125.62 58.45 128.64
  Q 57.69 130.50 55.23 132.08
  Q 50.96 134.82 46.39 138.08"
/>
<path stroke="#d9dfe4" vector-effect="non-scaling-stroke" d="
  M 239.38 98.87
  C 237.33 105.40 234.99 106.71 228.25 106.81
  Q 227.52 106.83 227.59 107.52
  A 0.56 0.56 0.0 0 0 227.89 107.96
  C 231.43 109.74 239.61 110.95 240.86 105.52
  Q 241.44 102.97 240.46 99.17
  Q 240.32 98.63 239.79 98.59
  A 0.41 0.40 -78.8 0 0 239.38 98.87"
/>
<path stroke="#d9dfe4" vector-effect="non-scaling-stroke" d="
  M 135.47 111.83
  L 134.23 113.33
  A 1.22 1.22 0.0 0 0 134.62 115.19
  Q 141.80 118.82 149.27 116.23
  C 151.46 115.47 153.67 113.91 155.85 112.69
  C 157.34 111.85 158.40 112.16 159.60 113.16
  C 165.23 117.83 172.60 119.01 178.73 114.49
  Q 179.52 113.91 179.34 113.15
  A 1.10 1.10 0.0 0 0 178.30 112.31
  C 175.24 112.23 171.95 112.30 169.19 111.12
  Q 163.18 108.55 159.84 102.79
  A 1.81 1.80 60.7 0 0 157.43 102.11
  Q 150.49 105.82 142.39 104.80
  C 136.51 104.06 134.12 102.58 129.64 98.96
  A 0.78 0.78 0.0 0 0 128.44 99.24
  C 127.13 102.07 133.29 109.10 135.35 110.71
  A 0.79 0.79 0.0 0 1 135.47 111.83"
/>
</g>
<path fill="#fafafa" d="
  M 311.13 89.96
  C 308.48 90.69 306.84 88.63 305.48 86.82
  Q 305.17 86.41 304.66 86.37
  C 299.85 85.94 295.57 80.70 290.86 80.55
  A 2.12 2.12 0.0 0 0 288.97 83.73
  Q 289.74 85.05 290.21 87.28
  Q 290.71 89.63 288.06 88.33
  A 1.19 1.18 -7.5 0 1 287.65 88.02
  C 284.60 84.37 277.96 79.66 273.00 80.85
  C 271.75 81.15 270.19 81.97 268.92 81.30
  A 0.80 0.79 -42.7 0 1 268.98 79.87
  L 272.84 78.21
  A 1.42 1.42 0.0 0 0 273.55 76.26
  Q 272.10 73.41 269.21 71.85
  C 259.44 66.57 251.68 71.27 243.98 77.11
  A 1.78 1.78 0.0 0 1 241.58 76.89
  C 239.88 75.01 238.85 73.04 236.79 71.80
  C 229.38 67.35 222.86 65.88 214.59 69.48
  C 209.43 71.73 207.07 72.72 203.91 77.62
  A 1.20 1.20 0.0 0 1 201.80 77.45
  Q 196.76 65.77 185.62 62.24
  C 173.18 58.30 160.96 66.75 157.35 78.52
  C 156.78 80.36 156.22 81.37 154.13 80.40
  C 148.94 78.01 140.73 75.28 134.83 75.86
  C 133.19 76.02 130.39 76.90 128.89 76.47
  Q 124.00 75.05 128.76 73.54
  Q 130.29 73.05 131.81 72.30
  A 1.34 1.33 55.1 0 0 132.18 70.18
  C 128.75 66.57 124.98 64.27 121.09 61.29
  C 108.79 51.85 93.56 50.11 80.53 58.81
  Q 77.47 60.85 75.56 63.29
  C 72.78 66.81 72.67 70.78 71.87 74.73
  C 71.40 77.08 71.91 78.64 72.61 80.79
  C 74.06 85.25 77.12 83.61 80.18 83.97
  Q 83.98 84.42 87.30 85.57
  A 0.52 0.52 0.0 0 1 87.26 86.57
  C 80.98 88.12 73.50 89.04 68.67 93.86
  A 2.10 2.10 0.0 0 1 65.79 93.94
  C 63.04 91.46 60.87 90.86 55.99 90.76
  C 44.97 90.55 36.97 94.63 28.83 101.62
  C 26.53 103.59 25.40 106.40 23.76 108.26
  Q 21.01 111.36 18.11 115.33
  C 16.69 106.28 22.81 97.81 29.62 92.63
  Q 37.50 86.64 42.25 84.67
  C 45.13 83.47 48.49 83.70 51.57 83.06
  C 55.69 82.20 58.76 81.81 62.39 81.11
  A 1.09 1.08 -5.5 0 0 63.27 80.05
  Q 63.28 78.54 62.29 76.92
  C 58.65 70.99 59.54 64.13 60.13 57.63
  C 60.47 53.97 63.29 48.43 65.97 45.74
  Q 71.02 40.68 78.02 38.77
  C 83.93 37.16 88.52 35.80 92.85 36.05
  C 96.33 36.25 99.99 37.45 103.46 38.09
  Q 107.27 38.79 110.29 40.26
  C 114.06 42.10 117.65 43.74 120.93 46.35
  Q 130.20 53.74 139.58 64.16
  Q 140.61 65.31 142.41 65.02
  Q 142.88 64.94 143.16 64.55
  C 145.79 60.85 149.23 58.47 152.27 55.10
  C 154.89 52.21 158.16 50.46 160.86 47.88
  Q 163.08 45.76 165.00 44.55
  Q 176.45 37.31 190.25 32.69
  Q 195.35 30.99 199.96 30.77
  C 205.45 30.52 210.90 30.65 216.12 32.87
  C 218.85 34.03 221.55 34.84 223.94 36.57
  Q 229.84 40.81 231.65 43.85
  Q 235.87 50.92 236.51 52.98
  C 237.52 56.26 237.39 59.75 238.96 62.81
  A 0.69 0.67 -36.7 0 0 240.06 62.96
  C 243.38 59.46 253.03 56.29 258.45 55.99
  C 264.73 55.65 274.37 58.22 278.21 63.54
  C 282.43 69.39 283.50 72.36 291.21 73.79
  Q 305.24 76.40 311.13 89.96
  Z"
/>
<path fill="#ededed" d="
  M 311.13 89.96
  C 315.00 99.32 307.66 108.09 299.22 111.47
  C 295.73 111.57 292.62 112.70 289.25 112.32
  C 282.14 111.52 275.80 111.02 271.11 104.92
  A 1.43 1.43 0.0 0 0 268.80 104.98
  Q 265.51 109.74 260.11 111.75
  Q 257.84 112.60 260.24 112.94
  C 261.80 113.15 265.22 112.57 266.17 114.58
  C 271.06 124.85 263.87 138.41 251.74 137.45
  Q 244.10 136.84 240.57 130.05
  C 238.97 126.98 239.33 123.54 240.15 120.31
  A 0.78 0.77 -4.2 0 0 239.10 119.41
  C 236.33 120.56 234.03 122.15 231.16 122.77
  C 228.76 123.29 226.31 124.03 223.91 123.84
  Q 219.18 123.47 214.79 121.58
  Q 213.76 121.13 212.96 121.13
  A 0.58 0.58 0.0 0 0 212.56 122.13
  Q 214.12 123.64 215.67 124.81
  C 221.82 129.46 207.83 140.35 203.02 141.71
  Q 201.02 142.28 199.40 143.02
  C 195.26 144.93 188.66 144.57 183.00 144.37
  C 171.69 143.97 158.52 136.23 148.22 128.75
  Q 145.71 126.93 143.89 128.86
  C 135.78 137.50 125.47 135.79 116.26 130.07
  Q 109.47 125.86 109.82 118.10
  A 1.66 1.65 3.8 0 0 108.31 116.38
  Q 100.39 115.68 96.29 109.22
  C 95.47 107.92 95.24 106.45 94.75 104.92
  A 1.31 1.30 56.3 0 0 92.52 104.47
  C 87.92 109.88 81.05 113.06 74.75 116.44
  Q 71.87 117.99 61.56 119.66
  C 57.61 120.30 59.69 125.62 58.45 128.64
  Q 57.69 130.50 55.23 132.08
  Q 50.96 134.82 46.39 138.08
  Q 43.03 138.63 36.74 136.56
  Q 23.93 132.35 19.03 120.46
  Q 18.09 118.17 18.11 115.33
  Q 21.01 111.36 23.76 108.26
  C 25.40 106.40 26.53 103.59 28.83 101.62
  C 36.97 94.63 44.97 90.55 55.99 90.76
  C 60.87 90.86 63.04 91.46 65.79 93.94
  A 2.10 2.10 0.0 0 0 68.67 93.86
  C 73.50 89.04 80.98 88.12 87.26 86.57
  A 0.52 0.52 0.0 0 0 87.30 85.57
  Q 83.98 84.42 80.18 83.97
  C 77.12 83.61 74.06 85.25 72.61 80.79
  C 71.91 78.64 71.40 77.08 71.87 74.73
  C 72.67 70.78 72.78 66.81 75.56 63.29
  Q 77.47 60.85 80.53 58.81
  C 93.56 50.11 108.79 51.85 121.09 61.29
  C 124.98 64.27 128.75 66.57 132.18 70.18
  A 1.34 1.33 55.1 0 1 131.81 72.30
  Q 130.29 73.05 128.76 73.54
  Q 124.00 75.05 128.89 76.47
  C 130.39 76.90 133.19 76.02 134.83 75.86
  C 140.73 75.28 148.94 78.01 154.13 80.40
  C 156.22 81.37 156.78 80.36 157.35 78.52
  C 160.96 66.75 173.18 58.30 185.62 62.24
  Q 196.76 65.77 201.80 77.45
  A 1.20 1.20 0.0 0 0 203.91 77.62
  C 207.07 72.72 209.43 71.73 214.59 69.48
  C 222.86 65.88 229.38 67.35 236.79 71.80
  C 238.85 73.04 239.88 75.01 241.58 76.89
  A 1.78 1.78 0.0 0 0 243.98 77.11
  C 251.68 71.27 259.44 66.57 269.21 71.85
  Q 272.10 73.41 273.55 76.26
  A 1.42 1.42 0.0 0 1 272.84 78.21
  L 268.98 79.87
  A 0.80 0.79 -42.7 0 0 268.92 81.30
  C 270.19 81.97 271.75 81.15 273.00 80.85
  C 277.96 79.66 284.60 84.37 287.65 88.02
  A 1.19 1.18 -7.5 0 0 288.06 88.33
  Q 290.71 89.63 290.21 87.28
  Q 289.74 85.05 288.97 83.73
  A 2.12 2.12 0.0 0 1 290.86 80.55
  C 295.57 80.70 299.85 85.94 304.66 86.37
  Q 305.17 86.41 305.48 86.82
  C 306.84 88.63 308.48 90.69 311.13 89.96
  Z
  M 239.38 98.87
  C 237.33 105.40 234.99 106.71 228.25 106.81
  Q 227.52 106.83 227.59 107.52
  A 0.56 0.56 0.0 0 0 227.89 107.96
  C 231.43 109.74 239.61 110.95 240.86 105.52
  Q 241.44 102.97 240.46 99.17
  Q 240.32 98.63 239.79 98.59
  A 0.41 0.40 -78.8 0 0 239.38 98.87
  Z
  M 135.47 111.83
  L 134.23 113.33
  A 1.22 1.22 0.0 0 0 134.62 115.19
  Q 141.80 118.82 149.27 116.23
  C 151.46 115.47 153.67 113.91 155.85 112.69
  C 157.34 111.85 158.40 112.16 159.60 113.16
  C 165.23 117.83 172.60 119.01 178.73 114.49
  Q 179.52 113.91 179.34 113.15
  A 1.10 1.10 0.0 0 0 178.30 112.31
  C 175.24 112.23 171.95 112.30 169.19 111.12
  Q 163.18 108.55 159.84 102.79
  A 1.81 1.80 60.7 0 0 157.43 102.11
  Q 150.49 105.82 142.39 104.80
  C 136.51 104.06 134.12 102.58 129.64 98.96
  A 0.78 0.78 0.0 0 0 128.44 99.24
  C 127.13 102.07 133.29 109.10 135.35 110.71
  A 0.79 0.79 0.0 0 1 135.47 111.83
  Z"
/>
<path fill="#c5d1db" d="
  M 239.38 98.87
  A 0.41 0.40 -78.8 0 1 239.79 98.59
  Q 240.32 98.63 240.46 99.17
  Q 241.44 102.97 240.86 105.52
  C 239.61 110.95 231.43 109.74 227.89 107.96
  A 0.56 0.56 0.0 0 1 227.59 107.52
  Q 227.52 106.83 228.25 106.81
  C 234.99 106.71 237.33 105.40 239.38 98.87
  Z"
/>
<path fill="#c5d1db" d="
  M 135.47 111.83
  A 0.79 0.79 0.0 0 0 135.35 110.71
  C 133.29 109.10 127.13 102.07 128.44 99.24
  A 0.78 0.78 0.0 0 1 129.64 98.96
  C 134.12 102.58 136.51 104.06 142.39 104.80
  Q 150.49 105.82 157.43 102.11
  A 1.81 1.80 60.7 0 1 159.84 102.79
  Q 163.18 108.55 169.19 111.12
  C 171.95 112.30 175.24 112.23 178.30 112.31
  A 1.10 1.10 0.0 0 1 179.34 113.15
  Q 179.52 113.91 178.73 114.49
  C 172.60 119.01 165.23 117.83 159.60 113.16
  C 158.40 112.16 157.34 111.85 155.85 112.69
  C 153.67 113.91 151.46 115.47 149.27 116.23
  Q 141.80 118.82 134.62 115.19
  A 1.22 1.22 0.0 0 1 134.23 113.33
  L 135.47 111.83
  Z"
/>
<path fill="#c5d1db" d="
  M 299.22 111.47
  Q 292.71 114.79 290.26 114.77
  C 286.71 114.74 281.69 114.95 281.08 119.00
  C 280.33 124.09 281.04 129.16 279.31 134.25
  C 276.36 142.95 272.72 148.58 262.50 149.35
  C 258.54 149.64 254.73 150.17 250.91 149.06
  C 246.93 147.90 242.97 146.77 240.11 143.46
  C 236.84 139.68 233.22 137.25 231.47 132.39
  A 1.59 1.58 -22.7 0 0 229.28 131.50
  Q 226.51 132.86 224.54 134.77
  C 221.69 137.54 218.82 139.96 215.89 142.56
  C 206.89 150.52 195.48 149.56 184.08 149.46
  C 177.55 149.40 171.11 147.98 165.73 145.53
  C 162.11 143.87 157.98 139.21 152.86 138.73
  Q 150.61 138.52 147.86 139.75
  C 141.70 142.49 135.03 145.90 128.29 146.55
  C 117.26 147.63 109.22 147.74 100.91 139.61
  C 96.05 134.87 92.36 127.62 89.02 121.62
  C 88.32 120.37 88.00 118.84 87.31 117.44
  Q 87.08 116.97 86.64 117.24
  Q 83.02 119.35 81.73 120.51
  Q 69.38 131.62 56.77 136.38
  Q 54.61 137.20 46.39 138.08
  Q 50.96 134.82 55.23 132.08
  Q 57.69 130.50 58.45 128.64
  C 59.69 125.62 57.61 120.30 61.56 119.66
  Q 71.87 117.99 74.75 116.44
  C 81.05 113.06 87.92 109.88 92.52 104.47
  A 1.31 1.30 56.3 0 1 94.75 104.92
  C 95.24 106.45 95.47 107.92 96.29 109.22
  Q 100.39 115.68 108.31 116.38
  A 1.66 1.65 3.8 0 1 109.82 118.10
  Q 109.47 125.86 116.26 130.07
  C 125.47 135.79 135.78 137.50 143.89 128.86
  Q 145.71 126.93 148.22 128.75
  C 158.52 136.23 171.69 143.97 183.00 144.37
  C 188.66 144.57 195.26 144.93 199.40 143.02
  Q 201.02 142.28 203.02 141.71
  C 207.83 140.35 221.82 129.46 215.67 124.81
  Q 214.12 123.64 212.56 122.13
  A 0.58 0.58 0.0 0 1 212.96 121.13
  Q 213.76 121.13 214.79 121.58
  Q 219.18 123.47 223.91 123.84
  C 226.31 124.03 228.76 123.29 231.16 122.77
  C 234.03 122.15 236.33 120.56 239.10 119.41
  A 0.78 0.77 -4.2 0 1 240.15 120.31
  C 239.33 123.54 238.97 126.98 240.57 130.05
  Q 244.10 136.84 251.74 137.45
  C 263.87 138.41 271.06 124.85 266.17 114.58
  C 265.22 112.57 261.80 113.15 260.24 112.94
  Q 257.84 112.60 260.11 111.75
  Q 265.51 109.74 268.80 104.98
  A 1.43 1.43 0.0 0 1 271.11 104.92
  C 275.80 111.02 282.14 111.52 289.25 112.32
  C 292.62 112.70 295.73 111.57 299.22 111.47
  Z"
/>
</svg>
