<?xml version="1.0" encoding="UTF-8" standalone="no"?>
<!DOCTYPE svg PUBLIC "-//W3C//DTD SVG 1.1//EN" "http://www.w3.org/Graphics/SVG/1.1/DTD/svg11.dtd">
<svg xmlns="http://www.w3.org/2000/svg" version="1.1" viewBox="0.00 0.00 1920.00 370.00">
<g stroke-width="2.00" fill="none" stroke-linecap="butt">
<path stroke="#53a9d8" vector-effect="non-scaling-stroke" d="
  M 1860.12 64.19
  L 1819.97 76.32"
/>
<path stroke="#5faedf" vector-effect="non-scaling-stroke" d="
  M 1819.97 76.32
  Q 1800.02 67.65 1778.99 60.02
  Q 1757.31 52.15 1737.50 49.04
  C 1698.50 42.91 1657.75 52.18 1620.18 64.40
  C 1619.04 64.77 1617.47 64.80 1616.31 65.45"
/>
<path stroke="#53a9d8" vector-effect="non-scaling-stroke" d="
  M 1616.31 65.45
  Q 1615.54 64.58 1614.37 64.34
  C 1566.68 54.63 1518.88 46.97 1470.03 48.34
  Q 1469.55 48.36 1467.01 48.03
  Q 1465.70 47.85 1463.92 48.03"
/>
<path stroke="#53a9d8" vector-effect="non-scaling-stroke" d="
  M 1411.31 55.14
  Q 1406.97 56.62 1402.29 57.00
  Q 1397.49 57.39 1394.81 58.02
  C 1381.63 61.10 1368.79 63.40 1354.39 67.09"
/>
<path stroke="#5faedf" vector-effect="non-scaling-stroke" d="
  M 1354.39 67.09
  C 1332.20 58.98 1309.98 51.33 1286.63 47.12
  C 1227.73 36.49 1172.22 57.94 1116.80 76.66
  Q 1116.54 76.75 1116.24 76.73
  Q 1115.25 76.68 1115.70 76.99"
/>
<path stroke="#53a9d8" vector-effect="non-scaling-stroke" d="
  M 1115.70 76.99
  L 1114.64 76.31
  A 1.68 1.52 66.3 0 0 1114.35 76.18
  C 1082.56 67.00 1049.31 55.14 1022.76 46.43
  Q 1010.82 42.52 995.34 38.27"
/>
<path stroke="#5faedf" vector-effect="non-scaling-stroke" d="
  M 803.47 39.01
  Q 797.98 39.32 792.48 39.23
  C 759.70 38.70 726.48 45.66 695.03 54.37
  Q 674.84 59.97 655.25 65.50"
/>
<path stroke="#53a9d8" vector-effect="non-scaling-stroke" d="
  M 655.25 65.50
  Q 651.66 64.37 641.74 62.77
  C 629.13 60.74 610.66 56.72 594.51 52.97
  Q 565.43 46.22 536.41 40.26"
/>
<path stroke="#53a9d8" vector-effect="non-scaling-stroke" d="
  M 379.98 51.64
  L 373.35 54.66"
/>
<path stroke="#5faedf" vector-effect="non-scaling-stroke" d="
  M 373.35 54.66
  Q 348.21 44.98 327.75 41.00
  Q 293.50 34.33 256.62 41.47
  Q 225.91 47.42 197.16 57.46"
/>
<path stroke="#53a9d8" vector-effect="non-scaling-stroke" d="
  M 197.16 57.46
  C 166.02 49.64 131.29 42.25 98.72 39.31"
/>
<path stroke="#5eb8e4" vector-effect="non-scaling-stroke" d="
  M 1115.70 76.99
  Q 1110.13 78.14 1106.50 81.34"
/>
<path stroke="#6dc1ee" vector-effect="non-scaling-stroke" d="
  M 1106.50 81.34
  Q 1085.07 84.56 1073.00 88.25
  Q 1060.51 92.07 1049.15 95.33"
/>
<path stroke="#5eb8e4" vector-effect="non-scaling-stroke" d="
  M 1049.15 95.33
  Q 1039.44 95.86 1030.21 96.53
  Q 1017.77 97.43 1011.26 97.28
  C 969.05 96.33 929.55 78.25 891.08 62.11
  Q 867.66 52.29 843.18 45.62
  C 837.75 44.14 831.32 43.04 825.37 41.62"
/>
<path stroke="#5eb8e4" vector-effect="non-scaling-stroke" d="
  M 655.25 65.50
  Q 650.24 67.12 645.73 68.49
  C 598.18 83.00 548.26 96.64 498.00 93.22
  C 453.96 90.23 413.86 70.24 373.35 54.66"
/>
<path stroke="#79c6f5" vector-effect="non-scaling-stroke" d="
  M 1049.15 95.33
  C 1021.66 106.92 994.70 118.47 966.79 128.03
  C 937.38 138.10 908.19 141.11 877.82 137.02
  C 813.57 128.38 755.89 95.72 691.50 87.36
  C 661.91 83.53 633.18 86.93 604.74 95.45
  C 545.90 113.09 489.79 145.45 426.00 139.16
  C 352.14 131.87 288.14 91.94 214.25 88.77
  C 138.20 85.52 78.50 140.57 4.51 147.52
  Q 2.94 147.67 0.00 147.52"
/>
<path stroke="#5eb8e4" vector-effect="non-scaling-stroke" d="
  M 0.00 106.17
  C 31.97 107.21 61.84 103.23 92.00 93.64
  Q 92.41 93.51 110.95 87.30
  Q 154.47 72.72 188.74 60.40
  Q 195.41 58.01 197.16 57.46"
/>
<path stroke="#5eb8e4" vector-effect="non-scaling-stroke" d="
  M 1354.39 67.09
  C 1376.89 75.77 1398.21 83.74 1422.48 90.53
  Q 1453.86 99.30 1485.26 98.13
  C 1517.36 96.92 1549.78 87.34 1580.14 77.42
  Q 1598.21 71.51 1616.31 65.45"
/>
<path stroke="#5eb8e4" vector-effect="non-scaling-stroke" d="
  M 1819.97 76.32
  C 1851.35 90.26 1885.06 104.22 1920.00 106.12"
/>
<path stroke="#79c6f5" vector-effect="non-scaling-stroke" d="
  M 1920.00 147.60
  Q 1870.96 149.71 1824.49 134.05
  Q 1798.96 125.45 1773.45 116.79
  C 1711.69 95.84 1650.62 68.08 1583.53 84.68
  C 1543.18 94.67 1507.29 114.45 1465.75 126.78
  C 1404.51 144.95 1343.87 130.76 1284.26 113.02
  C 1239.47 99.69 1194.58 85.40 1147.75 81.35
  Q 1130.94 79.90 1106.50 81.34"
/>
</g>
<path fill="#539fd3" d="
  M 1619.37 0.00
  L 1632.26 0.00
  C 1669.75 2.20 1704.17 12.82 1740.02 25.72
  Q 1771.25 36.96 1825.72 55.09
  Q 1840.15 59.89 1860.12 64.19
  L 1819.97 76.32
  Q 1800.02 67.65 1778.99 60.02
  Q 1757.31 52.15 1737.50 49.04
  C 1698.50 42.91 1657.75 52.18 1620.18 64.40
  C 1619.04 64.77 1617.47 64.80 1616.31 65.45
  Q 1615.54 64.58 1614.37 64.34
  C 1566.68 54.63 1518.88 46.97 1470.03 48.34
  Q 1469.55 48.36 1467.01 48.03
  Q 1465.70 47.85 1463.92 48.03
  C 1518.97 31.31 1563.24 3.15 1619.37 0.00
  Z"
/>
<path fill="#539fd3" d="
  M 1411.31 55.14
  Q 1406.97 56.62 1402.29 57.00
  Q 1397.49 57.39 1394.81 58.02
  C 1381.63 61.10 1368.79 63.40 1354.39 67.09
  C 1332.20 58.98 1309.98 51.33 1286.63 47.12
  C 1227.73 36.49 1172.22 57.94 1116.80 76.66
  Q 1116.54 76.75 1116.24 76.73
  Q 1115.25 76.68 1115.70 76.99
  L 1114.64 76.31
  A 1.68 1.52 66.3 0 0 1114.35 76.18
  C 1082.56 67.00 1049.31 55.14 1022.76 46.43
  Q 1010.82 42.52 995.34 38.27
  C 1021.61 27.29 1041.00 18.84 1064.60 11.34
  C 1095.91 1.40 1127.97 -0.73 1160.49 3.33
  C 1243.01 13.62 1318.63 54.10 1402.54 56.02
  C 1405.55 56.09 1408.38 55.62 1411.31 55.14
  Z"
/>
<path fill="#539fd3" d="
  M 803.47 39.01
  Q 797.98 39.32 792.48 39.23
  C 759.70 38.70 726.48 45.66 695.03 54.37
  Q 674.84 59.97 655.25 65.50
  Q 651.66 64.37 641.74 62.77
  C 629.13 60.74 610.66 56.72 594.51 52.97
  Q 565.43 46.22 536.41 40.26
  C 566.60 28.96 587.68 20.54 614.46 13.32
  Q 652.99 2.92 692.61 8.18
  C 730.56 13.22 767.45 26.57 803.47 39.01
  Z"
/>
<path fill="#539fd3" d="
  M 379.98 51.64
  L 373.35 54.66
  Q 348.21 44.98 327.75 41.00
  Q 293.50 34.33 256.62 41.47
  Q 225.91 47.42 197.16 57.46
  C 166.02 49.64 131.29 42.25 98.72 39.31
  C 118.96 30.25 139.78 21.77 161.12 15.87
  C 189.87 7.93 219.31 7.69 248.50 13.26
  C 280.14 19.31 311.09 29.80 341.53 40.17
  Q 353.37 44.20 379.98 51.64
  Z"
/>
<path fill="#52b3dd" d="
  M 995.34 38.27
  Q 1010.82 42.52 1022.76 46.43
  C 1049.31 55.14 1082.56 67.00 1114.35 76.18
  A 1.68 1.52 66.3 0 1 1114.64 76.31
  L 1115.70 76.99
  Q 1110.13 78.14 1106.50 81.34
  Q 1085.07 84.56 1073.00 88.25
  Q 1060.51 92.07 1049.15 95.33
  Q 1039.44 95.86 1030.21 96.53
  Q 1017.77 97.43 1011.26 97.28
  C 969.05 96.33 929.55 78.25 891.08 62.11
  Q 867.66 52.29 843.18 45.62
  C 837.75 44.14 831.32 43.04 825.37 41.62
  Q 841.39 36.23 857.49 32.24
  C 903.88 20.77 949.84 25.31 995.34 38.27
  Z"
/>
<path fill="#52b3dd" d="
  M 536.41 40.26
  Q 565.43 46.22 594.51 52.97
  C 610.66 56.72 629.13 60.74 641.74 62.77
  Q 651.66 64.37 655.25 65.50
  Q 650.24 67.12 645.73 68.49
  C 598.18 83.00 548.26 96.64 498.00 93.22
  C 453.96 90.23 413.86 70.24 373.35 54.66
  L 379.98 51.64
  Q 397.71 43.52 412.99 39.04
  C 452.69 27.41 496.58 32.35 536.41 40.26
  Z"
/>
<path fill="#6abcea" d="
  M 373.35 54.66
  C 413.86 70.24 453.96 90.23 498.00 93.22
  C 548.26 96.64 598.18 83.00 645.73 68.49
  Q 650.24 67.12 655.25 65.50
  Q 674.84 59.97 695.03 54.37
  C 726.48 45.66 759.70 38.70 792.48 39.23
  Q 797.98 39.32 803.47 39.01
  L 825.37 41.62
  C 831.32 43.04 837.75 44.14 843.18 45.62
  Q 867.66 52.29 891.08 62.11
  C 929.55 78.25 969.05 96.33 1011.26 97.28
  Q 1017.77 97.43 1030.21 96.53
  Q 1039.44 95.86 1049.15 95.33
  C 1021.66 106.92 994.70 118.47 966.79 128.03
  C 937.38 138.10 908.19 141.11 877.82 137.02
  C 813.57 128.38 755.89 95.72 691.50 87.36
  C 661.91 83.53 633.18 86.93 604.74 95.45
  C 545.90 113.09 489.79 145.45 426.00 139.16
  C 352.14 131.87 288.14 91.94 214.25 88.77
  C 138.20 85.52 78.50 140.57 4.51 147.52
  Q 2.94 147.67 0.00 147.52
  L 0.00 106.17
  C 31.97 107.21 61.84 103.23 92.00 93.64
  Q 92.41 93.51 110.95 87.30
  Q 154.47 72.72 188.74 60.40
  Q 195.41 58.01 197.16 57.46
  Q 225.91 47.42 256.62 41.47
  Q 293.50 34.33 327.75 41.00
  Q 348.21 44.98 373.35 54.66
  Z"
/>
<path fill="#52b3dd" d="
  M 98.72 39.31
  C 131.29 42.25 166.02 49.64 197.16 57.46
  Q 195.41 58.01 188.74 60.40
  Q 154.47 72.72 110.95 87.30
  Q 92.41 93.51 92.00 93.64
  C 61.84 103.23 31.97 107.21 0.00 106.17
  L 0.00 47.29
  Q 48.64 35.65 98.72 39.31
  Z"
/>
<path fill="#6abcea" d="
  M 1354.39 67.09
  C 1376.89 75.77 1398.21 83.74 1422.48 90.53
  Q 1453.86 99.30 1485.26 98.13
  C 1517.36 96.92 1549.78 87.34 1580.14 77.42
  Q 1598.21 71.51 1616.31 65.45
  C 1617.47 64.80 1619.04 64.77 1620.18 64.40
  C 1657.75 52.18 1698.50 42.91 1737.50 49.04
  Q 1757.31 52.15 1778.99 60.02
  Q 1800.02 67.65 1819.97 76.32
  C 1851.35 90.26 1885.06 104.22 1920.00 106.12
  L 1920.00 147.60
  Q 1870.96 149.71 1824.49 134.05
  Q 1798.96 125.45 1773.45 116.79
  C 1711.69 95.84 1650.62 68.08 1583.53 84.68
  C 1543.18 94.67 1507.29 114.45 1465.75 126.78
  C 1404.51 144.95 1343.87 130.76 1284.26 113.02
  C 1239.47 99.69 1194.58 85.40 1147.75 81.35
  Q 1130.94 79.90 1106.50 81.34
  Q 1110.13 78.14 1115.70 76.99
  Q 1115.25 76.68 1116.24 76.73
  Q 1116.54 76.75 1116.80 76.66
  C 1172.22 57.94 1227.73 36.49 1286.63 47.12
  C 1309.98 51.33 1332.20 58.98 1354.39 67.09
  Z"
/>
<path fill="#52b3dd" d="
  M 1920.00 47.13
  L 1920.00 106.12
  C 1885.06 104.22 1851.35 90.26 1819.97 76.32
  L 1860.12 64.19
  Q 1889.53 54.50 1920.00 47.13
  Z"
/>
<path fill="#52b3dd" d="
  M 1616.31 65.45
  Q 1598.21 71.51 1580.14 77.42
  C 1549.78 87.34 1517.36 96.92 1485.26 98.13
  Q 1453.86 99.30 1422.48 90.53
  C 1398.21 83.74 1376.89 75.77 1354.39 67.09
  C 1368.79 63.40 1381.63 61.10 1394.81 58.02
  Q 1397.49 57.39 1402.29 57.00
  Q 1406.97 56.62 1411.31 55.14
  Q 1434.64 50.85 1458.33 49.06
  C 1460.28 48.92 1462.07 48.46 1463.92 48.03
  Q 1465.70 47.85 1467.01 48.03
  Q 1469.55 48.36 1470.03 48.34
  C 1518.88 46.97 1566.68 54.63 1614.37 64.34
  Q 1615.54 64.58 1616.31 65.45
  Z"
/>
<path fill="#88cfff" d="
  M 1920.00 147.60
  L 1920.00 370.00
  L 0.00 370.00
  L 0.00 147.52
  Q 2.94 147.67 4.51 147.52
  C 78.50 140.57 138.20 85.52 214.25 88.77
  C 288.14 91.94 352.14 131.87 426.00 139.16
  C 489.79 145.45 545.90 113.09 604.74 95.45
  C 633.18 86.93 661.91 83.53 691.50 87.36
  C 755.89 95.72 813.57 128.38 877.82 137.02
  C 908.19 141.11 937.38 138.10 966.79 128.03
  C 994.70 118.47 1021.66 106.92 1049.15 95.33
  Q 1060.51 92.07 1073.00 88.25
  Q 1085.07 84.56 1106.50 81.34
  Q 1130.94 79.90 1147.75 81.35
  C 1194.58 85.40 1239.47 99.69 1284.26 113.02
  C 1343.87 130.76 1404.51 144.95 1465.75 126.78
  C 1507.29 114.45 1543.18 94.67 1583.53 84.68
  C 1650.62 68.08 1711.69 95.84 1773.45 116.79
  Q 1798.96 125.45 1824.49 134.05
  Q 1870.96 149.71 1920.00 147.60
  Z"
/>
</svg>
