<?xml version="1.0" encoding="UTF-8" standalone="no"?>
<!DOCTYPE svg PUBLIC "-//W3C//DTD SVG 1.1//EN" "http://www.w3.org/Graphics/SVG/1.1/DTD/svg11.dtd">
<svg xmlns="http://www.w3.org/2000/svg" version="1.1" viewBox="0.00 0.00 380.00 200.00">
<g stroke-width="2.00" fill="none" stroke-linecap="butt">
<path stroke="#3e8091" vector-effect="non-scaling-stroke" d="
  M 192.00 38.30
  L 192.08 43.22"
/>
<path stroke="#3e8091" vector-effect="non-scaling-stroke" d="
  M 246.55 97.97
  L 252.08 98.00"
/>
<path stroke="#3e8091" vector-effect="non-scaling-stroke" d="
  M 252.16 101.95
  L 246.52 101.91"
/>
<path stroke="#3e8091" vector-effect="non-scaling-stroke" d="
  M 192.25 156.54
  Q 192.61 158.11 192.45 159.71"
/>
<path stroke="#3e8091" vector-effect="non-scaling-stroke" d="
  M 187.77 160.72
  L 187.68 157.27"
/>
<path stroke="#3e8091" vector-effect="non-scaling-stroke" d="
  M 137.41 102.32
  Q 132.80 101.41 128.44 102.01"
/>
<path stroke="#3e8091" vector-effect="non-scaling-stroke" d="
  M 128.38 98.01
  L 133.33 97.97"
/>
<path stroke="#3e8091" vector-effect="non-scaling-stroke" d="
  M 187.96 43.14
  L 187.93 38.76"
/>
</g>
<path fill="#30b2d4" d="
  M 192.00 38.30
  L 192.08 43.22
  L 191.98 47.17
  A 0.51 0.51 0.0 0 0 192.47 47.69
  C 220.10 48.85 240.22 70.15 242.49 97.16
  Q 242.53 97.70 243.05 97.85
  Q 244.31 98.23 246.55 97.97
  L 252.08 98.00
  L 267.89 98.37
  A 0.66 0.66 0.0 0 1 268.54 99.05
  L 268.47 100.94
  A 0.59 0.59 0.0 0 1 267.89 101.52
  L 252.16 101.95
  L 246.52 101.91
  L 243.23 101.88
  A 0.76 0.75 -87.6 0 0 242.47 102.59
  C 240.60 129.54 219.99 150.59 192.73 152.25
  Q 192.19 152.28 192.08 152.80
  Q 191.69 154.66 192.25 156.54
  Q 192.61 158.11 192.45 159.71
  Q 191.26 166.47 191.59 173.51
  Q 191.70 175.70 191.46 176.44
  Q 190.19 180.54 188.48 176.60
  Q 188.24 176.03 188.23 173.75
  C 188.22 169.93 188.86 164.28 187.77 160.72
  L 187.68 157.27
  Q 188.60 154.96 187.99 152.74
  Q 187.85 152.22 187.31 152.20
  Q 173.04 151.56 161.43 143.79
  Q 139.67 129.23 137.41 102.32
  Q 132.80 101.41 128.44 102.01
  Q 120.74 101.68 113.01 101.50
  Q 111.61 101.46 111.69 99.83
  Q 111.77 98.31 113.29 98.28
  L 128.38 98.01
  L 133.33 97.97
  L 136.77 97.97
  A 0.86 0.86 0.0 0 0 137.62 97.16
  C 139.05 71.01 160.69 48.28 187.38 47.85
  A 0.60 0.60 0.0 0 0 187.97 47.25
  L 187.96 43.14
  L 187.93 38.76
  L 188.24 23.09
  A 1.67 1.67 0.0 0 1 190.95 21.81
  Q 191.93 22.59 191.86 24.25
  Q 191.61 30.60 192.00 38.30
  Z
  M 188.54 59.67
  Q 187.62 56.38 188.25 53.02
  A 1.19 1.19 0.0 0 0 187.01 51.61
  C 169.82 52.68 155.19 62.27 146.97 77.12
  C 143.57 83.27 142.16 89.64 141.57 96.66
  A 1.18 1.18 0.0 0 0 142.68 97.94
  L 149.09 98.30
  A 1.36 1.34 -7.0 0 1 150.29 99.23
  C 150.73 100.63 149.87 101.60 148.52 101.68
  Q 145.28 101.86 142.24 101.99
  A 0.73 0.73 0.0 0 0 141.54 102.75
  C 142.28 123.68 156.55 140.54 175.86 146.67
  C 179.20 147.74 182.97 148.06 186.59 148.53
  Q 188.21 148.74 188.24 147.11
  L 188.33 141.57
  A 1.52 1.48 -21.3 0 1 188.82 140.49
  Q 190.55 138.91 191.51 140.69
  Q 191.76 141.15 191.77 141.86
  Q 191.77 144.89 191.75 147.69
  A 0.95 0.95 0.0 0 0 192.78 148.64
  C 214.03 146.85 230.85 133.69 236.87 113.24
  C 237.80 110.10 238.18 106.50 238.58 103.20
  A 1.10 1.09 4.0 0 0 237.51 101.98
  L 230.83 101.85
  A 1.29 1.28 -85.9 0 1 229.59 100.41
  L 229.67 99.83
  Q 229.87 98.23 231.48 98.17
  L 238.08 97.95
  Q 238.62 97.93 238.58 97.39
  C 237.02 72.33 218.00 53.58 193.27 51.50
  Q 191.70 51.37 191.81 52.94
  C 191.96 55.09 192.76 59.34 190.26 60.48
  A 1.25 1.24 70.0 0 1 188.54 59.67
  Z"
/>
<path fill="#4b4d4d" d="
  M 192.00 38.30
  Q 207.03 39.44 216.74 44.50
  Q 244.87 59.17 250.67 90.51
  Q 251.39 94.38 252.08 98.00
  L 246.55 97.97
  Q 245.61 87.00 242.46 78.75
  C 236.85 64.09 224.69 52.43 209.74 46.81
  Q 202.65 44.14 192.08 43.22
  L 192.00 38.30
  Z"
/>
<path fill="#4b4d4d" d="
  M 187.93 38.76
  L 187.96 43.14
  C 168.07 45.11 149.66 54.14 140.16 72.22
  C 137.35 77.57 134.63 85.06 134.03 91.60
  Q 133.74 94.75 133.33 97.97
  L 128.38 98.01
  Q 129.32 82.13 137.26 68.78
  Q 147.92 50.86 166.58 43.12
  Q 176.27 39.10 187.93 38.76
  Z"
/>
<path fill="#30b2d4" d="
  M 188.15 91.60
  Q 188.05 90.24 188.56 88.98
  Q 188.76 88.50 189.23 88.29
  Q 190.61 87.67 191.47 88.63
  C 192.28 89.54 191.91 90.73 192.26 91.95
  A 1.33 1.31 6.6 0 0 192.92 92.77
  Q 196.09 94.49 197.53 97.80
  A 0.77 0.77 0.0 0 0 198.29 98.25
  L 202.21 97.95
  Q 204.02 97.82 204.35 99.60
  L 204.45 100.12
  A 1.38 1.38 0.0 0 1 203.10 101.75
  L 198.62 101.78
  A 1.76 1.75 -80.0 0 0 196.97 102.94
  C 195.91 105.83 194.41 105.85 192.15 107.37
  Q 191.74 107.64 191.25 107.65
  C 181.44 107.93 178.81 96.31 187.64 92.45
  Q 188.20 92.20 188.15 91.60
  Z
  M 193.99 100.00
  A 3.96 3.96 0.0 0 0 190.03 96.04
  A 3.96 3.96 0.0 0 0 186.07 100.00
  A 3.96 3.96 0.0 0 0 190.03 103.96
  A 3.96 3.96 0.0 0 0 193.99 100.00
  Z"
/>
<path fill="#4b4d4d" d="
  M 137.41 102.32
  L 133.83 102.15
  Q 133.32 102.12 133.42 102.62
  C 134.10 106.22 133.99 110.20 134.77 113.40
  C 136.71 121.35 140.10 129.00 145.17 135.46
  Q 148.34 139.49 149.97 141.04
  Q 160.88 151.41 175.01 154.63
  Q 177.68 155.24 186.20 156.69
  Q 186.71 156.77 186.78 157.28
  L 187.02 159.02
  Q 187.15 159.96 187.43 159.06
  Q 187.68 158.25 187.68 157.27
  L 187.77 160.72
  L 187.39 160.39
  Q 187.20 160.22 187.13 160.46
  Q 187.04 160.75 186.74 160.93
  Q 186.54 161.06 186.22 161.04
  C 164.87 160.09 142.38 145.62 134.16 125.81
  Q 129.78 115.24 129.49 111.75
  Q 129.09 106.89 128.44 102.01
  Q 132.80 101.41 137.41 102.32
  Z"
/>
<path fill="#4b4d4d" d="
  M 252.16 101.95
  Q 251.13 105.71 250.47 109.95
  Q 247.39 129.81 232.52 144.01
  C 224.79 151.39 216.27 156.55 206.04 158.92
  C 202.33 159.78 197.62 161.16 193.86 160.89
  Q 193.35 160.86 193.28 160.35
  Q 193.03 158.60 192.45 159.71
  Q 192.61 158.11 192.25 156.54
  L 192.71 157.88
  Q 192.94 158.57 193.09 157.85
  Q 193.14 157.60 193.12 157.31
  A 0.61 0.61 0.0 0 1 193.68 156.67
  C 216.73 154.66 233.90 142.23 242.86 120.87
  Q 246.18 112.97 246.52 101.91
  L 252.16 101.95
  Z"
/>
</svg>
