<?xml version="1.0" encoding="UTF-8" standalone="no"?>
<!DOCTYPE svg PUBLIC "-//W3C//DTD SVG 1.1//EN" "http://www.w3.org/Graphics/SVG/1.1/DTD/svg11.dtd">
<svg xmlns="http://www.w3.org/2000/svg" version="1.1" viewBox="0.00 0.00 649.00 384.00">
<g stroke-width="2.00" fill="none" stroke-linecap="butt">
<path stroke="#7b818d" vector-effect="non-scaling-stroke" d="
  M 438.94 155.74
  Q 437.27 155.02 435.43 155.11
  Q 435.14 155.12 435.13 154.84
  Q 435.12 154.68 435.08 154.54"
/>
<path stroke="#7b818d" vector-effect="non-scaling-stroke" d="
  M 444.02 171.00
  L 440.67 169.97
  A 2.62 2.61 40.7 0 0 438.75 170.11
  Q 436.41 171.24 435.93 172.71"
/>
<path stroke="#5b5e64" vector-effect="non-scaling-stroke" d="
  M 435.16 167.20
  Q 436.53 167.22 436.84 166.28
  Q 437.01 165.79 436.58 165.50
  Q 435.62 164.83 434.73 165.96"
/>
<path stroke="#6c7076" vector-effect="non-scaling-stroke" d="
  M 460.36 178.64
  L 459.21 177.76
  Q 458.78 177.43 458.37 177.79
  Q 457.95 178.18 457.97 178.83
  A 0.51 0.51 0.0 0 0 458.71 179.27
  Q 459.92 178.67 460.19 179.79"
/>
<path stroke="#a5afc6" vector-effect="non-scaling-stroke" d="
  M 462.45 180.03
  C 461.80 182.81 466.98 183.70 468.75 183.66
  C 473.65 183.54 480.40 182.70 485.05 184.01"
/>
<path stroke="#6c7076" vector-effect="non-scaling-stroke" d="
  M 485.05 184.01
  L 459.05 183.83"
/>
<path stroke="#5a5d62" vector-effect="non-scaling-stroke" d="
  M 459.05 183.83
  L 431.91 183.85
  A 0.86 0.85 -84.7 0 0 431.07 184.55
  Q 430.49 187.92 431.81 187.75"
/>
<path stroke="#737881" vector-effect="non-scaling-stroke" d="
  M 431.81 187.75
  L 433.23 188.23"
/>
<path stroke="#8c929f" vector-effect="non-scaling-stroke" d="
  M 433.23 188.23
  L 426.97 187.79
  Q 426.41 187.75 426.50 187.20
  Q 426.58 186.72 426.83 186.32
  A 2.55 1.40 -63.4 0 1 428.75 184.99
  L 429.26 185.06
  Q 429.68 185.12 429.76 184.70
  Q 429.83 184.27 429.47 184.24
  A 0.50 0.50 0.0 0 1 429.00 183.69
  Q 429.09 182.81 428.73 182.32"
/>
<path stroke="#a5afc6" vector-effect="non-scaling-stroke" d="
  M 430.97 182.30
  Q 430.72 183.23 431.65 183.37
  Q 433.78 183.70 436.34 183.53
  A 1.87 1.86 7.5 0 0 437.99 182.27
  L 438.51 180.71
  Q 438.89 179.59 437.72 179.74
  L 432.39 180.45"
/>
<path stroke="#737881" vector-effect="non-scaling-stroke" d="
  M 433.23 188.23
  Q 433.51 188.52 433.62 188.21"
/>
<path stroke="#7b818d" vector-effect="non-scaling-stroke" d="
  M 433.62 188.21
  Q 435.06 189.00 436.26 188.97
  Q 440.40 188.87 447.75 188.06"
/>
<path stroke="#5a5d62" vector-effect="non-scaling-stroke" d="
  M 447.75 188.06
  L 456.29 187.83"
/>
<path stroke="#6c7076" vector-effect="non-scaling-stroke" d="
  M 456.29 187.83
  Q 457.30 188.28 458.31 188.10
  A 0.81 0.79 1.5 0 0 458.96 187.50
  L 459.15 186.72
  A 0.76 0.75 -56.5 0 1 460.49 186.44
  Q 460.75 186.79 460.81 187.26
  Q 460.86 187.75 461.36 187.75
  L 481.98 187.75"
/>
<path stroke="#a5afc6" vector-effect="non-scaling-stroke" d="
  M 481.98 187.75
  L 462.76 188.24
  Q 462.27 188.25 462.14 188.74
  Q 462.04 189.17 462.19 189.53
  C 462.48 190.27 463.49 190.54 463.97 191.51
  A 0.99 0.97 -9.1 0 0 464.72 192.04
  Q 465.46 192.15 465.44 192.64"
/>
<path stroke="#6c7076" vector-effect="non-scaling-stroke" d="
  M 465.44 192.64
  Q 457.09 192.50 448.54 192.54
  Q 447.42 192.54 446.63 193.07
  Q 444.58 194.45 446.08 195.30"
/>
<path stroke="#737881" vector-effect="non-scaling-stroke" d="
  M 446.08 195.30
  L 447.65 196.75"
/>
<path stroke="#7b818d" vector-effect="non-scaling-stroke" d="
  M 447.65 196.75
  Q 457.19 201.24 467.34 196.59"
/>
<path stroke="#737881" vector-effect="non-scaling-stroke" d="
  M 467.34 196.59
  L 473.52 196.10"
/>
<path stroke="#6c7076" vector-effect="non-scaling-stroke" d="
  M 473.52 196.10
  Q 476.44 196.72 475.29 195.56"
/>
<path stroke="#a5afc6" vector-effect="non-scaling-stroke" d="
  M 475.29 195.56
  Q 485.56 203.98 496.14 211.36
  Q 496.29 211.46 496.64 211.19"
/>
<path stroke="#7b818d" vector-effect="non-scaling-stroke" d="
  M 497.31 212.33
  C 495.85 211.92 494.25 212.35 493.22 212.34
  Q 447.24 211.84 401.25 212.39
  Q 398.65 212.42 391.76 212.19
  C 385.71 211.99 379.68 212.67 373.77 212.20
  C 368.69 211.80 364.00 212.51 360.05 211.20
  Q 359.53 211.03 359.74 210.53
  L 360.34 209.12"
/>
<path stroke="#5a5d62" vector-effect="non-scaling-stroke" d="
  M 360.34 209.12
  L 367.81 207.45
  A 0.47 0.47 0.0 0 0 368.17 206.90
  L 368.11 206.62
  A 0.77 0.76 80.7 0 0 367.27 206.01
  Q 362.92 206.57 358.45 207.13
  C 353.83 207.72 349.27 207.48 344.61 207.46
  A 0.73 0.72 -1.8 0 0 343.88 208.23
  L 343.90 208.67
  A 0.85 0.84 -2.5 0 0 344.77 209.46
  Q 346.55 209.41 347.51 209.77"
/>
<path stroke="#7b818d" vector-effect="non-scaling-stroke" d="
  M 347.51 209.77
  Q 348.05 210.76 347.60 211.78
  Q 347.38 212.29 346.83 212.20
  Q 340.75 211.19 338.61 214.53"
/>
<path stroke="#3a3a39" vector-effect="non-scaling-stroke" d="
  M 484.41 184.99
  Q 482.63 184.89 480.82 185.51
  Q 480.33 185.67 479.85 185.51
  C 478.34 185.01 476.67 185.48 475.26 185.36
  Q 474.04 185.26 472.82 185.40
  C 471.37 185.56 469.99 185.02 468.43 185.70
  Q 467.94 185.92 468.18 186.40
  Q 468.63 187.25 469.75 187.29
  Q 476.49 187.52 483.26 187.55"
/>
<path stroke="#6c7076" vector-effect="non-scaling-stroke" d="
  M 483.26 187.55
  Q 483.22 187.96 482.96 187.83"
/>
<path stroke="#858c9d" vector-effect="non-scaling-stroke" d="
  M 482.96 187.83
  Q 482.48 187.67 481.98 187.75"
/>
<path stroke="#535558" vector-effect="non-scaling-stroke" d="
  M 431.72 185.73
  Q 432.47 187.93 434.00 187.91"
/>
<path stroke="#62666f" vector-effect="non-scaling-stroke" d="
  M 437.72 188.12
  L 433.62 188.21"
/>
<path stroke="#3a3a39" vector-effect="non-scaling-stroke" d="
  M 459.05 183.83
  Q 464.39 183.79 466.75 184.76
  Q 468.62 185.53 467.39 187.27
  Q 467.15 187.62 466.72 187.62
  L 462.29 187.62
  Q 461.79 187.62 461.72 187.13
  Q 461.69 186.94 461.75 186.79
  Q 462.00 186.24 461.48 185.93
  Q 459.91 184.99 458.19 185.67
  Q 457.64 185.89 457.94 186.40
  Q 458.13 186.71 458.14 187.09
  Q 458.17 187.64 457.64 187.80
  Q 457.02 187.98 456.29 187.83"
/>
<path stroke="#494b50" vector-effect="non-scaling-stroke" d="
  M 447.75 188.06
  L 437.72 188.12"
/>
<path stroke="#414243" vector-effect="non-scaling-stroke" d="
  M 437.72 188.12
  L 434.00 187.91"
/>
<path stroke="#3a3a39" vector-effect="non-scaling-stroke" d="
  M 434.00 187.91
  L 436.15 187.68
  Q 436.80 187.61 436.19 187.39
  L 431.72 185.73"
/>
<path stroke="#414243" vector-effect="non-scaling-stroke" d="
  M 431.72 185.73
  Q 430.19 185.61 431.81 187.75"
/>
<path stroke="#62666f" vector-effect="non-scaling-stroke" d="
  M 467.34 196.59
  Q 460.97 197.98 454.25 197.94
  Q 450.83 197.91 447.65 196.75"
/>
<path stroke="#494b50" vector-effect="non-scaling-stroke" d="
  M 360.34 209.12
  Q 353.48 211.20 347.51 209.77"
/>
<path stroke="#5b5e64" vector-effect="non-scaling-stroke" d="
  M 519.14 212.50
  Q 527.71 214.23 535.95 214.34"
/>
<path stroke="#5b5e64" vector-effect="non-scaling-stroke" d="
  M 585.93 216.89
  Q 548.35 219.88 536.24 222.10
  Q 523.15 224.49 510.06 226.96
  C 505.89 227.74 501.00 229.08 496.41 229.93
  Q 490.49 231.03 486.18 232.18
  Q 467.90 237.07 449.27 239.58"
/>
<path stroke="#62666f" vector-effect="non-scaling-stroke" d="
  M 449.27 239.58
  C 431.21 241.82 417.76 242.03 401.78 242.25
  A 0.54 0.54 0.0 0 1 401.23 241.70
  L 401.34 236.03
  A 1.56 1.55 0.5 0 0 399.78 234.45
  L 379.25 234.48
  A 1.02 1.02 0.0 0 0 378.23 235.51
  L 378.26 241.62
  A 0.63 0.62 -0.4 0 1 377.63 242.25
  L 241.00 242.12
  A 1.20 1.02 79.0 0 1 240.00 241.32
  Q 239.97 241.23 240.21 240.82"
/>
<path stroke="#494b50" vector-effect="non-scaling-stroke" d="
  M 240.21 240.82
  Q 241.32 240.37 241.25 239.12
  Q 241.21 238.59 240.69 238.63
  L 235.96 238.99
  A 0.54 0.54 0.0 0 1 235.48 238.14
  C 238.18 234.29 239.96 232.16 237.88 227.27
  Q 237.49 226.38 238.28 226.95
  C 240.72 228.71 240.27 233.19 240.11 236.21
  A 0.54 0.54 0.0 0 0 240.52 236.77
  L 240.91 236.87
  Q 241.22 236.95 241.23 236.63
  Q 241.28 233.05 241.35 229.41
  C 241.42 225.72 240.64 222.38 236.00 223.71"
/>
<path stroke="#5b5e64" vector-effect="non-scaling-stroke" d="
  M 236.00 223.71
  Q 234.19 223.01 234.16 222.47"
/>
<path stroke="#858c9d" vector-effect="non-scaling-stroke" d="
  M 475.29 195.56
  Q 471.93 193.24 465.44 192.64"
/>
<path stroke="#535558" vector-effect="non-scaling-stroke" d="
  M 473.52 196.10
  C 469.33 196.03 465.72 195.87 461.19 196.28
  Q 453.36 197.00 446.08 195.30"
/>
<path stroke="#a5afc6" vector-effect="non-scaling-stroke" d="
  M 484.02 188.11
  Q 483.28 188.18 482.96 187.83"
/>
<path stroke="#5a5d62" vector-effect="non-scaling-stroke" d="
  M 484.16 186.22
  L 483.26 187.55"
/>
<path stroke="#3a3a39" vector-effect="non-scaling-stroke" d="
  M 548.97 262.45
  C 547.29 262.61 545.65 262.98 544.00 262.98
  C 517.34 263.06 490.66 262.68 464.01 262.95
  Q 436.26 263.22 408.50 262.97"
/>
<path stroke="#535558" vector-effect="non-scaling-stroke" d="
  M 408.50 262.97
  L 412.45 262.79
  A 0.15 0.15 0.0 0 0 412.51 262.51
  Q 412.37 262.45 412.23 262.39
  Q 411.96 262.27 412.06 261.99
  Q 413.39 258.01 417.39 256.59
  A 1.32 1.29 2.7 0 0 418.12 255.94
  Q 418.43 255.32 419.02 255.34
  Q 419.56 255.35 420.02 255.05
  Q 422.38 253.50 424.65 251.86
  C 425.49 251.25 426.40 251.14 427.28 250.33
  Q 428.38 249.31 428.99 249.01
  Q 434.23 246.41 439.05 243.07
  Q 439.13 243.02 439.12 242.92
  Q 439.12 242.88 439.12 242.84
  Q 439.10 242.63 439.30 242.68
  Q 439.60 242.74 439.81 242.95
  Q 440.12 243.25 440.50 243.06
  L 441.64 242.49
  Q 441.86 242.38 441.68 242.20
  L 441.48 242.00
  Q 441.10 241.62 441.64 241.59
  Q 445.64 241.34 449.27 239.58"
/>
<path stroke="#414243" vector-effect="non-scaling-stroke" d="
  M 408.50 262.97
  L 132.21 262.98"
/>
<path stroke="#535558" vector-effect="non-scaling-stroke" d="
  M 132.21 262.98
  L 122.76 262.73
  Q 122.27 262.72 121.91 262.40
  Q 121.44 262.00 121.00 261.98
  Q 117.37 261.78 113.75 261.49
  Q 112.82 261.41 112.08 260.81
  Q 111.72 260.52 111.26 260.47
  L 89.75 257.97
  Q 89.45 257.93 89.35 257.64
  C 89.34 257.62 73.32 255.49 71.70 255.22
  Q 71.20 255.14 70.80 254.83
  L 68.64 253.11"
/>
<path stroke="#414243" vector-effect="non-scaling-stroke" d="
  M 240.21 240.82
  L 235.70 240.20
  Q 235.19 240.12 234.93 240.58
  L 234.39 241.54
  Q 234.10 242.06 233.51 242.07
  Q 204.69 242.67 182.13 242.14
  Q 181.51 242.12 181.16 241.58
  Q 180.91 241.18 180.44 241.17
  L 178.33 241.09"
/>
<path stroke="#7b818d" vector-effect="non-scaling-stroke" d="
  M 329.45 218.92
  Q 327.56 218.62 325.50 218.82
  Q 323.52 219.01 323.24 217.22"
/>
<path stroke="#737881" vector-effect="non-scaling-stroke" d="
  M 322.60 209.86
  L 323.28 208.62"
/>
<path stroke="#3a3a39" vector-effect="non-scaling-stroke" d="
  M 236.00 223.71
  L 179.35 223.57"
/>
<path stroke="#3a3a39" vector-effect="non-scaling-stroke" d="
  M 548.81 264.29
  Q 548.90 264.53 548.88 264.71
  Q 548.83 265.22 548.34 265.06
  Q 547.44 264.77 546.50 264.88
  Q 546.09 264.93 545.79 265.21
  Q 545.13 265.85 544.18 265.83
  A 0.22 0.22 0.0 0 1 544.14 265.39
  Q 544.58 265.31 544.69 264.92
  A 0.31 0.31 0.0 0 0 544.23 264.57
  Q 540.93 266.55 537.26 267.77
  Q 537.09 267.82 537.01 267.99
  Q 536.95 268.10 536.90 268.21
  A 0.28 0.28 0.0 0 0 537.22 268.60
  Q 538.70 268.21 540.26 268.40
  Q 540.79 268.47 541.27 268.73
  C 545.11 270.83 554.41 268.88 558.51 267.60
  Q 561.86 266.56 564.97 267.91
  Q 565.44 268.11 565.79 267.75
  L 567.21 266.28"
/>
<path stroke="#3a3a39" vector-effect="non-scaling-stroke" d="
  M 241.97 281.71
  Q 238.53 279.46 236.00 279.25
  C 208.51 276.97 181.19 273.76 153.79 270.62
  Q 152.74 270.50 153.64 271.05
  Q 154.90 271.83 156.37 271.63
  Q 156.88 271.56 157.37 271.69
  Q 159.95 272.38 167.25 273.38
  Q 176.75 274.68 186.28 275.77
  Q 189.13 276.09 191.95 276.60
  C 199.27 277.90 206.85 278.14 214.25 279.16
  Q 219.21 279.85 230.49 279.95
  Q 232.46 279.97 232.54 281.86"
/>
<path stroke="#3a3a39" vector-effect="non-scaling-stroke" d="
  M 110.85 268.44
  Q 111.47 266.90 111.12 265.78
  A 1.00 0.98 -3.7 0 0 110.33 265.10
  L 107.08 264.59
  A 1.00 0.99 -81.5 0 0 105.94 265.44
  Q 105.76 266.77 106.56 268.06"
/>
<path stroke="#414243" vector-effect="non-scaling-stroke" d="
  M 176.23 241.25
  Q 175.00 241.83 174.13 240.85
  Q 173.80 240.48 173.30 240.43
  L 168.94 240.04
  Q 168.35 239.99 168.21 240.56
  Q 168.01 241.33 167.46 241.90
  Q 167.09 242.29 166.55 242.29
  L 115.73 242.32
  A 1.54 1.53 -86.7 0 1 114.21 240.60
  Q 114.85 235.05 114.25 229.51
  Q 113.49 222.54 112.73 229.55
  Q 112.28 233.67 113.34 240.96
  Q 113.45 241.70 111.06 242.03"
/>
<path stroke="#3a3a39" vector-effect="non-scaling-stroke" d="
  M 132.21 262.98
  Q 113.07 262.45 97.50 262.87
  Q 96.63 262.90 95.59 263.33
  Q 95.12 263.53 94.87 263.98
  Q 93.35 266.72 90.31 264.44"
/>
<path stroke="#5b5e64" vector-effect="non-scaling-stroke" d="
  M 179.54 222.48
  Q 179.70 222.90 179.35 223.57"
/>
<path stroke="#494b50" vector-effect="non-scaling-stroke" d="
  M 179.35 223.57
  C 178.77 224.27 178.26 224.92 178.23 225.91
  Q 177.99 233.47 178.33 241.09"
/>
<path stroke="#62666f" vector-effect="non-scaling-stroke" d="
  M 178.33 241.09
  Q 177.29 242.28 176.23 241.25"
/>
<path stroke="#494b50" vector-effect="non-scaling-stroke" d="
  M 176.23 241.25
  Q 176.68 233.83 176.09 226.51
  C 175.80 222.76 172.69 223.24 170.00 223.30
  Q 155.75 223.64 141.50 223.38
  Q 126.90 223.12 112.83 223.47
  A 2.31 2.30 0.9 0 0 110.58 225.64
  Q 110.11 233.97 111.06 242.03"
/>
<path stroke="#62666f" vector-effect="non-scaling-stroke" d="
  M 111.06 242.03
  Q 90.35 242.14 68.50 242.26
  Q 65.84 242.27 62.75 241.27"
/>
<path stroke="#6c7076" vector-effect="non-scaling-stroke" d="
  M 527.32 211.08
  L 519.50 210.80"
/>
<path stroke="#414243" vector-effect="non-scaling-stroke" d="
  M 323.29 204.41
  Q 322.22 205.17 322.71 207.22
  Q 322.83 207.74 322.53 208.17
  Q 322.05 208.87 322.22 209.46"
/>
<path stroke="#a5afc6" vector-effect="non-scaling-stroke" d="
  M 398.5652 186.7580
  A 1.29 0.89 132.7 0 0 400.0941 186.4136
  A 1.29 0.89 132.7 0 0 400.3148 184.8620
  A 1.29 0.89 132.7 0 0 398.7859 185.2064
  A 1.29 0.89 132.7 0 0 398.5652 186.7580"
/>
<path stroke="#6c7076" vector-effect="non-scaling-stroke" d="
  M 403.8088 187.5790
  A 1.59 0.86 -2.2 0 0 402.1870 186.7806
  A 1.59 0.86 -2.2 0 0 400.6312 187.7010
  A 1.59 0.86 -2.2 0 0 402.2530 188.4994
  A 1.59 0.86 -2.2 0 0 403.8088 187.5790"
/>
<path stroke="#6c7076" vector-effect="non-scaling-stroke" d="
  M 353.07 196.24
  Q 353.20 197.31 354.20 197.53
  A 0.46 0.46 0.0 0 0 354.75 197.10
  Q 354.80 196.13 353.76 195.86
  Q 353.35 195.76 353.24 195.90
  A 0.52 0.17 -45.6 0 0 353.07 196.24"
/>
<path stroke="#6c7076" vector-effect="non-scaling-stroke" d="
  M 352.50 199.85
  A 0.33 0.32 27.6 0 0 352.35 199.38
  Q 351.66 199.09 350.94 199.24
  A 0.69 0.69 0.0 0 0 350.41 199.84
  L 349.97 204.42
  Q 349.95 204.63 350.16 204.63
  L 350.78 204.63
  Q 350.93 204.63 350.95 204.47
  Q 351.20 201.98 352.50 199.85"
/>
<path stroke="#5b5e64" vector-effect="non-scaling-stroke" d="
  M 257.3875 224.2049
  A 0.80 0.80 0.0 0 0 256.5931 223.3994
  L 251.0532 223.3607
  A 0.80 0.80 0.0 0 0 250.2476 224.1551
  L 250.2325 226.3151
  A 0.80 0.80 0.0 0 0 251.0269 227.1206
  L 256.5668 227.1593
  A 0.80 0.80 0.0 0 0 257.3724 226.3649
  L 257.3875 224.2049"
/>
<path stroke="#5b5e64" vector-effect="non-scaling-stroke" d="
  M 273.62 224.37
  L 273.26 224.01
  A 1.33 1.31 70.3 0 0 272.47 223.63
  Q 269.42 223.29 266.35 223.56
  Q 266.24 223.57 266.16 223.66
  Q 266.08 223.75 265.99 223.85
  Q 265.75 224.13 265.44 223.93
  C 264.12 223.04 261.10 223.34 258.89 223.46
  Q 257.87 223.51 257.99 224.53
  L 258.19 226.09
  Q 258.32 227.10 259.35 227.09
  L 279.91 226.83
  Q 281.02 226.82 281.19 225.72
  L 281.37 224.48
  Q 281.55 223.22 280.29 223.39
  Q 278.29 223.65 275.25 223.61
  Q 274.62 223.60 274.33 224.24
  Q 274.07 224.83 273.62 224.37"
/>
<path stroke="#5b5e64" vector-effect="non-scaling-stroke" d="
  M 550.31 240.22
  A 1.18 1.18 0.0 0 0 549.10 240.47
  L 547.08 242.36
  A 1.18 1.18 0.0 0 0 547.87 244.40
  L 553.56 244.48
  A 1.18 1.18 0.0 0 0 554.52 242.59
  L 553.84 241.69
  A 1.18 1.18 0.0 0 0 553.30 241.29
  L 550.31 240.22"
/>
<path stroke="#494b50" vector-effect="non-scaling-stroke" d="
  M 58.77 223.59
  A 0.65 0.65 0.0 0 0 58.13 224.35
  L 58.53 226.74
  A 0.65 0.65 0.0 0 0 59.16 227.28
  L 64.48 227.35
  A 0.65 0.65 0.0 0 0 65.14 226.79
  L 65.47 224.35
  A 0.65 0.65 0.0 0 0 64.83 223.62
  L 58.77 223.59"
/>
<path stroke="#494b50" vector-effect="non-scaling-stroke" d="
  M 66.87 223.53
  A 0.47 0.47 0.0 0 0 66.40 224.05
  L 66.67 226.86
  A 0.47 0.47 0.0 0 0 67.13 227.29
  L 72.65 227.39
  A 0.47 0.47 0.0 0 0 73.13 226.99
  L 73.54 224.09
  A 0.47 0.47 0.0 0 0 73.08 223.56
  L 66.87 223.53"
/>
<path stroke="#494b50" vector-effect="non-scaling-stroke" d="
  M 80.67 227.37
  A 0.48 0.48 0.0 0 0 81.14 226.96
  L 81.59 224.07
  A 0.48 0.48 0.0 0 0 81.11 223.52
  L 74.88 223.51
  A 0.48 0.48 0.0 0 0 74.40 224.03
  L 74.64 226.91
  A 0.48 0.48 0.0 0 0 75.12 227.35
  L 80.67 227.37"
/>
<path stroke="#494b50" vector-effect="non-scaling-stroke" d="
  M 89.42 224.95
  Q 90.81 222.37 90.53 225.29
  Q 90.46 226.03 90.80 226.84
  Q 91.00 227.32 91.52 227.33
  L 96.31 227.39
  Q 97.08 227.40 97.20 226.65
  L 97.58 224.23
  A 0.61 0.61 0.0 0 0 96.98 223.52
  L 82.76 223.53
  Q 82.30 223.53 82.35 223.98
  L 82.68 226.80
  A 0.62 0.61 86.9 0 0 83.29 227.35
  L 88.53 227.38
  A 0.70 0.70 0.0 0 0 89.24 226.68
  Q 89.23 225.30 89.42 224.95"
/>
<path stroke="#494b50" vector-effect="non-scaling-stroke" d="
  M 104.71 227.46
  A 0.62 0.62 0.0 0 0 105.34 226.89
  L 105.56 224.19
  A 0.62 0.62 0.0 0 0 104.95 223.52
  L 99.01 223.52
  A 0.62 0.62 0.0 0 0 98.39 224.21
  L 98.68 226.84
  A 0.62 0.62 0.0 0 0 99.29 227.40
  L 104.71 227.46"
/>
<path stroke="#494b50" vector-effect="non-scaling-stroke" d="
  M 171.53 228.01
  C 173.26 231.93 171.44 234.70 169.10 237.70
  Q 168.14 238.92 169.69 238.93
  L 173.59 238.97
  A 0.62 0.61 -0.0 0 0 174.21 238.36
  C 174.23 235.90 174.65 229.14 172.60 227.39
  Q 170.43 225.55 171.53 228.01"
/>
<path stroke="#3a3a39" vector-effect="non-scaling-stroke" d="
  M 148.7547 228.8318
  A 1.44 1.14 45.2 0 0 148.5489 227.0067
  A 1.44 1.14 45.2 0 0 146.7253 226.7882
  A 1.44 1.14 45.2 0 0 146.9311 228.6133
  A 1.44 1.14 45.2 0 0 148.7547 228.8318"
/>
<path stroke="#414243" vector-effect="non-scaling-stroke" d="
  M 140.95 227.34
  L 140.39 228.98
  Q 140.17 229.62 140.84 229.71
  Q 142.21 229.90 143.32 229.15
  Q 143.72 228.89 143.69 228.41
  Q 143.62 226.78 141.74 226.77
  A 0.83 0.83 0.0 0 0 140.95 227.34"
/>
<path stroke="#5a5d62" vector-effect="non-scaling-stroke" d="
  M 121.87 238.39
  Q 121.27 240.58 122.61 240.63
  C 135.78 241.15 149.09 239.97 162.37 239.70
  Q 164.23 239.66 165.84 237.61"
/>
<path stroke="#494b50" vector-effect="non-scaling-stroke" d="
  M 165.84 237.61
  L 168.74 231.97
  Q 168.84 231.77 168.62 231.69
  L 168.61 231.68
  Q 168.41 231.61 168.33 231.82
  C 166.83 236.01 161.18 234.86 157.51 234.95
  A 0.76 0.75 84.3 0 1 156.75 234.32
  L 156.57 233.23"
/>
<path stroke="#5a5d62" vector-effect="non-scaling-stroke" d="
  M 156.57 233.23
  Q 156.69 231.51 155.75 231.56
  Q 140.80 232.32 135.50 232.43
  Q 134.98 232.44 134.86 232.94
  Q 134.59 233.96 135.10 235.31"
/>
<path stroke="#494b50" vector-effect="non-scaling-stroke" d="
  M 135.10 235.31
  Q 134.37 235.93 133.75 235.78
  Q 131.62 235.29 129.50 235.74
  Q 128.55 235.94 128.52 234.96
  L 128.37 229.58
  Q 128.34 228.56 127.33 228.53
  L 123.38 228.39
  Q 122.11 228.35 122.07 229.62
  L 121.89 234.90
  Q 121.87 235.43 121.34 235.40
  L 118.43 235.21
  A 0.81 0.81 0.0 0 0 117.61 235.76
  Q 117.42 236.35 117.94 236.83
  Q 118.88 237.71 120.75 237.36
  Q 121.83 237.16 121.87 238.39"
/>
<path stroke="#7b818d" vector-effect="non-scaling-stroke" d="
  M 135.10 235.31
  L 156.01 234.64
  Q 156.47 234.62 156.50 234.17
  L 156.57 233.23"
/>
<path stroke="#7b818d" vector-effect="non-scaling-stroke" d="
  M 165.84 237.61
  L 165.61 236.20
  Q 165.55 235.87 165.22 235.87
  Q 164.02 235.84 163.01 236.50
  A 1.35 1.34 -55.1 0 1 162.02 236.68
  Q 159.71 236.22 157.74 237.34
  A 1.72 1.65 28.7 0 1 156.96 237.55
  L 121.87 238.39"
/>
<path stroke="#3a3a39" vector-effect="non-scaling-stroke" d="
  M 215.3381 228.7815
  A 1.31 1.10 41.7 0 0 215.0918 227.0887
  A 1.31 1.10 41.7 0 0 213.3819 227.0385
  A 1.31 1.10 41.7 0 0 213.6282 228.7313
  A 1.31 1.10 41.7 0 0 215.3381 228.7815"
/>
<path stroke="#414243" vector-effect="non-scaling-stroke" d="
  M 208.05 227.35
  Q 207.28 228.06 207.06 229.01
  Q 206.94 229.49 207.42 229.58
  Q 209.32 229.96 209.86 228.83
  Q 210.55 227.39 209.12 227.07
  A 1.19 1.19 0.0 0 0 208.05 227.35"
/>
<path stroke="#494b50" vector-effect="non-scaling-stroke" d="
  M 181.0113 227.8244
  A 0.46 0.46 0.0 0 0 180.5553 227.3604
  L 180.5153 227.3601
  A 0.46 0.46 0.0 0 0 180.0513 227.8160
  L 179.9487 239.5756
  A 0.46 0.46 0.0 0 0 180.4047 240.0396
  L 180.4447 240.0399
  A 0.46 0.46 0.0 0 0 180.9087 239.5840
  L 181.0113 227.8244"
/>
<path stroke="#5a5d62" vector-effect="non-scaling-stroke" d="
  M 188.44 238.46
  Q 188.13 239.48 188.59 240.13
  A 0.96 0.95 -16.3 0 0 189.33 240.53
  C 200.70 241.02 211.89 240.23 223.23 240.06
  Q 228.30 239.99 232.17 238.35"
/>
<path stroke="#494b50" vector-effect="non-scaling-stroke" d="
  M 232.17 238.35
  L 235.29 231.69
  Q 235.33 231.60 235.27 231.52
  Q 235.24 231.48 235.20 231.45
  A 0.14 0.12 -62.5 0 0 235.00 231.53
  Q 234.26 234.14 232.13 234.66
  Q 229.54 235.31 223.11 234.79"
/>
<path stroke="#5a5d62" vector-effect="non-scaling-stroke" d="
  M 223.11 234.79
  Q 223.77 231.40 221.62 231.58
  Q 211.97 232.38 202.29 232.28
  A 0.83 0.82 -76.6 0 0 201.55 232.74
  Q 201.17 233.48 201.44 234.78"
/>
<path stroke="#494b50" vector-effect="non-scaling-stroke" d="
  M 201.44 234.78
  Q 201.46 236.02 200.76 235.90
  Q 198.51 235.50 196.18 235.83
  A 0.90 0.90 0.0 0 1 195.16 234.97
  L 194.90 229.46
  A 0.95 0.95 0.0 0 0 193.96 228.55
  L 189.66 228.49
  A 1.12 1.11 -89.0 0 0 188.53 229.59
  L 188.46 234.89
  A 0.75 0.74 5.0 0 1 187.59 235.61
  L 185.13 235.21
  Q 184.65 235.13 184.42 235.56
  Q 184.10 236.14 184.62 236.65
  Q 185.68 237.67 187.51 237.35
  Q 188.29 237.22 188.44 238.46"
/>
<path stroke="#7b818d" vector-effect="non-scaling-stroke" d="
  M 201.44 234.78
  Q 201.56 235.44 201.75 235.44
  Q 212.61 235.54 223.11 234.79"
/>
<path stroke="#7b818d" vector-effect="non-scaling-stroke" d="
  M 232.17 238.35
  Q 232.30 237.26 232.12 236.75
  Q 231.95 236.28 231.46 236.36
  C 230.55 236.53 229.77 236.92 228.85 236.87
  C 225.99 236.68 223.42 237.60 220.71 237.59
  C 217.89 237.57 215.01 238.11 212.42 238.11
  Q 200.44 238.09 188.44 238.46"
/>
<path stroke="#62666f" vector-effect="non-scaling-stroke" d="
  M 399.8579 236.8554
  A 0.84 0.84 0.0 0 0 399.0208 236.0125
  L 380.4209 235.9476
  A 0.84 0.84 0.0 0 0 379.5780 236.7846
  L 379.5621 241.3446
  A 0.84 0.84 0.0 0 0 380.3992 242.1875
  L 398.9991 242.2524
  A 0.84 0.84 0.0 0 0 399.8420 241.4154
  L 399.8579 236.8554"
/>
</g>
<path fill="#8c929f" d="
  M 438.94 155.74
  Q 437.27 155.02 435.43 155.11
  Q 435.14 155.12 435.13 154.84
  Q 435.12 154.68 435.08 154.54
  L 435.26 150.25
  Q 435.27 149.87 434.91 149.77
  L 434.44 149.63
  Q 432.98 149.21 434.37 148.62
  Q 435.42 148.18 436.80 148.59
  Q 437.29 148.74 437.30 149.25
  Q 437.31 149.90 436.77 150.26
  A 0.78 0.77 61.1 0 0 436.50 151.22
  Q 436.98 152.29 436.67 153.49
  A 0.86 0.86 0.0 0 0 437.63 154.55
  Q 440.82 154.08 443.79 154.12
  Q 444.21 154.13 444.40 154.32
  Q 444.51 154.45 444.58 154.61
  Q 444.72 154.98 444.35 155.09
  Q 441.82 155.87 438.94 155.74
  Z"
/>
<path fill="#6a6f7b" d="
  M 435.08 154.54
  Q 435.12 154.68 435.13 154.84
  Q 435.14 155.12 435.43 155.11
  Q 437.27 155.02 438.94 155.74
  Q 438.25 156.19 438.54 156.96
  Q 438.66 157.29 439.26 157.80
  Q 439.96 158.40 439.97 159.08
  Q 439.97 160.34 441.09 160.92
  Q 442.31 161.56 443.01 160.70
  Q 443.44 160.18 442.96 159.71
  L 442.19 158.95
  Q 441.68 158.45 442.40 158.44
  L 447.99 158.36
  Q 448.47 158.36 448.50 158.83
  Q 448.52 159.03 448.43 159.21
  A 0.35 0.34 -66.4 0 1 448.01 159.38
  Q 445.69 158.58 444.98 160.70
  Q 444.80 161.21 444.30 161.41
  L 441.53 162.48
  A 0.72 0.71 68.7 0 0 441.13 163.40
  L 444.02 171.00
  L 440.67 169.97
  A 2.62 2.61 40.7 0 0 438.75 170.11
  Q 436.41 171.24 435.93 172.71
  L 435.16 167.20
  Q 436.53 167.22 436.84 166.28
  Q 437.01 165.79 436.58 165.50
  Q 435.62 164.83 434.73 165.96
  Q 433.63 165.41 432.22 165.37
  A 0.98 0.98 0.0 0 1 431.40 164.87
  Q 430.67 163.52 429.22 163.13
  Q 428.17 162.84 429.25 162.71
  Q 430.77 162.52 432.30 162.76
  Q 432.93 162.86 432.63 163.43
  L 432.34 163.95
  Q 432.11 164.38 432.59 164.48
  L 433.66 164.71
  Q 434.47 164.89 434.36 164.07
  L 433.35 156.43
  Q 433.27 155.85 432.69 155.82
  L 427.04 155.57
  Q 426.53 155.55 426.52 155.04
  L 426.50 154.39
  Q 426.49 153.77 427.11 153.84
  L 434.55 154.67
  Q 434.69 154.68 434.83 154.63
  L 435.08 154.54
  Z"
/>
<path fill="#4c4d4d" d="
  M 435.16 167.20
  L 434.73 165.96
  Q 435.62 164.83 436.58 165.50
  Q 437.01 165.79 436.84 166.28
  Q 436.53 167.22 435.16 167.20
  Z"
/>
<path fill="#8c929f" d="
  M 460.36 178.64
  L 459.21 177.76
  Q 458.78 177.43 458.37 177.79
  Q 457.95 178.18 457.97 178.83
  A 0.51 0.51 0.0 0 0 458.71 179.27
  Q 459.92 178.67 460.19 179.79
  Q 461.16 180.10 462.45 180.03
  C 461.80 182.81 466.98 183.70 468.75 183.66
  C 473.65 183.54 480.40 182.70 485.05 184.01
  L 459.05 183.83
  L 431.91 183.85
  A 0.86 0.85 -84.7 0 0 431.07 184.55
  Q 430.49 187.92 431.81 187.75
  L 433.23 188.23
  L 426.97 187.79
  Q 426.41 187.75 426.50 187.20
  Q 426.58 186.72 426.83 186.32
  A 2.55 1.40 -63.4 0 1 428.75 184.99
  L 429.26 185.06
  Q 429.68 185.12 429.76 184.70
  Q 429.83 184.27 429.47 184.24
  A 0.50 0.50 0.0 0 1 429.00 183.69
  Q 429.09 182.81 428.73 182.32
  L 430.97 182.30
  Q 430.72 183.23 431.65 183.37
  Q 433.78 183.70 436.34 183.53
  A 1.87 1.86 7.5 0 0 437.99 182.27
  L 438.51 180.71
  Q 438.89 179.59 437.72 179.74
  L 432.39 180.45
  L 435.93 172.71
  Q 436.41 171.24 438.75 170.11
  A 2.62 2.61 40.7 0 1 440.67 169.97
  L 444.02 171.00
  Q 444.41 172.75 445.35 174.24
  Q 445.60 174.65 446.05 174.80
  C 450.08 176.17 450.40 173.22 450.27 170.32
  Q 450.23 169.38 451.18 169.35
  L 451.49 169.33
  A 0.81 0.81 0.0 0 1 452.32 170.26
  Q 452.04 172.23 452.75 174.07
  A 0.99 0.99 0.0 0 0 453.54 174.70
  Q 455.63 174.96 456.76 176.73
  Q 457.35 177.67 457.38 176.56
  Q 457.42 174.81 459.24 174.25
  Q 459.77 174.08 460.18 174.46
  Q 462.22 176.34 460.36 178.64
  Z"
/>
<path fill="#8c929f" d="
  M 428.73 182.32
  Q 429.09 182.81 429.00 183.69
  A 0.50 0.50 0.0 0 0 429.47 184.24
  Q 429.83 184.27 429.76 184.70
  Q 429.68 185.12 429.26 185.06
  L 428.75 184.99
  A 2.55 1.40 -63.4 0 0 426.83 186.32
  Q 426.58 186.72 426.50 187.20
  Q 426.41 187.75 426.97 187.79
  L 433.23 188.23
  Q 433.51 188.52 433.62 188.21
  Q 435.06 189.00 436.26 188.97
  Q 440.40 188.87 447.75 188.06
  L 456.29 187.83
  Q 457.30 188.28 458.31 188.10
  A 0.81 0.79 1.5 0 0 458.96 187.50
  L 459.15 186.72
  A 0.76 0.75 -56.5 0 1 460.49 186.44
  Q 460.75 186.79 460.81 187.26
  Q 460.86 187.75 461.36 187.75
  L 481.98 187.75
  L 462.76 188.24
  Q 462.27 188.25 462.14 188.74
  Q 462.04 189.17 462.19 189.53
  C 462.48 190.27 463.49 190.54 463.97 191.51
  A 0.99 0.97 -9.1 0 0 464.72 192.04
  Q 465.46 192.15 465.44 192.64
  Q 457.09 192.50 448.54 192.54
  Q 447.42 192.54 446.63 193.07
  Q 444.58 194.45 446.08 195.30
  L 447.65 196.75
  Q 457.19 201.24 467.34 196.59
  L 473.52 196.10
  Q 476.44 196.72 475.29 195.56
  Q 485.56 203.98 496.14 211.36
  Q 496.29 211.46 496.64 211.19
  L 497.31 212.33
  C 495.85 211.92 494.25 212.35 493.22 212.34
  Q 447.24 211.84 401.25 212.39
  Q 398.65 212.42 391.76 212.19
  C 385.71 211.99 379.68 212.67 373.77 212.20
  C 368.69 211.80 364.00 212.51 360.05 211.20
  Q 359.53 211.03 359.74 210.53
  L 360.34 209.12
  L 367.81 207.45
  A 0.47 0.47 0.0 0 0 368.17 206.90
  L 368.11 206.62
  A 0.77 0.76 80.7 0 0 367.27 206.01
  Q 362.92 206.57 358.45 207.13
  C 353.83 207.72 349.27 207.48 344.61 207.46
  A 0.73 0.72 -1.8 0 0 343.88 208.23
  L 343.90 208.67
  A 0.85 0.84 -2.5 0 0 344.77 209.46
  Q 346.55 209.41 347.51 209.77
  Q 348.05 210.76 347.60 211.78
  Q 347.38 212.29 346.83 212.20
  Q 340.75 211.19 338.61 214.53
  L 335.03 213.99
  A 1.54 1.54 0.0 0 1 334.29 211.27
  L 335.40 210.37
  Q 336.02 209.87 335.34 209.47
  Q 335.09 209.32 335.01 209.05
  Q 334.90 208.69 335.24 208.50
  Q 335.60 208.31 336.26 208.42
  Q 336.95 208.53 337.64 208.60
  Q 338.36 208.67 337.84 209.16
  Q 337.62 209.37 337.55 209.64
  Q 337.50 209.84 337.56 210.03
  Q 337.77 210.72 338.64 211.19
  A 0.92 0.92 0.0 0 0 339.98 210.58
  L 341.86 202.30
  Q 341.96 201.84 341.82 201.39
  L 340.28 196.23
  A 0.93 0.91 62.0 0 1 340.56 195.28
  L 343.63 192.61
  Q 344.04 192.26 344.14 191.74
  L 347.74 173.13
  A 1.95 1.93 5.0 0 1 349.61 171.57
  L 354.43 171.51
  A 1.65 1.65 0.0 0 1 356.08 172.88
  L 358.67 187.77
  A 0.89 0.88 84.9 0 0 359.54 188.51
  L 370.02 188.53
  A 0.99 0.98 5.3 0 0 370.99 187.73
  L 371.82 183.39
  A 1.31 1.31 0.0 0 1 373.13 182.33
  Q 384.13 182.54 394.85 182.16
  C 396.04 182.12 398.30 182.46 399.96 182.14
  Q 400.41 182.06 400.87 182.06
  L 428.73 182.32
  Z
  M 398.5652 186.7580
  A 1.29 0.89 132.7 0 0 400.0941 186.4136
  A 1.29 0.89 132.7 0 0 400.3148 184.8620
  A 1.29 0.89 132.7 0 0 398.7859 185.2064
  A 1.29 0.89 132.7 0 0 398.5652 186.7580
  Z
  M 403.8088 187.5790
  A 1.59 0.86 -2.2 0 0 402.1870 186.7806
  A 1.59 0.86 -2.2 0 0 400.6312 187.7010
  A 1.59 0.86 -2.2 0 0 402.2530 188.4994
  A 1.59 0.86 -2.2 0 0 403.8088 187.5790
  Z
  M 353.07 196.24
  Q 353.20 197.31 354.20 197.53
  A 0.46 0.46 0.0 0 0 354.75 197.10
  Q 354.80 196.13 353.76 195.86
  Q 353.35 195.76 353.24 195.90
  A 0.52 0.17 -45.6 0 0 353.07 196.24
  Z
  M 352.50 199.85
  A 0.33 0.32 27.6 0 0 352.35 199.38
  Q 351.66 199.09 350.94 199.24
  A 0.69 0.69 0.0 0 0 350.41 199.84
  L 349.97 204.42
  Q 349.95 204.63 350.16 204.63
  L 350.78 204.63
  Q 350.93 204.63 350.95 204.47
  Q 351.20 201.98 352.50 199.85
  Z"
/>
<path fill="#4c4d4d" d="
  M 460.36 178.64
  Q 460.11 179.05 460.19 179.79
  Q 459.92 178.67 458.71 179.27
  A 0.51 0.51 0.0 0 1 457.97 178.83
  Q 457.95 178.18 458.37 177.79
  Q 458.78 177.43 459.21 177.76
  L 460.36 178.64
  Z"
/>
<path fill="#bdcbed" d="
  M 430.97 182.30
  Q 432.02 181.38 432.39 180.45
  L 437.72 179.74
  Q 438.89 179.59 438.51 180.71
  L 437.99 182.27
  A 1.87 1.86 7.5 0 1 436.34 183.53
  Q 433.78 183.70 431.65 183.37
  Q 430.72 183.23 430.97 182.30
  Z"
/>
<path fill="#bdcbed" d="
  M 485.05 184.01
  C 480.40 182.70 473.65 183.54 468.75 183.66
  C 466.98 183.70 461.80 182.81 462.45 180.03
  L 484.29 180.05
  A 1.10 1.08 69.8 0 1 485.13 180.45
  Q 485.95 181.44 486.14 182.76
  Q 486.21 183.31 485.74 183.59
  L 485.05 184.01
  Z"
/>
<path fill="#282724" d="
  M 459.05 183.83
  Q 464.39 183.79 466.75 184.76
  Q 468.62 185.53 467.39 187.27
  Q 467.15 187.62 466.72 187.62
  L 462.29 187.62
  Q 461.79 187.62 461.72 187.13
  Q 461.69 186.94 461.75 186.79
  Q 462.00 186.24 461.48 185.93
  Q 459.91 184.99 458.19 185.67
  Q 457.64 185.89 457.94 186.40
  Q 458.13 186.71 458.14 187.09
  Q 458.17 187.64 457.64 187.80
  Q 457.02 187.98 456.29 187.83
  L 447.75 188.06
  L 437.72 188.12
  L 434.00 187.91
  L 436.15 187.68
  Q 436.80 187.61 436.19 187.39
  L 431.72 185.73
  Q 430.19 185.61 431.81 187.75
  Q 430.49 187.92 431.07 184.55
  A 0.86 0.85 -84.7 0 1 431.91 183.85
  L 459.05 183.83
  Z"
/>
<path fill="#4c4d4d" d="
  M 459.05 183.83
  L 485.05 184.01
  L 484.41 184.99
  Q 482.63 184.89 480.82 185.51
  Q 480.33 185.67 479.85 185.51
  C 478.34 185.01 476.67 185.48 475.26 185.36
  Q 474.04 185.26 472.82 185.40
  C 471.37 185.56 469.99 185.02 468.43 185.70
  Q 467.94 185.92 468.18 186.40
  Q 468.63 187.25 469.75 187.29
  Q 476.49 187.52 483.26 187.55
  Q 483.22 187.96 482.96 187.83
  Q 482.48 187.67 481.98 187.75
  L 461.36 187.75
  Q 460.86 187.75 460.81 187.26
  Q 460.75 186.79 460.49 186.44
  A 0.76 0.75 -56.5 0 0 459.15 186.72
  L 458.96 187.50
  A 0.81 0.79 1.5 0 1 458.31 188.10
  Q 457.30 188.28 456.29 187.83
  Q 457.02 187.98 457.64 187.80
  Q 458.17 187.64 458.14 187.09
  Q 458.13 186.71 457.94 186.40
  Q 457.64 185.89 458.19 185.67
  Q 459.91 184.99 461.48 185.93
  Q 462.00 186.24 461.75 186.79
  Q 461.69 186.94 461.72 187.13
  Q 461.79 187.62 462.29 187.62
  L 466.72 187.62
  Q 467.15 187.62 467.39 187.27
  Q 468.62 185.53 466.75 184.76
  Q 464.39 183.79 459.05 183.83
  Z"
/>
<ellipse fill="#bdcbed" cx="0.00" cy="0.00" transform="translate(399.44,185.81) rotate(132.7)" rx="1.29" ry="0.89"/>
<path fill="#282724" d="
  M 484.41 184.99
  Q 484.42 185.63 484.16 186.22
  L 483.26 187.55
  Q 476.49 187.52 469.75 187.29
  Q 468.63 187.25 468.18 186.40
  Q 467.94 185.92 468.43 185.70
  C 469.99 185.02 471.37 185.56 472.82 185.40
  Q 474.04 185.26 475.26 185.36
  C 476.67 185.48 478.34 185.01 479.85 185.51
  Q 480.33 185.67 480.82 185.51
  Q 482.63 184.89 484.41 184.99
  Z"
/>
<path fill="#5a5d62" d="
  M 431.72 185.73
  Q 432.47 187.93 434.00 187.91
  L 437.72 188.12
  L 433.62 188.21
  Q 433.51 188.52 433.23 188.23
  L 431.81 187.75
  Q 430.19 185.61 431.72 185.73
  Z"
/>
<path fill="#4c4d4d" d="
  M 431.72 185.73
  L 436.19 187.39
  Q 436.80 187.61 436.15 187.68
  L 434.00 187.91
  Q 432.47 187.93 431.72 185.73
  Z"
/>
<path fill="#8c929f" d="
  M 484.16 186.22
  Q 484.38 187.16 484.02 188.11
  Q 483.28 188.18 482.96 187.83
  Q 483.22 187.96 483.26 187.55
  L 484.16 186.22
  Z"
/>
<ellipse fill="#4c4d4d" cx="0.00" cy="0.00" transform="translate(402.22,187.64) rotate(-2.2)" rx="1.59" ry="0.86"/>
<path fill="#bdcbed" d="
  M 481.98 187.75
  Q 482.48 187.67 482.96 187.83
  Q 483.28 188.18 484.02 188.11
  Q 485.30 188.33 486.71 188.12
  A 1.43 1.42 75.2 0 1 488.25 189.02
  L 496.64 211.19
  Q 496.29 211.46 496.14 211.36
  Q 485.56 203.98 475.29 195.56
  Q 471.93 193.24 465.44 192.64
  Q 465.46 192.15 464.72 192.04
  A 0.99 0.97 -9.1 0 1 463.97 191.51
  C 463.49 190.54 462.48 190.27 462.19 189.53
  Q 462.04 189.17 462.14 188.74
  Q 462.27 188.25 462.76 188.24
  L 481.98 187.75
  Z"
/>
<path fill="#6a6f7b" d="
  M 437.72 188.12
  L 447.75 188.06
  Q 440.40 188.87 436.26 188.97
  Q 435.06 189.00 433.62 188.21
  L 437.72 188.12
  Z"
/>
<path fill="#4c4d4d" d="
  M 465.44 192.64
  Q 471.93 193.24 475.29 195.56
  Q 476.44 196.72 473.52 196.10
  C 469.33 196.03 465.72 195.87 461.19 196.28
  Q 453.36 197.00 446.08 195.30
  Q 444.58 194.45 446.63 193.07
  Q 447.42 192.54 448.54 192.54
  Q 457.09 192.50 465.44 192.64
  Z"
/>
<path fill="#5a5d62" d="
  M 446.08 195.30
  Q 453.36 197.00 461.19 196.28
  C 465.72 195.87 469.33 196.03 473.52 196.10
  L 467.34 196.59
  Q 460.97 197.98 454.25 197.94
  Q 450.83 197.91 447.65 196.75
  L 446.08 195.30
  Z"
/>
<path fill="#8c929f" d="
  M 329.45 218.92
  Q 327.56 218.62 325.50 218.82
  Q 323.52 219.01 323.24 217.22
  L 324.37 215.30
  Q 324.62 214.88 324.26 214.54
  L 323.86 214.17
  Q 323.58 213.92 323.64 213.56
  Q 323.92 211.73 322.60 209.86
  L 323.28 208.62
  C 324.79 205.37 323.81 202.87 324.01 199.83
  Q 324.14 197.94 324.24 196.21
  Q 324.29 195.43 325.06 195.51
  L 325.93 195.59
  Q 326.69 195.66 326.70 196.43
  L 326.77 200.50
  Q 326.78 201.01 327.26 201.20
  L 328.16 201.56
  Q 328.68 201.77 328.64 202.34
  Q 328.36 205.74 328.65 209.11
  C 328.80 210.87 327.79 212.96 329.42 214.73
  A 1.13 1.11 -64.7 0 1 329.72 215.59
  L 329.45 218.92
  Z"
/>
<path fill="#4c4d4d" d="
  M 353.07 196.24
  A 0.52 0.17 -45.6 0 1 353.24 195.90
  Q 353.35 195.76 353.76 195.86
  Q 354.80 196.13 354.75 197.10
  A 0.46 0.46 0.0 0 1 354.20 197.53
  Q 353.20 197.31 353.07 196.24
  Z"
/>
<path fill="#6a6f7b" d="
  M 447.65 196.75
  Q 450.83 197.91 454.25 197.94
  Q 460.97 197.98 467.34 196.59
  Q 457.19 201.24 447.65 196.75
  Z"
/>
<path fill="#4c4d4d" d="
  M 352.50 199.85
  Q 351.20 201.98 350.95 204.47
  Q 350.93 204.63 350.78 204.63
  L 350.16 204.63
  Q 349.95 204.63 349.97 204.42
  L 350.41 199.84
  A 0.69 0.69 0.0 0 1 350.94 199.24
  Q 351.66 199.09 352.35 199.38
  A 0.33 0.32 27.6 0 1 352.50 199.85
  Z"
/>
<path fill="#282724" d="
  M 323.29 204.41
  Q 322.22 205.17 322.71 207.22
  Q 322.83 207.74 322.53 208.17
  Q 322.05 208.87 322.22 209.46
  Q 321.51 209.48 320.95 209.17
  Q 320.54 208.95 320.54 208.49
  L 320.49 202.88
  Q 320.48 202.24 321.12 202.25
  L 322.48 202.28
  Q 323.06 202.29 323.21 202.85
  Q 323.51 203.91 323.29 204.41
  Z"
/>
<path fill="#8c929f" d="
  M 527.32 211.08
  L 519.50 210.80
  L 517.77 210.33
  Q 517.31 210.20 517.53 209.78
  Q 518.28 208.29 518.43 206.70
  Q 518.63 204.66 520.66 204.33
  C 523.21 203.92 524.96 204.14 526.75 206.83
  Q 527.14 207.42 527.84 207.40
  Q 531.33 207.31 534.76 207.98
  Q 535.74 208.17 534.74 208.24
  L 530.99 208.51
  Q 530.55 208.54 530.33 208.93
  Q 530.23 209.10 530.08 209.16
  Q 529.72 209.30 529.48 208.99
  Q 529.32 208.78 529.09 208.67
  Q 528.55 208.43 528.53 209.02
  Q 528.45 210.64 527.32 211.08
  Z"
/>
<path fill="#5a5d62" d="
  M 323.29 204.41
  L 323.28 208.62
  L 322.60 209.86
  Q 322.96 209.86 322.22 209.46
  Q 322.05 208.87 322.53 208.17
  Q 322.83 207.74 322.71 207.22
  Q 322.22 205.17 323.29 204.41
  Z"
/>
<path fill="#282724" d="
  M 360.34 209.12
  Q 353.48 211.20 347.51 209.77
  Q 346.55 209.41 344.77 209.46
  A 0.85 0.84 -2.5 0 1 343.90 208.67
  L 343.88 208.23
  A 0.73 0.72 -1.8 0 1 344.61 207.46
  C 349.27 207.48 353.83 207.72 358.45 207.13
  Q 362.92 206.57 367.27 206.01
  A 0.77 0.76 80.7 0 1 368.11 206.62
  L 368.17 206.90
  A 0.47 0.47 0.0 0 1 367.81 207.45
  L 360.34 209.12
  Z"
/>
<path fill="#6a6f7b" d="
  M 360.34 209.12
  L 359.74 210.53
  Q 359.53 211.03 360.05 211.20
  C 364.00 212.51 368.69 211.80 373.77 212.20
  C 379.68 212.67 385.71 211.99 391.76 212.19
  Q 398.65 212.42 401.25 212.39
  Q 447.24 211.84 493.22 212.34
  C 494.25 212.35 495.85 211.92 497.31 212.33
  L 519.14 212.50
  Q 527.71 214.23 535.95 214.34
  L 585.93 216.89
  Q 548.35 219.88 536.24 222.10
  Q 523.15 224.49 510.06 226.96
  C 505.89 227.74 501.00 229.08 496.41 229.93
  Q 490.49 231.03 486.18 232.18
  Q 467.90 237.07 449.27 239.58
  C 431.21 241.82 417.76 242.03 401.78 242.25
  A 0.54 0.54 0.0 0 1 401.23 241.70
  L 401.34 236.03
  A 1.56 1.55 0.5 0 0 399.78 234.45
  L 379.25 234.48
  A 1.02 1.02 0.0 0 0 378.23 235.51
  L 378.26 241.62
  A 0.63 0.62 -0.4 0 1 377.63 242.25
  L 241.00 242.12
  A 1.20 1.02 79.0 0 1 240.00 241.32
  Q 239.97 241.23 240.21 240.82
  Q 241.32 240.37 241.25 239.12
  Q 241.21 238.59 240.69 238.63
  L 235.96 238.99
  A 0.54 0.54 0.0 0 1 235.48 238.14
  C 238.18 234.29 239.96 232.16 237.88 227.27
  Q 237.49 226.38 238.28 226.95
  C 240.72 228.71 240.27 233.19 240.11 236.21
  A 0.54 0.54 0.0 0 0 240.52 236.77
  L 240.91 236.87
  Q 241.22 236.95 241.23 236.63
  Q 241.28 233.05 241.35 229.41
  C 241.42 225.72 240.64 222.38 236.00 223.71
  Q 234.19 223.01 234.16 222.47
  L 320.59 222.36
  A 1.69 1.68 85.6 0 0 322.25 220.41
  Q 321.98 218.72 323.24 217.22
  Q 323.52 219.01 325.50 218.82
  Q 327.56 218.62 329.45 218.92
  L 329.52 220.98
  A 1.34 1.34 0.0 0 0 330.58 222.24
  C 337.19 223.69 339.06 220.55 338.61 214.53
  Q 340.75 211.19 346.83 212.20
  Q 347.38 212.29 347.60 211.78
  Q 348.05 210.76 347.51 209.77
  Q 353.48 211.20 360.34 209.12
  Z
  M 257.3875 224.2049
  A 0.80 0.80 0.0 0 0 256.5931 223.3994
  L 251.0532 223.3607
  A 0.80 0.80 0.0 0 0 250.2476 224.1551
  L 250.2325 226.3151
  A 0.80 0.80 0.0 0 0 251.0269 227.1206
  L 256.5668 227.1593
  A 0.80 0.80 0.0 0 0 257.3724 226.3649
  L 257.3875 224.2049
  Z
  M 273.62 224.37
  L 273.26 224.01
  A 1.33 1.31 70.3 0 0 272.47 223.63
  Q 269.42 223.29 266.35 223.56
  Q 266.24 223.57 266.16 223.66
  Q 266.08 223.75 265.99 223.85
  Q 265.75 224.13 265.44 223.93
  C 264.12 223.04 261.10 223.34 258.89 223.46
  Q 257.87 223.51 257.99 224.53
  L 258.19 226.09
  Q 258.32 227.10 259.35 227.09
  L 279.91 226.83
  Q 281.02 226.82 281.19 225.72
  L 281.37 224.48
  Q 281.55 223.22 280.29 223.39
  Q 278.29 223.65 275.25 223.61
  Q 274.62 223.60 274.33 224.24
  Q 274.07 224.83 273.62 224.37
  Z"
/>
<path fill="#4c4d4d" d="
  M 519.50 210.80
  L 527.32 211.08
  Q 527.27 211.24 527.23 211.37
  A 0.79 0.78 -81.2 0 0 527.98 212.40
  L 535.71 212.29
  Q 536.21 212.29 536.15 212.79
  L 535.95 214.34
  Q 527.71 214.23 519.14 212.50
  L 519.64 212.21
  Q 519.99 212.00 519.99 211.59
  Q 519.98 211.13 519.50 210.80
  Z"
/>
<path fill="#4c4d4d" d="
  M 585.93 216.89
  L 593.55 217.36
  A 0.22 0.22 0.0 0 1 593.69 217.74
  L 548.97 262.45
  C 547.29 262.61 545.65 262.98 544.00 262.98
  C 517.34 263.06 490.66 262.68 464.01 262.95
  Q 436.26 263.22 408.50 262.97
  L 412.45 262.79
  A 0.15 0.15 0.0 0 0 412.51 262.51
  Q 412.37 262.45 412.23 262.39
  Q 411.96 262.27 412.06 261.99
  Q 413.39 258.01 417.39 256.59
  A 1.32 1.29 2.7 0 0 418.12 255.94
  Q 418.43 255.32 419.02 255.34
  Q 419.56 255.35 420.02 255.05
  Q 422.38 253.50 424.65 251.86
  C 425.49 251.25 426.40 251.14 427.28 250.33
  Q 428.38 249.31 428.99 249.01
  Q 434.23 246.41 439.05 243.07
  Q 439.13 243.02 439.12 242.92
  Q 439.12 242.88 439.12 242.84
  Q 439.10 242.63 439.30 242.68
  Q 439.60 242.74 439.81 242.95
  Q 440.12 243.25 440.50 243.06
  L 441.64 242.49
  Q 441.86 242.38 441.68 242.20
  L 441.48 242.00
  Q 441.10 241.62 441.64 241.59
  Q 445.64 241.34 449.27 239.58
  Q 467.90 237.07 486.18 232.18
  Q 490.49 231.03 496.41 229.93
  C 501.00 229.08 505.89 227.74 510.06 226.96
  Q 523.15 224.49 536.24 222.10
  Q 548.35 219.88 585.93 216.89
  Z
  M 550.31 240.22
  A 1.18 1.18 0.0 0 0 549.10 240.47
  L 547.08 242.36
  A 1.18 1.18 0.0 0 0 547.87 244.40
  L 553.56 244.48
  A 1.18 1.18 0.0 0 0 554.52 242.59
  L 553.84 241.69
  A 1.18 1.18 0.0 0 0 553.30 241.29
  L 550.31 240.22
  Z"
/>
<path fill="#6a6f7b" d="
  M 179.54 222.48
  Q 179.70 222.90 179.35 223.57
  C 178.77 224.27 178.26 224.92 178.23 225.91
  Q 177.99 233.47 178.33 241.09
  Q 177.29 242.28 176.23 241.25
  Q 176.68 233.83 176.09 226.51
  C 175.80 222.76 172.69 223.24 170.00 223.30
  Q 155.75 223.64 141.50 223.38
  Q 126.90 223.12 112.83 223.47
  A 2.31 2.30 0.9 0 0 110.58 225.64
  Q 110.11 233.97 111.06 242.03
  Q 90.35 242.14 68.50 242.26
  Q 65.84 242.27 62.75 241.27
  L 53.57 223.45
  Q 52.98 222.30 54.27 222.30
  L 179.54 222.48
  Z
  M 58.77 223.59
  A 0.65 0.65 0.0 0 0 58.13 224.35
  L 58.53 226.74
  A 0.65 0.65 0.0 0 0 59.16 227.28
  L 64.48 227.35
  A 0.65 0.65 0.0 0 0 65.14 226.79
  L 65.47 224.35
  A 0.65 0.65 0.0 0 0 64.83 223.62
  L 58.77 223.59
  Z
  M 66.87 223.53
  A 0.47 0.47 0.0 0 0 66.40 224.05
  L 66.67 226.86
  A 0.47 0.47 0.0 0 0 67.13 227.29
  L 72.65 227.39
  A 0.47 0.47 0.0 0 0 73.13 226.99
  L 73.54 224.09
  A 0.47 0.47 0.0 0 0 73.08 223.56
  L 66.87 223.53
  Z
  M 80.67 227.37
  A 0.48 0.48 0.0 0 0 81.14 226.96
  L 81.59 224.07
  A 0.48 0.48 0.0 0 0 81.11 223.52
  L 74.88 223.51
  A 0.48 0.48 0.0 0 0 74.40 224.03
  L 74.64 226.91
  A 0.48 0.48 0.0 0 0 75.12 227.35
  L 80.67 227.37
  Z
  M 89.42 224.95
  Q 90.81 222.37 90.53 225.29
  Q 90.46 226.03 90.80 226.84
  Q 91.00 227.32 91.52 227.33
  L 96.31 227.39
  Q 97.08 227.40 97.20 226.65
  L 97.58 224.23
  A 0.61 0.61 0.0 0 0 96.98 223.52
  L 82.76 223.53
  Q 82.30 223.53 82.35 223.98
  L 82.68 226.80
  A 0.62 0.61 86.9 0 0 83.29 227.35
  L 88.53 227.38
  A 0.70 0.70 0.0 0 0 89.24 226.68
  Q 89.23 225.30 89.42 224.95
  Z
  M 104.71 227.46
  A 0.62 0.62 0.0 0 0 105.34 226.89
  L 105.56 224.19
  A 0.62 0.62 0.0 0 0 104.95 223.52
  L 99.01 223.52
  A 0.62 0.62 0.0 0 0 98.39 224.21
  L 98.68 226.84
  A 0.62 0.62 0.0 0 0 99.29 227.40
  L 104.71 227.46
  Z"
/>
<path fill="#4c4d4d" d="
  M 179.54 222.48
  L 234.16 222.47
  Q 234.19 223.01 236.00 223.71
  L 179.35 223.57
  Q 179.70 222.90 179.54 222.48
  Z"
/>
<path fill="#282724" d="
  M 176.23 241.25
  Q 175.00 241.83 174.13 240.85
  Q 173.80 240.48 173.30 240.43
  L 168.94 240.04
  Q 168.35 239.99 168.21 240.56
  Q 168.01 241.33 167.46 241.90
  Q 167.09 242.29 166.55 242.29
  L 115.73 242.32
  A 1.54 1.53 -86.7 0 1 114.21 240.60
  Q 114.85 235.05 114.25 229.51
  Q 113.49 222.54 112.73 229.55
  Q 112.28 233.67 113.34 240.96
  Q 113.45 241.70 111.06 242.03
  Q 110.11 233.97 110.58 225.64
  A 2.31 2.30 0.9 0 1 112.83 223.47
  Q 126.90 223.12 141.50 223.38
  Q 155.75 223.64 170.00 223.30
  C 172.69 223.24 175.80 222.76 176.09 226.51
  Q 176.68 233.83 176.23 241.25
  Z
  M 171.53 228.01
  C 173.26 231.93 171.44 234.70 169.10 237.70
  Q 168.14 238.92 169.69 238.93
  L 173.59 238.97
  A 0.62 0.61 -0.0 0 0 174.21 238.36
  C 174.23 235.90 174.65 229.14 172.60 227.39
  Q 170.43 225.55 171.53 228.01
  Z
  M 148.7547 228.8318
  A 1.44 1.14 45.2 0 0 148.5489 227.0067
  A 1.44 1.14 45.2 0 0 146.7253 226.7882
  A 1.44 1.14 45.2 0 0 146.9311 228.6133
  A 1.44 1.14 45.2 0 0 148.7547 228.8318
  Z
  M 140.95 227.34
  L 140.39 228.98
  Q 140.17 229.62 140.84 229.71
  Q 142.21 229.90 143.32 229.15
  Q 143.72 228.89 143.69 228.41
  Q 143.62 226.78 141.74 226.77
  A 0.83 0.83 0.0 0 0 140.95 227.34
  Z
  M 121.87 238.39
  Q 121.27 240.58 122.61 240.63
  C 135.78 241.15 149.09 239.97 162.37 239.70
  Q 164.23 239.66 165.84 237.61
  L 168.74 231.97
  Q 168.84 231.77 168.62 231.69
  L 168.61 231.68
  Q 168.41 231.61 168.33 231.82
  C 166.83 236.01 161.18 234.86 157.51 234.95
  A 0.76 0.75 84.3 0 1 156.75 234.32
  L 156.57 233.23
  Q 156.69 231.51 155.75 231.56
  Q 140.80 232.32 135.50 232.43
  Q 134.98 232.44 134.86 232.94
  Q 134.59 233.96 135.10 235.31
  Q 134.37 235.93 133.75 235.78
  Q 131.62 235.29 129.50 235.74
  Q 128.55 235.94 128.52 234.96
  L 128.37 229.58
  Q 128.34 228.56 127.33 228.53
  L 123.38 228.39
  Q 122.11 228.35 122.07 229.62
  L 121.89 234.90
  Q 121.87 235.43 121.34 235.40
  L 118.43 235.21
  A 0.81 0.81 0.0 0 0 117.61 235.76
  Q 117.42 236.35 117.94 236.83
  Q 118.88 237.71 120.75 237.36
  Q 121.83 237.16 121.87 238.39
  Z"
/>
<rect fill="#4c4d4d" x="-3.57" y="-1.88" transform="translate(253.81,225.26) rotate(0.4)" width="7.14" height="3.76" rx="0.80"/>
<path fill="#282724" d="
  M 58.77 223.59
  L 64.83 223.62
  A 0.65 0.65 0.0 0 1 65.47 224.35
  L 65.14 226.79
  A 0.65 0.65 0.0 0 1 64.48 227.35
  L 59.16 227.28
  A 0.65 0.65 0.0 0 1 58.53 226.74
  L 58.13 224.35
  A 0.65 0.65 0.0 0 1 58.77 223.59
  Z"
/>
<path fill="#282724" d="
  M 66.87 223.53
  L 73.08 223.56
  A 0.47 0.47 0.0 0 1 73.54 224.09
  L 73.13 226.99
  A 0.47 0.47 0.0 0 1 72.65 227.39
  L 67.13 227.29
  A 0.47 0.47 0.0 0 1 66.67 226.86
  L 66.40 224.05
  A 0.47 0.47 0.0 0 1 66.87 223.53
  Z"
/>
<path fill="#282724" d="
  M 80.67 227.37
  L 75.12 227.35
  A 0.48 0.48 0.0 0 1 74.64 226.91
  L 74.40 224.03
  A 0.48 0.48 0.0 0 1 74.88 223.51
  L 81.11 223.52
  A 0.48 0.48 0.0 0 1 81.59 224.07
  L 81.14 226.96
  A 0.48 0.48 0.0 0 1 80.67 227.37
  Z"
/>
<path fill="#282724" d="
  M 89.42 224.95
  Q 89.23 225.30 89.24 226.68
  A 0.70 0.70 0.0 0 1 88.53 227.38
  L 83.29 227.35
  A 0.62 0.61 86.9 0 1 82.68 226.80
  L 82.35 223.98
  Q 82.30 223.53 82.76 223.53
  L 96.98 223.52
  A 0.61 0.61 0.0 0 1 97.58 224.23
  L 97.20 226.65
  Q 97.08 227.40 96.31 227.39
  L 91.52 227.33
  Q 91.00 227.32 90.80 226.84
  Q 90.46 226.03 90.53 225.29
  Q 90.81 222.37 89.42 224.95
  Z"
/>
<path fill="#282724" d="
  M 104.71 227.46
  L 99.29 227.40
  A 0.62 0.62 0.0 0 1 98.68 226.84
  L 98.39 224.21
  A 0.62 0.62 0.0 0 1 99.01 223.52
  L 104.95 223.52
  A 0.62 0.62 0.0 0 1 105.56 224.19
  L 105.34 226.89
  A 0.62 0.62 0.0 0 1 104.71 227.46
  Z"
/>
<path fill="#282724" d="
  M 179.35 223.57
  L 236.00 223.71
  C 240.64 222.38 241.42 225.72 241.35 229.41
  Q 241.28 233.05 241.23 236.63
  Q 241.22 236.95 240.91 236.87
  L 240.52 236.77
  A 0.54 0.54 0.0 0 1 240.11 236.21
  C 240.27 233.19 240.72 228.71 238.28 226.95
  Q 237.49 226.38 237.88 227.27
  C 239.96 232.16 238.18 234.29 235.48 238.14
  A 0.54 0.54 0.0 0 0 235.96 238.99
  L 240.69 238.63
  Q 241.21 238.59 241.25 239.12
  Q 241.32 240.37 240.21 240.82
  L 235.70 240.20
  Q 235.19 240.12 234.93 240.58
  L 234.39 241.54
  Q 234.10 242.06 233.51 242.07
  Q 204.69 242.67 182.13 242.14
  Q 181.51 242.12 181.16 241.58
  Q 180.91 241.18 180.44 241.17
  L 178.33 241.09
  Q 177.99 233.47 178.23 225.91
  C 178.26 224.92 178.77 224.27 179.35 223.57
  Z
  M 215.3381 228.7815
  A 1.31 1.10 41.7 0 0 215.0918 227.0887
  A 1.31 1.10 41.7 0 0 213.3819 227.0385
  A 1.31 1.10 41.7 0 0 213.6282 228.7313
  A 1.31 1.10 41.7 0 0 215.3381 228.7815
  Z
  M 208.05 227.35
  Q 207.28 228.06 207.06 229.01
  Q 206.94 229.49 207.42 229.58
  Q 209.32 229.96 209.86 228.83
  Q 210.55 227.39 209.12 227.07
  A 1.19 1.19 0.0 0 0 208.05 227.35
  Z
  M 181.0113 227.8244
  A 0.46 0.46 0.0 0 0 180.5553 227.3604
  L 180.5153 227.3601
  A 0.46 0.46 0.0 0 0 180.0513 227.8160
  L 179.9487 239.5756
  A 0.46 0.46 0.0 0 0 180.4047 240.0396
  L 180.4447 240.0399
  A 0.46 0.46 0.0 0 0 180.9087 239.5840
  L 181.0113 227.8244
  Z
  M 188.44 238.46
  Q 188.13 239.48 188.59 240.13
  A 0.96 0.95 -16.3 0 0 189.33 240.53
  C 200.70 241.02 211.89 240.23 223.23 240.06
  Q 228.30 239.99 232.17 238.35
  L 235.29 231.69
  Q 235.33 231.60 235.27 231.52
  Q 235.24 231.48 235.20 231.45
  A 0.14 0.12 -62.5 0 0 235.00 231.53
  Q 234.26 234.14 232.13 234.66
  Q 229.54 235.31 223.11 234.79
  Q 223.77 231.40 221.62 231.58
  Q 211.97 232.38 202.29 232.28
  A 0.83 0.82 -76.6 0 0 201.55 232.74
  Q 201.17 233.48 201.44 234.78
  Q 201.46 236.02 200.76 235.90
  Q 198.51 235.50 196.18 235.83
  A 0.90 0.90 0.0 0 1 195.16 234.97
  L 194.90 229.46
  A 0.95 0.95 0.0 0 0 193.96 228.55
  L 189.66 228.49
  A 1.12 1.11 -89.0 0 0 188.53 229.59
  L 188.46 234.89
  A 0.75 0.74 5.0 0 1 187.59 235.61
  L 185.13 235.21
  Q 184.65 235.13 184.42 235.56
  Q 184.10 236.14 184.62 236.65
  Q 185.68 237.67 187.51 237.35
  Q 188.29 237.22 188.44 238.46
  Z"
/>
<path fill="#4c4d4d" d="
  M 274.33 224.24
  Q 274.62 223.60 275.25 223.61
  Q 278.29 223.65 280.29 223.39
  Q 281.55 223.22 281.37 224.48
  L 281.19 225.72
  Q 281.02 226.82 279.91 226.83
  L 259.35 227.09
  Q 258.32 227.10 258.19 226.09
  L 257.99 224.53
  Q 257.87 223.51 258.89 223.46
  C 261.10 223.34 264.12 223.04 265.44 223.93
  Q 265.75 224.13 265.99 223.85
  Q 266.08 223.75 266.16 223.66
  Q 266.24 223.57 266.35 223.56
  Q 269.42 223.29 272.47 223.63
  A 1.33 1.31 70.3 0 1 273.26 224.01
  L 273.62 224.37
  Q 274.07 224.83 274.33 224.24
  Z"
/>
<path fill="#5a5d62" d="
  M 176.23 241.25
  Q 177.29 242.28 178.33 241.09
  L 180.44 241.17
  Q 180.91 241.18 181.16 241.58
  Q 181.51 242.12 182.13 242.14
  Q 204.69 242.67 233.51 242.07
  Q 234.10 242.06 234.39 241.54
  L 234.93 240.58
  Q 235.19 240.12 235.70 240.20
  L 240.21 240.82
  Q 239.97 241.23 240.00 241.32
  A 1.20 1.02 79.0 0 0 241.00 242.12
  L 377.63 242.25
  A 0.63 0.62 -0.4 0 0 378.26 241.62
  L 378.23 235.51
  A 1.02 1.02 0.0 0 1 379.25 234.48
  L 399.78 234.45
  A 1.56 1.55 0.5 0 1 401.34 236.03
  L 401.23 241.70
  A 0.54 0.54 0.0 0 0 401.78 242.25
  C 417.76 242.03 431.21 241.82 449.27 239.58
  Q 445.64 241.34 441.64 241.59
  Q 441.10 241.62 441.48 242.00
  L 441.68 242.20
  Q 441.86 242.38 441.64 242.49
  L 440.50 243.06
  Q 440.12 243.25 439.81 242.95
  Q 439.60 242.74 439.30 242.68
  Q 439.10 242.63 439.12 242.84
  Q 439.12 242.88 439.12 242.92
  Q 439.13 243.02 439.05 243.07
  Q 434.23 246.41 428.99 249.01
  Q 428.38 249.31 427.28 250.33
  C 426.40 251.14 425.49 251.25 424.65 251.86
  Q 422.38 253.50 420.02 255.05
  Q 419.56 255.35 419.02 255.34
  Q 418.43 255.32 418.12 255.94
  A 1.32 1.29 2.7 0 1 417.39 256.59
  Q 413.39 258.01 412.06 261.99
  Q 411.96 262.27 412.23 262.39
  Q 412.37 262.45 412.51 262.51
  A 0.15 0.15 0.0 0 1 412.45 262.79
  L 408.50 262.97
  L 132.21 262.98
  L 122.76 262.73
  Q 122.27 262.72 121.91 262.40
  Q 121.44 262.00 121.00 261.98
  Q 117.37 261.78 113.75 261.49
  Q 112.82 261.41 112.08 260.81
  Q 111.72 260.52 111.26 260.47
  L 89.75 257.97
  Q 89.45 257.93 89.35 257.64
  C 89.34 257.62 73.32 255.49 71.70 255.22
  Q 71.20 255.14 70.80 254.83
  L 68.64 253.11
  L 62.75 241.27
  Q 65.84 242.27 68.50 242.26
  Q 90.35 242.14 111.06 242.03
  Q 113.45 241.70 113.34 240.96
  Q 112.28 233.67 112.73 229.55
  Q 113.49 222.54 114.25 229.51
  Q 114.85 235.05 114.21 240.60
  A 1.54 1.53 -86.7 0 0 115.73 242.32
  L 166.55 242.29
  Q 167.09 242.29 167.46 241.90
  Q 168.01 241.33 168.21 240.56
  Q 168.35 239.99 168.94 240.04
  L 173.30 240.43
  Q 173.80 240.48 174.13 240.85
  Q 175.00 241.83 176.23 241.25
  Z
  M 399.8579 236.8554
  A 0.84 0.84 0.0 0 0 399.0208 236.0125
  L 380.4209 235.9476
  A 0.84 0.84 0.0 0 0 379.5780 236.7846
  L 379.5621 241.3446
  A 0.84 0.84 0.0 0 0 380.3992 242.1875
  L 398.9991 242.2524
  A 0.84 0.84 0.0 0 0 399.8420 241.4154
  L 399.8579 236.8554
  Z"
/>
<path fill="#6a6f7b" d="
  M 169.10 237.70
  C 171.44 234.70 173.26 231.93 171.53 228.01
  Q 170.43 225.55 172.60 227.39
  C 174.65 229.14 174.23 235.90 174.21 238.36
  A 0.62 0.61 0.0 0 1 173.59 238.97
  L 169.69 238.93
  Q 168.14 238.92 169.10 237.70
  Z"
/>
<ellipse fill="#4c4d4d" cx="0.00" cy="0.00" transform="translate(147.74,227.81) rotate(45.2)" rx="1.44" ry="1.14"/>
<path fill="#5a5d62" d="
  M 140.95 227.34
  A 0.83 0.83 0.0 0 1 141.74 226.77
  Q 143.62 226.78 143.69 228.41
  Q 143.72 228.89 143.32 229.15
  Q 142.21 229.90 140.84 229.71
  Q 140.17 229.62 140.39 228.98
  L 140.95 227.34
  Z"
/>
<ellipse fill="#4c4d4d" cx="0.00" cy="0.00" transform="translate(214.36,227.91) rotate(41.7)" rx="1.31" ry="1.10"/>
<path fill="#5a5d62" d="
  M 208.05 227.35
  A 1.19 1.19 0.0 0 1 209.12 227.07
  Q 210.55 227.39 209.86 228.83
  Q 209.32 229.96 207.42 229.58
  Q 206.94 229.49 207.06 229.01
  Q 207.28 228.06 208.05 227.35
  Z"
/>
<rect fill="#6a6f7b" x="-0.48" y="-6.34" transform="translate(180.48,233.70) rotate(0.5)" width="0.96" height="12.68" rx="0.46"/>
<path fill="#6a6f7b" d="
  M 135.10 235.31
  L 156.01 234.64
  Q 156.47 234.62 156.50 234.17
  L 156.57 233.23
  L 156.75 234.32
  A 0.76 0.75 84.3 0 0 157.51 234.95
  C 161.18 234.86 166.83 236.01 168.33 231.82
  Q 168.41 231.61 168.61 231.68
  L 168.62 231.69
  Q 168.84 231.77 168.74 231.97
  L 165.84 237.61
  L 165.61 236.20
  Q 165.55 235.87 165.22 235.87
  Q 164.02 235.84 163.01 236.50
  A 1.35 1.34 -55.1 0 1 162.02 236.68
  Q 159.71 236.22 157.74 237.34
  A 1.72 1.65 28.7 0 1 156.96 237.55
  L 121.87 238.39
  Q 121.83 237.16 120.75 237.36
  Q 118.88 237.71 117.94 236.83
  Q 117.42 236.35 117.61 235.76
  A 0.81 0.81 0.0 0 1 118.43 235.21
  L 121.34 235.40
  Q 121.87 235.43 121.89 234.90
  L 122.07 229.62
  Q 122.11 228.35 123.38 228.39
  L 127.33 228.53
  Q 128.34 228.56 128.37 229.58
  L 128.52 234.96
  Q 128.55 235.94 129.50 235.74
  Q 131.62 235.29 133.75 235.78
  Q 134.37 235.93 135.10 235.31
  Z"
/>
<path fill="#6a6f7b" d="
  M 201.44 234.78
  Q 201.56 235.44 201.75 235.44
  Q 212.61 235.54 223.11 234.79
  Q 229.54 235.31 232.13 234.66
  Q 234.26 234.14 235.00 231.53
  A 0.14 0.12 -62.5 0 1 235.20 231.45
  Q 235.24 231.48 235.27 231.52
  Q 235.33 231.60 235.29 231.69
  L 232.17 238.35
  Q 232.30 237.26 232.12 236.75
  Q 231.95 236.28 231.46 236.36
  C 230.55 236.53 229.77 236.92 228.85 236.87
  C 225.99 236.68 223.42 237.60 220.71 237.59
  C 217.89 237.57 215.01 238.11 212.42 238.11
  Q 200.44 238.09 188.44 238.46
  Q 188.29 237.22 187.51 237.35
  Q 185.68 237.67 184.62 236.65
  Q 184.10 236.14 184.42 235.56
  Q 184.65 235.13 185.13 235.21
  L 187.59 235.61
  A 0.75 0.74 5.0 0 0 188.46 234.89
  L 188.53 229.59
  A 1.12 1.11 -89.0 0 1 189.66 228.49
  L 193.96 228.55
  A 0.95 0.95 0.0 0 1 194.90 229.46
  L 195.16 234.97
  A 0.90 0.90 0.0 0 0 196.18 235.83
  Q 198.51 235.50 200.76 235.90
  Q 201.46 236.02 201.44 234.78
  Z"
/>
<path fill="#8c929f" d="
  M 223.11 234.79
  Q 212.61 235.54 201.75 235.44
  Q 201.56 235.44 201.44 234.78
  Q 201.17 233.48 201.55 232.74
  A 0.83 0.82 -76.6 0 1 202.29 232.28
  Q 211.97 232.38 221.62 231.58
  Q 223.77 231.40 223.11 234.79
  Z"
/>
<path fill="#8c929f" d="
  M 156.57 233.23
  L 156.50 234.17
  Q 156.47 234.62 156.01 234.64
  L 135.10 235.31
  Q 134.59 233.96 134.86 232.94
  Q 134.98 232.44 135.50 232.43
  Q 140.80 232.32 155.75 231.56
  Q 156.69 231.51 156.57 233.23
  Z"
/>
<path fill="#8c929f" d="
  M 165.84 237.61
  Q 164.23 239.66 162.37 239.70
  C 149.09 239.97 135.78 241.15 122.61 240.63
  Q 121.27 240.58 121.87 238.39
  L 156.96 237.55
  A 1.72 1.65 28.7 0 0 157.74 237.34
  Q 159.71 236.22 162.02 236.68
  A 1.35 1.34 -55.1 0 0 163.01 236.50
  Q 164.02 235.84 165.22 235.87
  Q 165.55 235.87 165.61 236.20
  L 165.84 237.61
  Z"
/>
<rect fill="#6a6f7b" x="-10.14" y="-3.12" transform="translate(389.71,239.10) rotate(0.2)" width="20.28" height="6.24" rx="0.84"/>
<path fill="#8c929f" d="
  M 232.17 238.35
  Q 228.30 239.99 223.23 240.06
  C 211.89 240.23 200.70 241.02 189.33 240.53
  A 0.96 0.95 -16.3 0 1 188.59 240.13
  Q 188.13 239.48 188.44 238.46
  Q 200.44 238.09 212.42 238.11
  C 215.01 238.11 217.89 237.57 220.71 237.59
  C 223.42 237.60 225.99 236.68 228.85 236.87
  C 229.77 236.92 230.55 236.53 231.46 236.36
  Q 231.95 236.28 232.12 236.75
  Q 232.30 237.26 232.17 238.35
  Z"
/>
<path fill="#6a6f7b" d="
  M 550.31 240.22
  L 553.30 241.29
  A 1.18 1.18 0.0 0 1 553.84 241.69
  L 554.52 242.59
  A 1.18 1.18 0.0 0 1 553.56 244.48
  L 547.87 244.40
  A 1.18 1.18 0.0 0 1 547.08 242.36
  L 549.10 240.47
  A 1.18 1.18 0.0 0 1 550.31 240.22
  Z"
/>
<path fill="#4c4d4d" d="
  M 68.64 253.11
  L 70.80 254.83
  Q 71.20 255.14 71.70 255.22
  C 73.32 255.49 89.34 257.62 89.35 257.64
  Q 89.45 257.93 89.75 257.97
  L 111.26 260.47
  Q 111.72 260.52 112.08 260.81
  Q 112.82 261.41 113.75 261.49
  Q 117.37 261.78 121.00 261.98
  Q 121.44 262.00 121.91 262.40
  Q 122.27 262.72 122.76 262.73
  L 132.21 262.98
  Q 113.07 262.45 97.50 262.87
  Q 96.63 262.90 95.59 263.33
  Q 95.12 263.53 94.87 263.98
  Q 93.35 266.72 90.31 264.44
  Q 90.00 262.92 89.19 262.82
  Q 81.02 261.83 72.83 260.41
  Q 72.31 260.33 72.08 259.86
  L 68.64 253.11
  Z"
/>
<path fill="#282724" d="
  M 548.97 262.45
  Q 548.50 263.46 548.81 264.29
  Q 548.90 264.53 548.88 264.71
  Q 548.83 265.22 548.34 265.06
  Q 547.44 264.77 546.50 264.88
  Q 546.09 264.93 545.79 265.21
  Q 545.13 265.85 544.18 265.83
  A 0.22 0.22 0.0 0 1 544.14 265.39
  Q 544.58 265.31 544.69 264.92
  A 0.31 0.31 0.0 0 0 544.23 264.57
  Q 540.93 266.55 537.26 267.77
  Q 537.09 267.82 537.01 267.99
  Q 536.95 268.10 536.90 268.21
  A 0.28 0.28 0.0 0 0 537.22 268.60
  Q 538.70 268.21 540.26 268.40
  Q 540.79 268.47 541.27 268.73
  C 545.11 270.83 554.41 268.88 558.51 267.60
  Q 561.86 266.56 564.97 267.91
  Q 565.44 268.11 565.79 267.75
  L 567.21 266.28
  C 569.26 280.91 546.71 281.73 537.73 281.72
  Q 389.84 281.58 241.97 281.71
  Q 238.53 279.46 236.00 279.25
  C 208.51 276.97 181.19 273.76 153.79 270.62
  Q 152.74 270.50 153.64 271.05
  Q 154.90 271.83 156.37 271.63
  Q 156.88 271.56 157.37 271.69
  Q 159.95 272.38 167.25 273.38
  Q 176.75 274.68 186.28 275.77
  Q 189.13 276.09 191.95 276.60
  C 199.27 277.90 206.85 278.14 214.25 279.16
  Q 219.21 279.85 230.49 279.95
  Q 232.46 279.97 232.54 281.86
  L 123.98 281.73
  Q 123.44 281.73 123.13 281.29
  L 120.56 277.57
  A 2.11 2.11 0.0 0 0 118.68 276.66
  L 113.69 276.96
  Q 113.06 277.00 113.14 277.63
  Q 113.31 278.91 114.41 279.53
  Q 115.08 279.91 114.59 280.50
  C 114.00 281.23 113.05 282.03 112.08 281.50
  Q 111.32 281.07 111.42 280.10
  C 111.49 279.42 112.08 278.99 112.19 278.21
  A 0.90 0.90 0.0 0 0 111.66 277.27
  L 109.52 276.35
  A 0.44 0.43 -46.6 0 1 109.50 275.56
  Q 109.63 275.50 109.74 275.42
  Q 110.42 274.99 110.56 274.74
  Q 111.68 272.67 110.36 270.74
  A 0.38 0.38 0.0 0 1 110.71 270.15
  Q 111.52 270.24 112.00 270.90
  A 0.62 0.62 0.0 0 0 113.03 270.85
  Q 113.19 270.58 113.47 270.42
  A 0.25 0.25 0.0 0 1 113.82 270.74
  Q 112.96 272.74 114.44 274.21
  A 0.80 0.79 54.2 0 0 115.34 274.36
  Q 117.14 273.50 116.36 271.58
  C 115.21 268.71 113.21 269.04 110.85 268.44
  Q 111.47 266.90 111.12 265.78
  A 1.00 0.98 -3.7 0 0 110.33 265.10
  L 107.08 264.59
  A 1.00 0.99 -81.5 0 0 105.94 265.44
  Q 105.76 266.77 106.56 268.06
  Q 104.97 268.05 104.83 269.48
  C 104.69 270.97 104.86 272.34 104.48 273.82
  Q 103.61 277.16 103.62 280.44
  A 0.50 0.50 0.0 0 1 103.11 280.95
  L 97.02 280.90
  Q 96.54 280.89 96.48 280.42
  Q 95.80 275.36 94.99 269.74
  Q 94.45 266.01 91.30 266.28
  A 0.90 0.89 -16.9 0 1 90.44 265.83
  Q 90.15 265.30 90.31 264.44
  Q 93.35 266.72 94.87 263.98
  Q 95.12 263.53 95.59 263.33
  Q 96.63 262.90 97.50 262.87
  Q 113.07 262.45 132.21 262.98
  L 408.50 262.97
  Q 436.26 263.22 464.01 262.95
  C 490.66 262.68 517.34 263.06 544.00 262.98
  C 545.65 262.98 547.29 262.61 548.97 262.45
  Z"
/>
<path fill="#4c4d4d" d="
  M 567.21 266.28
  L 565.79 267.75
  Q 565.44 268.11 564.97 267.91
  Q 561.86 266.56 558.51 267.60
  C 554.41 268.88 545.11 270.83 541.27 268.73
  Q 540.79 268.47 540.26 268.40
  Q 538.70 268.21 537.22 268.60
  A 0.28 0.28 0.0 0 1 536.90 268.21
  Q 536.95 268.10 537.01 267.99
  Q 537.09 267.82 537.26 267.77
  Q 540.93 266.55 544.23 264.57
  A 0.31 0.31 0.0 0 1 544.69 264.92
  Q 544.58 265.31 544.14 265.39
  A 0.22 0.22 0.0 0 0 544.18 265.83
  Q 545.13 265.85 545.79 265.21
  Q 546.09 264.93 546.50 264.88
  Q 547.44 264.77 548.34 265.06
  Q 548.83 265.22 548.88 264.71
  Q 548.90 264.53 548.81 264.29
  C 549.33 264.95 549.92 265.33 550.83 265.19
  Q 555.81 264.48 560.74 263.75
  Q 565.40 263.06 567.21 266.28
  Z"
/>
<path fill="#4c4d4d" d="
  M 110.85 268.44
  Q 108.69 268.71 106.56 268.06
  Q 105.76 266.77 105.94 265.44
  A 1.00 0.99 -81.5 0 1 107.08 264.59
  L 110.33 265.10
  A 1.00 0.98 -3.7 0 1 111.12 265.78
  Q 111.47 266.90 110.85 268.44
  Z"
/>
<path fill="#4c4d4d" d="
  M 241.97 281.71
  L 232.54 281.86
  Q 232.46 279.97 230.49 279.95
  Q 219.21 279.85 214.25 279.16
  C 206.85 278.14 199.27 277.90 191.95 276.60
  Q 189.13 276.09 186.28 275.77
  Q 176.75 274.68 167.25 273.38
  Q 159.95 272.38 157.37 271.69
  Q 156.88 271.56 156.37 271.63
  Q 154.90 271.83 153.64 271.05
  Q 152.74 270.50 153.79 270.62
  C 181.19 273.76 208.51 276.97 236.00 279.25
  Q 238.53 279.46 241.97 281.71
  Z"
/>
</svg>
