<?xml version="1.0" encoding="UTF-8" standalone="no"?>
<!DOCTYPE svg PUBLIC "-//W3C//DTD SVG 1.1//EN" "http://www.w3.org/Graphics/SVG/1.1/DTD/svg11.dtd">
<svg xmlns="http://www.w3.org/2000/svg" version="1.1" viewBox="0.00 0.00 500.00 500.00">
<g stroke-width="2.00" fill="none" stroke-linecap="butt">
<path stroke="#605955" vector-effect="non-scaling-stroke" d="
  M 258.75 96.94
  Q 248.49 90.45 234.77 94.07"
/>
<path stroke="#d7cbc5" vector-effect="non-scaling-stroke" d="
  M 234.77 94.07
  Q 234.83 87.94 235.78 79.50
  Q 235.89 78.56 234.68 78.39"
/>
<path stroke="#cdbfb8" vector-effect="non-scaling-stroke" d="
  M 241.97 61.66
  Q 242.36 61.72 242.35 62.00
  C 242.06 67.86 240.95 73.61 240.92 79.46
  Q 240.92 79.97 241.41 80.12
  Q 241.68 80.20 241.96 80.05
  Q 242.37 79.81 242.82 79.93
  L 244.78 80.42
  Q 245.22 80.54 245.21 81.00
  Q 245.17 82.96 245.89 84.75"
/>
<path stroke="#d7cbc5" vector-effect="non-scaling-stroke" d="
  M 245.89 84.75
  L 246.02 92.28
  Q 246.02 92.53 246.27 92.54
  L 246.52 92.55
  Q 247.01 92.57 247.06 92.09
  Q 247.75 85.12 246.22 78.27"
/>
<path stroke="#cdbfb8" vector-effect="non-scaling-stroke" d="
  M 246.22 78.27
  C 245.69 77.34 245.10 76.59 245.10 75.49
  C 245.08 70.77 245.61 65.34 244.50 60.74
  Q 244.22 59.58 242.75 59.91"
/>
<path stroke="#e4d9d4" vector-effect="non-scaling-stroke" d="
  M 246.22 78.27
  Q 245.29 78.09 245.40 79.26
  Q 245.66 81.95 245.89 84.75"
/>
<path stroke="#787371" vector-effect="non-scaling-stroke" d="
  M 234.77 94.07
  L 234.52 94.33"
/>
<path stroke="#9d9491" vector-effect="non-scaling-stroke" d="
  M 234.52 94.33
  Q 232.32 94.39 231.42 95.19
  Q 229.32 97.09 229.82 94.30
  Q 230.06 92.95 229.65 90.99"
/>
<path stroke="#58504c" vector-effect="non-scaling-stroke" d="
  M 258.76 102.99
  C 257.93 100.11 257.84 98.55 254.57 97.63"
/>
<path stroke="#605955" vector-effect="non-scaling-stroke" d="
  M 254.57 97.63
  L 250.94 96.61"
/>
<path stroke="#6e6764" vector-effect="non-scaling-stroke" d="
  M 250.94 96.61
  L 245.86 95.91"
/>
<path stroke="#605955" vector-effect="non-scaling-stroke" d="
  M 245.86 95.91
  L 235.48 96.88"
/>
<path stroke="#272221" vector-effect="non-scaling-stroke" d="
  M 234.52 94.33
  Q 234.55 95.29 234.57 96.25
  Q 234.59 96.97 235.48 96.88"
/>
<path stroke="#867975" vector-effect="non-scaling-stroke" d="
  M 235.48 96.88
  Q 234.97 97.01 234.77 97.45"
/>
<path stroke="#938884" vector-effect="non-scaling-stroke" d="
  M 234.77 97.45
  Q 234.00 97.34 233.28 97.97"
/>
<path stroke="#9d9491" vector-effect="non-scaling-stroke" d="
  M 233.28 97.97
  Q 229.10 98.98 229.68 103.77"
/>
<path stroke="#7e706c" vector-effect="non-scaling-stroke" d="
  M 229.68 103.77
  L 229.04 111.57"
/>
<path stroke="#b7a7a0" vector-effect="non-scaling-stroke" d="
  M 254.57 97.63
  L 255.04 100.70
  Q 255.12 101.16 255.39 101.54
  C 256.11 102.54 255.88 104.06 256.08 104.95
  Q 257.26 110.22 257.13 115.63
  Q 257.12 116.03 257.43 116.29
  Q 257.67 116.49 257.62 116.83
  Q 257.55 117.37 257.56 117.48
  C 258.07 123.94 257.64 132.29 257.67 136.71
  Q 257.71 142.46 257.82 148.22"
/>
<path stroke="#cdbfb8" vector-effect="non-scaling-stroke" d="
  M 250.94 96.61
  Q 251.40 98.38 252.76 100.75
  Q 253.90 102.73 253.89 105.31
  Q 253.89 105.80 254.11 106.23
  Q 254.43 106.83 254.60 108.00
  Q 255.76 115.96 255.89 119.28
  Q 255.90 119.37 255.99 119.39
  Q 256.13 119.41 256.27 119.53
  Q 256.37 119.62 256.38 119.75
  L 256.71 129.93
  Q 256.72 130.30 256.89 130.63
  Q 257.14 131.12 257.14 131.50
  Q 257.08 139.89 257.82 148.22"
/>
<path stroke="#c5b6af" vector-effect="non-scaling-stroke" d="
  M 257.82 148.22
  L 258.09 156.60
  Q 258.11 157.08 258.32 157.52
  Q 258.63 158.19 258.33 158.86
  Q 258.12 159.31 258.12 159.80
  L 258.16 164.51"
/>
<path stroke="#e4d9d4" vector-effect="non-scaling-stroke" d="
  M 258.16 164.51
  L 258.03 181.10
  Q 258.02 181.43 257.85 181.15
  Q 257.78 181.04 257.70 180.92
  Q 257.62 180.79 257.61 180.64
  L 256.14 145.00
  Q 256.14 144.89 256.02 144.87
  Q 255.90 144.86 255.76 144.78
  Q 255.71 144.75 255.71 144.69
  Q 255.07 132.28 254.10 127.50
  Q 253.19 123.02 253.12 121.00
  C 253.07 119.45 251.69 116.48 251.08 113.70
  C 250.77 112.27 249.74 111.86 248.89 111.01
  A 1.56 1.56 0.0 0 0 246.53 111.17
  Q 245.54 112.48 245.33 114.16
  Q 245.26 114.75 244.73 115.04
  Q 243.12 115.93 243.22 117.86
  A 1.43 1.38 62.4 0 1 242.96 118.74
  C 241.69 120.46 241.98 122.51 241.35 124.13
  Q 238.79 130.73 238.87 133.00
  Q 239.01 136.39 238.16 139.67
  C 237.81 140.99 238.19 142.74 236.82 143.98
  A 0.68 0.68 0.0 0 1 235.68 143.50
  C 235.49 135.38 236.15 126.99 235.45 118.91
  Q 235.08 114.59 234.68 110.27
  Q 234.14 104.46 234.46 98.60
  Q 234.48 98.11 233.99 98.05
  L 233.28 97.97"
/>
<path stroke="#cdbfb8" vector-effect="non-scaling-stroke" d="
  M 245.86 95.91
  Q 239.98 100.05 237.69 108.76
  Q 237.66 108.89 237.52 108.89
  Q 237.38 108.89 237.25 108.89
  Q 236.90 108.89 236.84 108.54
  L 235.28 98.55
  Q 235.20 98.07 234.92 97.67
  L 234.77 97.45"
/>
<path stroke="#cfc2bc" vector-effect="non-scaling-stroke" d="
  M 258.70 169.57
  L 258.16 164.51"
/>
<path stroke="#787371" vector-effect="non-scaling-stroke" d="
  M 258.84 185.44
  C 254.62 179.69 250.83 170.15 243.76 167.00
  C 238.87 164.83 234.75 168.59 232.56 172.75"
/>
<path stroke="#d7cbc5" vector-effect="non-scaling-stroke" d="
  M 232.56 172.75
  Q 231.00 171.53 232.73 168.86
  A 1.71 1.65 -29.5 0 0 233.00 167.95
  C 233.03 158.55 232.26 149.23 232.13 139.83
  Q 232.12 139.19 231.74 138.26
  C 231.28 137.13 231.48 136.02 231.04 134.92
  C 230.07 132.46 230.15 128.53 230.08 124.29"
/>
<path stroke="#cfc2bc" vector-effect="non-scaling-stroke" d="
  M 230.08 124.29
  L 229.68 103.77"
/>
<path stroke="#b7a7a0" vector-effect="non-scaling-stroke" d="
  M 230.08 124.29
  Q 229.78 152.14 229.87 171.00
  Q 229.88 173.30 230.51 176.60"
/>
<path stroke="#58504c" vector-effect="non-scaling-stroke" d="
  M 230.51 176.60
  Q 230.12 177.74 229.35 179.48
  Q 228.95 180.40 228.92 181.08
  Q 228.85 182.73 229.90 182.60"
/>
<path stroke="#cfc2bc" vector-effect="non-scaling-stroke" d="
  M 229.90 182.60
  Q 230.11 182.84 229.91 183.35
  A 0.35 0.32 -47.9 0 0 229.91 183.60
  Q 230.10 184.03 230.75 183.80"
/>
<path stroke="#58504c" vector-effect="non-scaling-stroke" d="
  M 230.75 183.80
  C 230.04 185.10 228.62 188.10 228.97 189.48
  Q 229.33 190.88 230.04 189.97"
/>
<path stroke="#cfc2bc" vector-effect="non-scaling-stroke" d="
  M 230.04 189.97
  Q 230.37 200.28 230.37 210.48
  C 230.38 212.80 229.94 215.15 229.74 217.54"
/>
<path stroke="#58504c" vector-effect="non-scaling-stroke" d="
  M 229.74 217.54
  L 229.01 216.23
  Q 228.63 215.55 228.67 216.32
  Q 228.80 219.65 230.24 222.43"
/>
<path stroke="#cfc2bc" vector-effect="non-scaling-stroke" d="
  M 230.24 222.43
  Q 229.54 223.05 230.41 225.01"
/>
<path stroke="#b7a7a0" vector-effect="non-scaling-stroke" d="
  M 230.41 225.01
  Q 229.83 228.77 229.83 234.00
  Q 229.81 255.01 230.01 276.06"
/>
<path stroke="#cfc2bc" vector-effect="non-scaling-stroke" d="
  M 230.01 276.06
  Q 230.03 282.15 229.58 288.26
  Q 229.37 291.11 229.62 299.00
  Q 229.77 303.72 228.96 310.16"
/>
<path stroke="#58504c" vector-effect="non-scaling-stroke" d="
  M 228.96 310.16
  Q 227.34 310.64 228.55 313.58"
/>
<path stroke="#cfc2bc" vector-effect="non-scaling-stroke" d="
  M 228.55 313.58
  Q 229.99 316.18 228.52 317.45"
/>
<path stroke="#58504c" vector-effect="non-scaling-stroke" d="
  M 228.52 317.45
  Q 227.77 318.32 228.35 321.04"
/>
<path stroke="#b7a7a0" vector-effect="non-scaling-stroke" d="
  M 228.35 321.04
  Q 228.85 323.42 228.12 325.73
  Q 227.07 329.05 226.94 329.94
  Q 225.60 339.67 223.14 349.55"
/>
<path stroke="#cfc2bc" vector-effect="non-scaling-stroke" d="
  M 223.14 349.55
  L 223.17 297.24"
/>
<path stroke="#58504c" vector-effect="non-scaling-stroke" d="
  M 223.17 297.24
  Q 222.84 297.10 222.52 296.97"
/>
<path stroke="#cfc2bc" vector-effect="non-scaling-stroke" d="
  M 222.52 296.97
  Q 223.17 296.84 223.26 296.30"
/>
<path stroke="#58504c" vector-effect="non-scaling-stroke" d="
  M 223.26 296.30
  Q 224.35 296.34 225.16 295.61
  Q 225.61 295.21 225.92 295.73
  Q 226.15 296.10 226.74 295.99
  Q 227.05 295.94 227.04 295.62
  L 227.02 295.25
  Q 227.01 294.87 226.63 294.82
  L 223.39 294.36"
/>
<path stroke="#cfc2bc" vector-effect="non-scaling-stroke" d="
  M 223.39 294.36
  L 220.45 284.29"
/>
<path stroke="#605955" vector-effect="non-scaling-stroke" d="
  M 232.56 172.75
  L 230.51 176.60"
/>
<path stroke="#58504c" vector-effect="non-scaling-stroke" d="
  M 259.31 188.30
  Q 259.06 188.41 258.96 188.77
  Q 258.89 188.98 258.68 188.91
  Q 258.53 188.86 258.41 188.77"
/>
<path stroke="#787371" vector-effect="non-scaling-stroke" d="
  M 258.41 188.77
  C 255.68 183.07 247.15 166.22 239.06 168.63
  C 234.02 170.13 230.73 177.83 229.90 182.60"
/>
<path stroke="#787371" vector-effect="non-scaling-stroke" d="
  M 223.39 294.36
  Q 223.04 295.27 223.26 296.30"
/>
<path stroke="#787371" vector-effect="non-scaling-stroke" d="
  M 222.52 296.97
  Q 222.09 296.31 221.25 296.26
  Q 213.07 295.74 208.00 296.04
  Q 207.79 296.05 207.67 296.28"
/>
<path stroke="#d7cbc5" vector-effect="non-scaling-stroke" d="
  M 207.67 296.28
  L 206.99 296.32"
/>
<path stroke="#787371" vector-effect="non-scaling-stroke" d="
  M 206.99 296.32
  Q 206.53 295.60 205.27 295.76"
/>
<path stroke="#787371" vector-effect="non-scaling-stroke" d="
  M 258.92 211.40
  C 256.08 210.76 246.62 234.90 235.82 226.92
  Q 231.28 223.57 229.74 217.54"
/>
<path stroke="#58504c" vector-effect="non-scaling-stroke" d="
  M 259.18 212.67
  Q 259.00 216.59 258.42 215.23"
/>
<path stroke="#787371" vector-effect="non-scaling-stroke" d="
  M 258.42 215.23
  Q 254.30 219.46 250.91 223.69
  C 245.57 230.35 238.58 234.04 232.58 225.48
  Q 231.50 223.93 230.24 222.43"
/>
<path stroke="#cdbfb8" vector-effect="non-scaling-stroke" d="
  M 208.62 297.80
  Q 208.40 304.68 208.63 308.25
  Q 209.37 320.04 211.59 339.98
  Q 212.29 346.24 212.78 352.54
  Q 212.89 353.90 213.44 356.40
  C 214.13 359.57 213.92 363.60 214.26 366.14
  C 214.59 368.67 214.66 371.06 215.27 373.65
  C 215.72 375.60 215.62 378.05 215.73 379.43
  C 216.66 391.47 216.08 402.73 216.88 413.75
  Q 216.99 415.29 217.46 417.11
  C 218.03 419.28 217.66 421.41 218.35 423.64
  Q 218.51 424.15 219.03 424.05
  Q 219.27 424.00 219.48 423.85
  Q 219.78 423.62 219.88 423.03
  Q 220.18 421.36 220.80 419.78
  Q 221.53 417.97 221.64 416.57
  C 222.06 411.19 222.75 405.78 222.78 400.47
  Q 222.89 378.47 222.92 356.46"
/>
<path stroke="#d7cbc5" vector-effect="non-scaling-stroke" d="
  M 222.92 356.46
  L 223.14 349.55"
/>
<path stroke="#605955" vector-effect="non-scaling-stroke" d="
  M 228.35 321.04
  Q 228.98 320.90 229.46 321.02"
/>
<path stroke="#cdbfb8" vector-effect="non-scaling-stroke" d="
  M 229.46 321.02
  Q 228.53 321.83 229.02 323.05
  Q 229.20 323.51 229.13 323.99
  Q 228.71 327.28 229.09 331.75
  Q 229.63 338.00 228.15 345.25
  Q 227.86 346.65 228.37 349.49
  Q 228.45 349.94 228.18 350.32
  Q 227.52 351.22 228.35 352.07
  A 0.78 0.78 0.0 0 1 228.54 352.82
  Q 228.36 353.51 227.86 353.63
  Q 227.39 353.75 227.19 354.18
  Q 226.57 355.51 226.17 356.89
  C 225.91 357.82 226.19 358.59 227.10 358.91
  Q 227.71 359.12 228.02 358.56
  Q 229.49 355.92 231.76 353.99
  A 1.13 1.13 0.0 0 0 232.16 352.99
  Q 231.78 349.25 233.19 345.77
  Q 233.36 345.34 233.76 345.11
  Q 234.00 344.97 234.13 344.72
  Q 234.44 344.12 234.66 344.76
  C 235.33 346.80 235.75 348.65 236.48 350.99
  C 237.31 353.61 236.99 356.26 237.39 358.76
  Q 237.68 360.54 237.84 362.36
  Q 237.89 362.91 238.38 363.17
  Q 238.84 363.41 238.58 364.10
  Q 238.46 364.40 238.15 364.36
  Q 237.30 364.27 236.56 364.60
  Q 236.04 364.84 235.98 365.42
  L 235.04 374.95"
/>
<path stroke="#b7a7a0" vector-effect="non-scaling-stroke" d="
  M 235.04 374.95
  Q 234.48 374.69 234.14 375.42
  C 232.23 379.60 232.90 383.62 232.27 387.79
  C 231.71 391.48 231.82 395.94 229.72 399.21
  C 227.38 402.86 227.78 406.20 227.26 410.02
  C 226.66 414.49 226.96 418.83 226.41 423.28
  Q 226.40 423.36 226.29 423.37
  Q 226.24 423.38 226.19 423.39
  A 0.53 0.22 -81.4 0 0 225.96 423.77
  L 224.85 428.36
  Q 224.74 428.81 224.28 428.85
  Q 223.16 428.94 222.82 429.99
  Q 222.40 431.30 222.70 431.84"
/>
<path stroke="#605955" vector-effect="non-scaling-stroke" d="
  M 222.70 431.84
  Q 220.09 433.71 217.05 434.28"
/>
<path stroke="#867975" vector-effect="non-scaling-stroke" d="
  M 217.05 434.28
  Q 216.12 434.50 215.61 434.32"
/>
<path stroke="#605955" vector-effect="non-scaling-stroke" d="
  M 215.61 434.32
  L 211.66 434.19"
/>
<path stroke="#b7a7a0" vector-effect="non-scaling-stroke" d="
  M 211.66 434.19
  Q 211.07 433.84 211.93 432.75
  Q 212.28 432.32 212.24 431.76
  L 207.63 375.74
  A 1.36 1.33 -66.1 0 0 207.37 375.04
  C 206.17 373.44 206.87 371.67 206.51 369.88
  Q 206.18 368.21 206.16 367.57
  Q 205.67 349.29 205.76 331.00
  C 205.77 329.32 205.30 327.57 205.34 326.00
  Q 205.53 318.87 205.18 311.76"
/>
<path stroke="#787371" vector-effect="non-scaling-stroke" d="
  M 223.17 297.24
  L 211.63 297.78"
/>
<path stroke="#6e6764" vector-effect="non-scaling-stroke" d="
  M 211.63 297.78
  L 208.62 297.80"
/>
<path stroke="#605955" vector-effect="non-scaling-stroke" d="
  M 208.62 297.80
  Q 206.98 297.81 207.67 296.28"
/>
<path stroke="#787371" vector-effect="non-scaling-stroke" d="
  M 258.97 197.34
  C 255.87 191.25 245.15 169.33 235.72 178.47
  Q 231.12 182.94 230.04 189.97"
/>
<path stroke="#6e6764" vector-effect="non-scaling-stroke" d="
  M 231.33 318.09
  Q 231.72 319.50 231.51 320.76
  Q 231.43 321.26 230.92 321.20
  L 229.46 321.02"
/>
<path stroke="#e4d9d4" vector-effect="non-scaling-stroke" d="
  M 222.92 356.46
  Q 222.63 357.12 222.02 357.16
  Q 221.50 357.20 221.36 356.70
  Q 219.95 352.06 219.43 347.25
  C 219.12 344.42 218.96 340.00 217.51 337.54
  Q 217.30 337.18 217.36 336.77
  Q 217.70 334.43 216.25 332.67
  Q 215.98 332.35 215.91 331.94
  C 215.75 330.97 216.08 330.13 215.90 329.28
  Q 214.15 321.11 213.90 312.75
  Q 213.81 309.61 211.63 297.78"
/>
<path stroke="#cfc2bc" vector-effect="non-scaling-stroke" d="
  M 258.41 188.77
  Q 257.96 191.12 259.03 191.29"
/>
<path stroke="#787371" vector-effect="non-scaling-stroke" d="
  M 259.42 195.01
  Q 256.98 189.86 253.53 184.70
  C 246.46 174.13 238.05 168.47 230.75 183.80"
/>
<path stroke="#d7cbc5" vector-effect="non-scaling-stroke" d="
  M 258.78 228.78
  L 257.79 280.97
  Q 257.79 281.17 257.99 281.18
  Q 258.13 281.18 258.29 281.18
  Q 258.65 281.19 258.80 280.87
  L 259.97 278.26"
/>
<path stroke="#d7cbc5" vector-effect="non-scaling-stroke" d="
  M 279.51 293.51
  Q 279.41 294.67 279.05 294.56"
/>
<path stroke="#787371" vector-effect="non-scaling-stroke" d="
  M 279.05 294.56
  L 273.49 294.71
  Q 272.96 294.73 272.77 295.23
  L 272.59 295.70
  Q 272.39 296.22 271.84 296.23
  L 254.53 296.61"
/>
<path stroke="#d7cbc5" vector-effect="non-scaling-stroke" d="
  M 254.53 296.61
  L 254.59 300.72"
/>
<path stroke="#cfc2bc" vector-effect="non-scaling-stroke" d="
  M 254.59 300.72
  L 252.72 309.34
  A 2.34 2.33 12.4 0 1 249.93 311.12
  Q 248.77 310.86 247.45 311.19"
/>
<path stroke="#787371" vector-effect="non-scaling-stroke" d="
  M 247.45 311.19
  L 236.48 310.89
  A 0.41 0.41 0.0 0 0 236.06 311.30
  L 236.10 313.72
  Q 236.11 314.15 236.54 314.15
  L 247.54 314.05"
/>
<path stroke="#d7cbc5" vector-effect="non-scaling-stroke" d="
  M 247.54 314.05
  L 249.78 314.12
  A 0.64 0.64 0.0 0 1 250.40 314.82
  L 250.06 318.05
  Q 249.97 318.84 249.21 318.60
  Q 247.76 318.13 245.28 318.69"
/>
<path stroke="#787371" vector-effect="non-scaling-stroke" d="
  M 245.28 318.69
  L 236.10 318.49"
/>
<path stroke="#e4d9d4" vector-effect="non-scaling-stroke" d="
  M 236.10 318.49
  L 231.33 318.09"
/>
<path stroke="#787371" vector-effect="non-scaling-stroke" d="
  M 231.33 318.09
  Q 229.94 318.21 228.52 317.45"
/>
<path stroke="#787371" vector-effect="non-scaling-stroke" d="
  M 228.55 313.58
  L 231.06 313.79
  Q 231.63 313.83 231.62 313.26
  L 231.60 311.49
  Q 231.59 310.80 230.92 310.64
  L 228.96 310.16"
/>
<path stroke="#d7cbc5" vector-effect="non-scaling-stroke" d="
  M 230.01 276.06
  Q 231.15 269.94 230.87 263.81
  Q 230.86 263.63 230.99 263.51
  L 231.31 263.19
  Q 231.42 263.07 231.42 262.91
  L 231.26 226.53
  A 0.51 0.49 -74.2 0 0 231.05 226.14
  Q 230.49 225.76 230.41 225.01"
/>
<path stroke="#605955" vector-effect="non-scaling-stroke" d="
  M 206.99 296.32
  Q 207.47 297.34 206.48 297.62
  Q 205.92 297.78 205.39 297.71"
/>
<path stroke="#cfc2bc" vector-effect="non-scaling-stroke" d="
  M 258.76 221.46
  L 258.42 215.23"
/>
<path stroke="#272221" vector-effect="non-scaling-stroke" d="
  M 215.61 434.32
  Q 214.75 437.76 215.67 441.03"
/>
<path stroke="#58504c" vector-effect="non-scaling-stroke" d="
  M 211.66 434.19
  Q 209.60 434.51 206.98 433.59"
/>
<path stroke="#7e706c" vector-effect="non-scaling-stroke" d="
  M 206.98 433.59
  Q 203.99 432.87 204.31 429.62
  C 205.62 416.22 203.77 402.48 205.08 389.01
  Q 205.12 388.59 204.76 388.38
  L 204.51 388.23"
/>
<path stroke="#272221" vector-effect="non-scaling-stroke" d="
  M 217.05 440.78
  Q 218.17 436.94 217.05 434.28"
/>
<path stroke="#6e6764" vector-effect="non-scaling-stroke" d="
  M 236.10 318.49
  Q 235.46 321.97 236.91 321.67"
/>
<path stroke="#e4d9d4" vector-effect="non-scaling-stroke" d="
  M 236.91 321.67
  Q 236.22 321.70 235.83 321.95
  A 0.34 0.34 0.0 0 0 235.89 322.56
  Q 237.90 323.34 240.07 323.08
  Q 240.62 323.02 240.72 323.57
  L 245.36 348.93
  Q 245.40 349.14 245.61 349.14
  Q 245.86 349.13 246.08 349.14
  Q 246.40 349.15 246.41 348.82
  L 246.71 324.57
  Q 246.72 324.08 246.98 323.66
  Q 247.71 322.51 246.53 321.69"
/>
<path stroke="#6e6764" vector-effect="non-scaling-stroke" d="
  M 246.53 321.69
  Q 247.14 321.47 247.95 321.49"
/>
<path stroke="#e4d9d4" vector-effect="non-scaling-stroke" d="
  M 240.55 374.98
  L 241.69 366.23
  Q 241.84 365.13 240.73 365.13
  L 237.49 365.13
  Q 236.38 365.13 236.25 366.24
  L 235.10 376.51"
/>
<path stroke="#c5b6af" vector-effect="non-scaling-stroke" d="
  M 235.10 376.51
  L 235.04 374.95"
/>
<path stroke="#7e706c" vector-effect="non-scaling-stroke" d="
  M 235.82 434.46
  L 235.86 484.65"
/>
<path stroke="#58504c" vector-effect="non-scaling-stroke" d="
  M 230.25 439.51
  L 230.12 434.74
  Q 230.11 434.23 229.62 434.07
  L 222.70 431.84"
/>
<path stroke="#b7a7a0" vector-effect="non-scaling-stroke" d="
  M 291.51 405.21
  Q 290.18 404.78 290.18 405.75
  Q 290.16 421.97 290.11 438.31
  Q 290.11 438.56 289.86 438.56
  L 289.52 438.56
  Q 289.39 438.57 289.37 438.44
  L 288.92 434.90
  Q 288.86 434.44 288.40 434.41
  L 275.90 433.70
  Q 275.43 433.67 275.07 433.98
  Q 274.39 434.55 273.47 434.07
  Q 273.09 433.88 273.09 433.45
  L 273.12 370.50"
/>
<path stroke="#d7cbc5" vector-effect="non-scaling-stroke" d="
  M 273.12 370.50
  Q 273.35 372.65 274.22 374.55
  A 0.58 0.58 0.0 0 0 274.73 374.89
  Q 274.87 374.89 275.00 374.87
  Q 275.53 374.81 275.55 374.28
  L 276.79 350.01
  Q 276.80 349.98 276.85 349.95
  Q 276.89 349.92 276.94 349.90
  Q 277.13 349.83 277.13 349.70
  C 277.12 346.23 277.13 343.53 277.44 339.44
  C 278.09 330.72 277.95 321.56 277.88 316.50
  Q 277.87 315.99 278.10 315.46
  A 0.49 0.41 -39.7 0 0 278.13 315.30
  L 278.13 297.74
  Q 278.13 297.38 278.38 297.13
  L 278.62 296.88
  A 0.15 0.15 0.0 0 0 278.55 296.63
  Q 278.26 296.57 278.26 296.40"
/>
<path stroke="#605955" vector-effect="non-scaling-stroke" d="
  M 278.26 296.40
  Q 279.76 296.22 279.62 295.25
  Q 279.58 294.97 279.05 294.56"
/>
<path stroke="#605955" vector-effect="non-scaling-stroke" d="
  M 252.51 434.86
  L 241.13 435.47"
/>
<path stroke="#867975" vector-effect="non-scaling-stroke" d="
  M 241.13 435.47
  L 235.82 434.46"
/>
<path stroke="#b7a7a0" vector-effect="non-scaling-stroke" d="
  M 235.82 434.46
  Q 236.00 429.73 235.60 427.75
  Q 234.48 422.25 234.99 416.56"
/>
<path stroke="#d7cbc5" vector-effect="non-scaling-stroke" d="
  M 234.99 416.56
  Q 235.13 416.50 235.32 416.32
  A 1.35 1.35 0.0 0 0 235.72 415.52
  L 240.55 374.98"
/>
<path stroke="#cdbfb8" vector-effect="non-scaling-stroke" d="
  M 240.55 374.98
  Q 241.21 373.41 241.26 371.48
  Q 241.26 371.37 241.37 371.37
  L 241.63 371.37
  Q 241.67 371.37 241.67 371.42
  C 241.59 375.06 240.88 378.74 240.88 382.16
  C 240.88 384.50 240.36 389.61 241.22 391.61
  Q 241.42 392.06 241.38 392.55
  Q 241.15 395.77 241.93 398.84
  C 242.20 399.95 241.91 401.31 242.72 402.42
  Q 243.02 402.83 243.20 403.30
  L 246.12 410.97
  Q 246.43 411.79 246.76 410.98
  Q 247.76 408.49 247.56 405.82
  Q 247.53 405.41 247.66 405.02
  Q 248.03 403.95 248.13 402.50
  Q 248.75 393.31 248.86 386.76
  Q 249.02 377.13 249.35 367.50
  Q 249.53 362.34 249.07 354.82
  C 248.46 344.98 248.74 335.45 248.33 325.75
  Q 248.27 324.39 249.17 323.39
  A 1.07 1.07 0.0 0 0 248.61 321.63
  L 247.95 321.49"
/>
<path stroke="#605955" vector-effect="non-scaling-stroke" d="
  M 247.95 321.49
  Q 249.03 320.51 248.38 319.62
  Q 247.41 318.32 245.28 318.69"
/>
<path stroke="#58504c" vector-effect="non-scaling-stroke" d="
  M 253.97 309.85
  Q 251.02 310.82 252.12 314.04
  A 0.80 0.79 -5.8 0 0 252.78 314.57
  L 254.33 314.76"
/>
<path stroke="#58504c" vector-effect="non-scaling-stroke" d="
  M 254.19 318.26
  Q 253.38 317.82 252.55 317.78
  Q 252.03 317.76 251.93 318.28
  Q 251.12 322.61 254.45 321.77"
/>
<path stroke="#58504c" vector-effect="non-scaling-stroke" d="
  M 270.50 439.98
  Q 270.18 438.90 270.26 437.92
  A 0.50 0.50 0.0 0 0 269.66 437.39
  Q 265.04 438.32 260.32 437.75"
/>
<path stroke="#7e706c" vector-effect="non-scaling-stroke" d="
  M 260.32 437.75
  L 258.81 437.56"
/>
<path stroke="#58504c" vector-effect="non-scaling-stroke" d="
  M 258.81 437.56
  Q 256.31 436.95 254.58 435.24
  A 1.44 1.43 70.9 0 0 253.74 434.83
  Q 252.78 434.70 252.51 434.86"
/>
<path stroke="#b7a7a0" vector-effect="non-scaling-stroke" d="
  M 252.51 434.86
  Q 251.74 432.86 251.87 430.52
  Q 252.06 426.89 252.24 423.24
  Q 252.39 420.16 249.80 418.76
  Q 249.34 418.51 249.36 417.99
  Q 249.73 402.74 250.21 387.50
  Q 250.22 387.09 250.36 386.80
  Q 250.52 386.45 250.53 386.06
  L 250.91 355.42
  Q 250.91 354.91 250.67 354.45
  Q 250.29 353.76 250.36 352.75
  C 250.64 348.44 249.61 343.72 249.62 339.75
  Q 249.62 332.30 249.62 324.83
  Q 249.61 324.35 249.96 324.01
  Q 250.58 323.39 250.63 322.81
  Q 250.88 320.05 250.92 312.50
  Q 250.93 312.15 250.58 312.12
  Q 250.44 312.11 250.30 312.20
  Q 250.15 312.30 250.03 312.65
  Q 249.54 314.06 247.83 313.75"
/>
<path stroke="#58504c" vector-effect="non-scaling-stroke" d="
  M 247.83 313.75
  Q 248.18 312.84 247.45 311.19"
/>
<path stroke="#605955" vector-effect="non-scaling-stroke" d="
  M 247.83 313.75
  Q 247.52 313.77 247.54 314.05"
/>
<path stroke="#787371" vector-effect="non-scaling-stroke" d="
  M 246.53 321.69
  L 236.91 321.67"
/>
<path stroke="#787371" vector-effect="non-scaling-stroke" d="
  M 278.26 296.40
  Q 272.70 295.76 272.76 297.84"
/>
<path stroke="#605955" vector-effect="non-scaling-stroke" d="
  M 272.76 297.84
  Q 272.30 298.21 271.02 298.18"
/>
<path stroke="#787371" vector-effect="non-scaling-stroke" d="
  M 271.02 298.18
  L 256.97 298.21"
/>
<path stroke="#605955" vector-effect="non-scaling-stroke" d="
  M 256.97 298.21
  Q 256.89 297.72 256.71 297.45
  A 0.49 0.49 0.0 0 0 255.92 297.41
  L 255.70 297.68
  Q 255.24 298.24 254.95 297.58
  L 254.53 296.61"
/>
<path stroke="#d7cbc5" vector-effect="non-scaling-stroke" d="
  M 256.97 298.21
  Q 256.09 298.46 256.41 299.27
  Q 255.71 303.50 256.90 307.40
  Q 257.99 310.96 258.15 312.61
  Q 259.26 323.93 260.18 335.27
  C 260.39 337.91 261.25 340.41 261.85 343.00
  Q 261.67 343.51 262.06 343.81
  Q 262.41 344.08 262.44 344.51
  Q 262.76 348.29 263.31 352.05
  C 263.44 352.90 264.04 353.32 264.07 354.29
  Q 264.15 357.48 265.58 359.19
  Q 267.13 361.06 267.17 358.63
  Q 267.19 356.72 268.18 354.98
  Q 268.44 354.52 268.45 353.99
  Q 268.47 353.15 268.87 352.39
  A 1.20 1.16 50.1 0 0 268.94 351.47
  Q 268.67 350.63 269.08 349.94
  Q 269.31 349.53 269.36 349.06
  Q 269.70 345.16 269.98 341.27
  Q 271.46 319.99 271.73 298.67
  Q 271.73 298.30 271.37 298.23
  Q 271.19 298.20 271.02 298.18"
/>
<path stroke="#b7a7a0" vector-effect="non-scaling-stroke" d="
  M 273.11 349.22
  Q 272.88 349.08 272.81 348.61
  Q 272.71 347.95 272.28 348.47
  Q 272.00 348.83 272.08 349.35
  Q 272.18 350.02 272.18 350.17
  Q 271.76 364.82 271.89 379.47
  Q 271.90 379.61 271.78 379.73
  Q 271.72 379.79 271.67 379.86
  Q 271.59 379.98 271.60 380.16
  C 271.98 392.74 270.19 405.90 269.72 418.79
  C 269.66 420.54 268.95 422.29 268.48 423.99
  C 267.83 426.36 268.15 428.32 265.99 430.41
  A 0.74 0.74 0.0 0 1 264.87 430.31
  C 263.15 427.85 264.02 425.08 262.52 422.17
  Q 261.79 420.75 261.62 419.68
  C 261.36 418.07 261.63 415.94 260.40 414.73
  Q 260.07 414.40 260.09 413.94
  Q 260.29 409.59 258.93 405.51
  C 257.87 402.30 257.99 398.97 257.48 395.40
  C 257.26 393.90 257.43 392.39 257.35 390.86
  Q 257.33 390.44 257.60 390.10
  A 0.90 0.88 55.4 0 0 257.75 389.25
  Q 256.56 385.73 256.21 382.02
  C 256.05 380.34 255.17 378.75 255.13 377.01
  Q 254.65 354.99 254.45 321.77"
/>
<path stroke="#605955" vector-effect="non-scaling-stroke" d="
  M 254.45 321.77
  Q 254.73 319.63 254.19 318.26"
/>
<path stroke="#b7a7a0" vector-effect="non-scaling-stroke" d="
  M 254.19 318.26
  L 254.33 314.76"
/>
<path stroke="#605955" vector-effect="non-scaling-stroke" d="
  M 254.33 314.76
  Q 254.85 312.61 253.97 309.85"
/>
<path stroke="#b7a7a0" vector-effect="non-scaling-stroke" d="
  M 253.97 309.85
  L 255.60 300.28
  Q 255.75 299.38 255.24 300.13
  Q 254.93 300.58 254.59 300.72"
/>
<path stroke="#272221" vector-effect="non-scaling-stroke" d="
  M 206.98 433.59
  L 206.82 438.82
  A 1.77 1.77 0.0 0 0 208.23 440.60
  L 212.96 441.59"
/>
<path stroke="#cfc2bc" vector-effect="non-scaling-stroke" d="
  M 234.99 416.56
  L 230.97 416.29
  Q 230.32 416.25 230.40 415.60
  L 235.10 376.51"
/>
<path stroke="#272221" vector-effect="non-scaling-stroke" d="
  M 241.13 435.47
  Q 241.24 442.41 239.81 449.05"
/>
<path stroke="#cfc2bc" vector-effect="non-scaling-stroke" d="
  M 273.12 370.50
  L 273.11 349.22"
/>
<path stroke="#d7cbc5" vector-effect="non-scaling-stroke" d="
  M 273.11 349.22
  L 272.76 297.84"
/>
<path stroke="#272221" vector-effect="non-scaling-stroke" d="
  M 258.81 437.56
  Q 258.12 438.44 258.57 439.31
  Q 258.78 439.73 258.84 440.20
  L 259.33 444.23"
/>
<path stroke="#272221" vector-effect="non-scaling-stroke" d="
  M 260.32 437.75
  L 260.39 444.55"
/>
<path stroke="#d7cbc5" vector-effect="non-scaling-stroke" d="
  M 231.3862 272.5845
  A 0.26 0.26 0.0 0 0 231.1538 272.2996
  L 231.1339 272.2976
  A 0.26 0.26 0.0 0 0 230.8490 272.5299
  L 229.7738 283.1155
  A 0.26 0.26 0.0 0 0 230.0062 283.4004
  L 230.0261 283.4024
  A 0.26 0.26 0.0 0 0 230.3110 283.1701
  L 231.3862 272.5845"
/>
<path stroke="#272221" vector-effect="non-scaling-stroke" d="
  M 226.20 434.68
  Q 226.02 435.45 226.50 436.01
  A 0.26 0.26 0.0 0 0 226.94 435.94
  Q 227.28 435.17 226.80 434.55
  Q 226.37 434.00 226.20 434.68"
/>
<path stroke="#272221" vector-effect="non-scaling-stroke" d="
  M 253.2275 438.9200
  A 1.43 0.31 90.1 0 0 253.5400 437.4905
  A 1.43 0.31 90.1 0 0 253.2325 436.0600
  A 1.43 0.31 90.1 0 0 252.9200 437.4895
  A 1.43 0.31 90.1 0 0 253.2275 438.9200"
/>
</g>
<path fill="#bfb0a9" d="
  M 258.75 96.94
  Q 248.49 90.45 234.77 94.07
  Q 234.83 87.94 235.78 79.50
  Q 235.89 78.56 234.68 78.39
  L 241.97 61.66
  Q 242.36 61.72 242.35 62.00
  C 242.06 67.86 240.95 73.61 240.92 79.46
  Q 240.92 79.97 241.41 80.12
  Q 241.68 80.20 241.96 80.05
  Q 242.37 79.81 242.82 79.93
  L 244.78 80.42
  Q 245.22 80.54 245.21 81.00
  Q 245.17 82.96 245.89 84.75
  L 246.02 92.28
  Q 246.02 92.53 246.27 92.54
  L 246.52 92.55
  Q 247.01 92.57 247.06 92.09
  Q 247.75 85.12 246.22 78.27
  C 245.69 77.34 245.10 76.59 245.10 75.49
  C 245.08 70.77 245.61 65.34 244.50 60.74
  Q 244.22 59.58 242.75 59.91
  C 242.91 59.28 243.30 58.65 243.30 58.00
  Q 243.20 43.03 243.40 26.14
  Q 243.40 25.71 243.82 25.76
  L 244.09 25.78
  Q 244.75 25.85 244.75 26.51
  Q 244.73 41.43 244.77 56.38
  Q 244.77 59.00 245.78 61.43
  Q 251.87 76.15 258.05 90.81
  Q 258.68 92.30 258.74 93.82
  Q 258.81 95.58 258.75 96.94
  Z"
/>
<path fill="#dacdc7" d="
  M 242.75 59.91
  Q 244.22 59.58 244.50 60.74
  C 245.61 65.34 245.08 70.77 245.10 75.49
  C 245.10 76.59 245.69 77.34 246.22 78.27
  Q 245.29 78.09 245.40 79.26
  Q 245.66 81.95 245.89 84.75
  Q 245.17 82.96 245.21 81.00
  Q 245.22 80.54 244.78 80.42
  L 242.82 79.93
  Q 242.37 79.81 241.96 80.05
  Q 241.68 80.20 241.41 80.12
  Q 240.92 79.97 240.92 79.46
  C 240.95 73.61 242.06 67.86 242.35 62.00
  Q 242.36 61.72 241.97 61.66
  Q 242.18 60.65 242.75 59.91
  Z"
/>
<path fill="#eee5e0" d="
  M 246.22 78.27
  Q 247.75 85.12 247.06 92.09
  Q 247.01 92.57 246.52 92.55
  L 246.27 92.54
  Q 246.02 92.53 246.02 92.28
  L 245.89 84.75
  Q 245.66 81.95 245.40 79.26
  Q 245.29 78.09 246.22 78.27
  Z"
/>
<path fill="#eee5e0" d="
  M 234.68 78.39
  Q 235.89 78.56 235.78 79.50
  Q 234.83 87.94 234.77 94.07
  L 234.52 94.33
  Q 232.32 94.39 231.42 95.19
  Q 229.32 97.09 229.82 94.30
  Q 230.06 92.95 229.65 90.99
  L 234.68 78.39
  Z"
/>
<path fill="#4c4241" d="
  M 229.65 90.99
  Q 230.06 92.95 229.82 94.30
  Q 229.32 97.09 231.42 95.19
  Q 232.32 94.39 234.52 94.33
  Q 234.55 95.29 234.57 96.25
  Q 234.59 96.97 235.48 96.88
  Q 234.97 97.01 234.77 97.45
  Q 234.00 97.34 233.28 97.97
  Q 229.10 98.98 229.68 103.77
  L 229.04 111.57
  Q 229.05 108.27 229.08 105.00
  C 229.10 103.08 228.32 101.15 228.50 99.00
  Q 228.85 94.82 229.65 90.99
  Z"
/>
<path fill="#010101" d="
  M 258.75 96.94
  Q 259.75 100.59 258.76 102.99
  C 257.93 100.11 257.84 98.55 254.57 97.63
  L 250.94 96.61
  L 245.86 95.91
  L 235.48 96.88
  Q 234.59 96.97 234.57 96.25
  Q 234.55 95.29 234.52 94.33
  L 234.77 94.07
  Q 248.49 90.45 258.75 96.94
  Z"
/>
<path fill="#bfb0a9" d="
  M 245.86 95.91
  Q 239.98 100.05 237.69 108.76
  Q 237.66 108.89 237.52 108.89
  Q 237.38 108.89 237.25 108.89
  Q 236.90 108.89 236.84 108.54
  L 235.28 98.55
  Q 235.20 98.07 234.92 97.67
  L 234.77 97.45
  Q 234.97 97.01 235.48 96.88
  L 245.86 95.91
  Z"
/>
<path fill="#dacdc7" d="
  M 245.86 95.91
  L 250.94 96.61
  Q 251.40 98.38 252.76 100.75
  Q 253.90 102.73 253.89 105.31
  Q 253.89 105.80 254.11 106.23
  Q 254.43 106.83 254.60 108.00
  Q 255.76 115.96 255.89 119.28
  Q 255.90 119.37 255.99 119.39
  Q 256.13 119.41 256.27 119.53
  Q 256.37 119.62 256.38 119.75
  L 256.71 129.93
  Q 256.72 130.30 256.89 130.63
  Q 257.14 131.12 257.14 131.50
  Q 257.08 139.89 257.82 148.22
  L 258.09 156.60
  Q 258.11 157.08 258.32 157.52
  Q 258.63 158.19 258.33 158.86
  Q 258.12 159.31 258.12 159.80
  L 258.16 164.51
  L 258.03 181.10
  Q 258.02 181.43 257.85 181.15
  Q 257.78 181.04 257.70 180.92
  Q 257.62 180.79 257.61 180.64
  L 256.14 145.00
  Q 256.14 144.89 256.02 144.87
  Q 255.90 144.86 255.76 144.78
  Q 255.71 144.75 255.71 144.69
  Q 255.07 132.28 254.10 127.50
  Q 253.19 123.02 253.12 121.00
  C 253.07 119.45 251.69 116.48 251.08 113.70
  C 250.77 112.27 249.74 111.86 248.89 111.01
  A 1.56 1.56 0.0 0 0 246.53 111.17
  Q 245.54 112.48 245.33 114.16
  Q 245.26 114.75 244.73 115.04
  Q 243.12 115.93 243.22 117.86
  A 1.43 1.38 62.4 0 1 242.96 118.74
  C 241.69 120.46 241.98 122.51 241.35 124.13
  Q 238.79 130.73 238.87 133.00
  Q 239.01 136.39 238.16 139.67
  C 237.81 140.99 238.19 142.74 236.82 143.98
  A 0.68 0.68 0.0 0 1 235.68 143.50
  C 235.49 135.38 236.15 126.99 235.45 118.91
  Q 235.08 114.59 234.68 110.27
  Q 234.14 104.46 234.46 98.60
  Q 234.48 98.11 233.99 98.05
  L 233.28 97.97
  Q 234.00 97.34 234.77 97.45
  L 234.92 97.67
  Q 235.20 98.07 235.28 98.55
  L 236.84 108.54
  Q 236.90 108.89 237.25 108.89
  Q 237.38 108.89 237.52 108.89
  Q 237.66 108.89 237.69 108.76
  Q 239.98 100.05 245.86 95.91
  Z"
/>
<path fill="#bfb0a9" d="
  M 250.94 96.61
  L 254.57 97.63
  L 255.04 100.70
  Q 255.12 101.16 255.39 101.54
  C 256.11 102.54 255.88 104.06 256.08 104.95
  Q 257.26 110.22 257.13 115.63
  Q 257.12 116.03 257.43 116.29
  Q 257.67 116.49 257.62 116.83
  Q 257.55 117.37 257.56 117.48
  C 258.07 123.94 257.64 132.29 257.67 136.71
  Q 257.71 142.46 257.82 148.22
  Q 257.08 139.89 257.14 131.50
  Q 257.14 131.12 256.89 130.63
  Q 256.72 130.30 256.71 129.93
  L 256.38 119.75
  Q 256.37 119.62 256.27 119.53
  Q 256.13 119.41 255.99 119.39
  Q 255.90 119.37 255.89 119.28
  Q 255.76 115.96 254.60 108.00
  Q 254.43 106.83 254.11 106.23
  Q 253.89 105.80 253.89 105.31
  Q 253.90 102.73 252.76 100.75
  Q 251.40 98.38 250.94 96.61
  Z"
/>
<path fill="#af9e97" d="
  M 254.57 97.63
  C 257.84 98.55 257.93 100.11 258.76 102.99
  L 258.70 169.57
  L 258.16 164.51
  L 258.12 159.80
  Q 258.12 159.31 258.33 158.86
  Q 258.63 158.19 258.32 157.52
  Q 258.11 157.08 258.09 156.60
  L 257.82 148.22
  Q 257.71 142.46 257.67 136.71
  C 257.64 132.29 258.07 123.94 257.56 117.48
  Q 257.55 117.37 257.62 116.83
  Q 257.67 116.49 257.43 116.29
  Q 257.12 116.03 257.13 115.63
  Q 257.26 110.22 256.08 104.95
  C 255.88 104.06 256.11 102.54 255.39 101.54
  Q 255.12 101.16 255.04 100.70
  L 254.57 97.63
  Z"
/>
<path fill="#eee5e0" d="
  M 233.28 97.97
  L 233.99 98.05
  Q 234.48 98.11 234.46 98.60
  Q 234.14 104.46 234.68 110.27
  Q 235.08 114.59 235.45 118.91
  C 236.15 126.99 235.49 135.38 235.68 143.50
  A 0.68 0.68 0.0 0 0 236.82 143.98
  C 238.19 142.74 237.81 140.99 238.16 139.67
  Q 239.01 136.39 238.87 133.00
  Q 238.79 130.73 241.35 124.13
  C 241.98 122.51 241.69 120.46 242.96 118.74
  A 1.43 1.38 62.4 0 0 243.22 117.86
  Q 243.12 115.93 244.73 115.04
  Q 245.26 114.75 245.33 114.16
  Q 245.54 112.48 246.53 111.17
  A 1.56 1.56 0.0 0 1 248.89 111.01
  C 249.74 111.86 250.77 112.27 251.08 113.70
  C 251.69 116.48 253.07 119.45 253.12 121.00
  Q 253.19 123.02 254.10 127.50
  Q 255.07 132.28 255.71 144.69
  Q 255.71 144.75 255.76 144.78
  Q 255.90 144.86 256.02 144.87
  Q 256.14 144.89 256.14 145.00
  L 257.61 180.64
  Q 257.62 180.79 257.70 180.92
  Q 257.78 181.04 257.85 181.15
  Q 258.02 181.43 258.03 181.10
  L 258.16 164.51
  L 258.70 169.57
  L 258.84 185.44
  C 254.62 179.69 250.83 170.15 243.76 167.00
  C 238.87 164.83 234.75 168.59 232.56 172.75
  Q 231.00 171.53 232.73 168.86
  A 1.71 1.65 -29.5 0 0 233.00 167.95
  C 233.03 158.55 232.26 149.23 232.13 139.83
  Q 232.12 139.19 231.74 138.26
  C 231.28 137.13 231.48 136.02 231.04 134.92
  C 230.07 132.46 230.15 128.53 230.08 124.29
  L 229.68 103.77
  Q 229.10 98.98 233.28 97.97
  Z"
/>
<path fill="#af9e97" d="
  M 229.68 103.77
  L 230.08 124.29
  Q 229.78 152.14 229.87 171.00
  Q 229.88 173.30 230.51 176.60
  Q 230.12 177.74 229.35 179.48
  Q 228.95 180.40 228.92 181.08
  Q 228.85 182.73 229.90 182.60
  Q 230.11 182.84 229.91 183.35
  A 0.35 0.32 -47.9 0 0 229.91 183.60
  Q 230.10 184.03 230.75 183.80
  C 230.04 185.10 228.62 188.10 228.97 189.48
  Q 229.33 190.88 230.04 189.97
  Q 230.37 200.28 230.37 210.48
  C 230.38 212.80 229.94 215.15 229.74 217.54
  L 229.01 216.23
  Q 228.63 215.55 228.67 216.32
  Q 228.80 219.65 230.24 222.43
  Q 229.54 223.05 230.41 225.01
  Q 229.83 228.77 229.83 234.00
  Q 229.81 255.01 230.01 276.06
  Q 230.03 282.15 229.58 288.26
  Q 229.37 291.11 229.62 299.00
  Q 229.77 303.72 228.96 310.16
  Q 227.34 310.64 228.55 313.58
  Q 229.99 316.18 228.52 317.45
  Q 227.77 318.32 228.35 321.04
  Q 228.85 323.42 228.12 325.73
  Q 227.07 329.05 226.94 329.94
  Q 225.60 339.67 223.14 349.55
  L 223.17 297.24
  Q 222.84 297.10 222.52 296.97
  Q 223.17 296.84 223.26 296.30
  Q 224.35 296.34 225.16 295.61
  Q 225.61 295.21 225.92 295.73
  Q 226.15 296.10 226.74 295.99
  Q 227.05 295.94 227.04 295.62
  L 227.02 295.25
  Q 227.01 294.87 226.63 294.82
  L 223.39 294.36
  L 220.45 284.29
  L 225.94 272.01
  A 0.35 0.35 0.0 0 1 226.57 271.98
  L 226.92 272.63
  Q 227.23 273.20 227.70 272.75
  Q 228.17 272.30 228.18 271.50
  Q 228.39 246.50 228.53 221.50
  Q 228.54 219.55 228.44 218.31
  Q 228.24 215.98 228.29 215.17
  Q 228.92 204.30 228.40 193.43
  C 228.29 191.20 228.91 189.00 228.54 186.81
  C 228.10 184.24 228.74 181.43 228.75 179.39
  Q 229.03 145.45 229.04 111.57
  L 229.68 103.77
  Z"
/>
<path fill="#bfb0a9" d="
  M 230.08 124.29
  C 230.15 128.53 230.07 132.46 231.04 134.92
  C 231.48 136.02 231.28 137.13 231.74 138.26
  Q 232.12 139.19 232.13 139.83
  C 232.26 149.23 233.03 158.55 233.00 167.95
  A 1.71 1.65 -29.5 0 1 232.73 168.86
  Q 231.00 171.53 232.56 172.75
  L 230.51 176.60
  Q 229.88 173.30 229.87 171.00
  Q 229.78 152.14 230.08 124.29
  Z"
/>
<path fill="#010101" d="
  M 258.84 185.44
  Q 259.34 186.68 259.31 188.30
  Q 259.06 188.41 258.96 188.77
  Q 258.89 188.98 258.68 188.91
  Q 258.53 188.86 258.41 188.77
  C 255.68 183.07 247.15 166.22 239.06 168.63
  C 234.02 170.13 230.73 177.83 229.90 182.60
  Q 228.85 182.73 228.92 181.08
  Q 228.95 180.40 229.35 179.48
  Q 230.12 177.74 230.51 176.60
  L 232.56 172.75
  C 234.75 168.59 238.87 164.83 243.76 167.00
  C 250.83 170.15 254.62 179.69 258.84 185.44
  Z"
/>
<path fill="#eee5e0" d="
  M 258.41 188.77
  Q 257.96 191.12 259.03 191.29
  L 259.42 195.01
  Q 256.98 189.86 253.53 184.70
  C 246.46 174.13 238.05 168.47 230.75 183.80
  Q 230.10 184.03 229.91 183.60
  A 0.35 0.32 -47.9 0 1 229.91 183.35
  Q 230.11 182.84 229.90 182.60
  C 230.73 177.83 234.02 170.13 239.06 168.63
  C 247.15 166.22 255.68 183.07 258.41 188.77
  Z"
/>
<path fill="#010101" d="
  M 259.42 195.01
  Q 259.46 196.77 258.97 197.34
  C 255.87 191.25 245.15 169.33 235.72 178.47
  Q 231.12 182.94 230.04 189.97
  Q 229.33 190.88 228.97 189.48
  C 228.62 188.10 230.04 185.10 230.75 183.80
  C 238.05 168.47 246.46 174.13 253.53 184.70
  Q 256.98 189.86 259.42 195.01
  Z"
/>
<path fill="#eee5e0" d="
  M 258.97 197.34
  L 258.92 211.40
  C 256.08 210.76 246.62 234.90 235.82 226.92
  Q 231.28 223.57 229.74 217.54
  C 229.94 215.15 230.38 212.80 230.37 210.48
  Q 230.37 200.28 230.04 189.97
  Q 231.12 182.94 235.72 178.47
  C 245.15 169.33 255.87 191.25 258.97 197.34
  Z"
/>
<path fill="#af9e97" d="
  M 259.31 188.30
  L 259.03 191.29
  Q 257.96 191.12 258.41 188.77
  Q 258.53 188.86 258.68 188.91
  Q 258.89 188.98 258.96 188.77
  Q 259.06 188.41 259.31 188.30
  Z"
/>
<path fill="#010101" d="
  M 258.92 211.40
  Q 259.52 211.72 259.18 212.67
  Q 259.00 216.59 258.42 215.23
  Q 254.30 219.46 250.91 223.69
  C 245.57 230.35 238.58 234.04 232.58 225.48
  Q 231.50 223.93 230.24 222.43
  Q 228.80 219.65 228.67 216.32
  Q 228.63 215.55 229.01 216.23
  L 229.74 217.54
  Q 231.28 223.57 235.82 226.92
  C 246.62 234.90 256.08 210.76 258.92 211.40
  Z"
/>
<path fill="#af9e97" d="
  M 259.18 212.67
  L 258.76 221.46
  L 258.42 215.23
  Q 259.00 216.59 259.18 212.67
  Z"
/>
<path fill="#eee5e0" d="
  M 258.42 215.23
  L 258.76 221.46
  L 258.78 228.78
  L 257.79 280.97
  Q 257.79 281.17 257.99 281.18
  Q 258.13 281.18 258.29 281.18
  Q 258.65 281.19 258.80 280.87
  L 259.97 278.26
  C 262.50 278.04 262.23 274.88 262.77 273.06
  A 1.14 1.13 -5.1 0 1 263.35 272.37
  C 269.53 269.34 272.15 274.05 274.42 279.06
  C 276.42 283.46 280.18 290.56 279.51 293.51
  Q 279.41 294.67 279.05 294.56
  L 273.49 294.71
  Q 272.96 294.73 272.77 295.23
  L 272.59 295.70
  Q 272.39 296.22 271.84 296.23
  L 254.53 296.61
  L 254.59 300.72
  L 252.72 309.34
  A 2.34 2.33 12.4 0 1 249.93 311.12
  Q 248.77 310.86 247.45 311.19
  L 236.48 310.89
  A 0.41 0.41 0.0 0 0 236.06 311.30
  L 236.10 313.72
  Q 236.11 314.15 236.54 314.15
  L 247.54 314.05
  L 249.78 314.12
  A 0.64 0.64 0.0 0 1 250.40 314.82
  L 250.06 318.05
  Q 249.97 318.84 249.21 318.60
  Q 247.76 318.13 245.28 318.69
  L 236.10 318.49
  L 231.33 318.09
  Q 229.94 318.21 228.52 317.45
  Q 229.99 316.18 228.55 313.58
  L 231.06 313.79
  Q 231.63 313.83 231.62 313.26
  L 231.60 311.49
  Q 231.59 310.80 230.92 310.64
  L 228.96 310.16
  Q 229.77 303.72 229.62 299.00
  Q 229.37 291.11 229.58 288.26
  Q 230.03 282.15 230.01 276.06
  Q 231.15 269.94 230.87 263.81
  Q 230.86 263.63 230.99 263.51
  L 231.31 263.19
  Q 231.42 263.07 231.42 262.91
  L 231.26 226.53
  A 0.51 0.49 -74.2 0 0 231.05 226.14
  Q 230.49 225.76 230.41 225.01
  Q 229.54 223.05 230.24 222.43
  Q 231.50 223.93 232.58 225.48
  C 238.58 234.04 245.57 230.35 250.91 223.69
  Q 254.30 219.46 258.42 215.23
  Z
  M 231.3862 272.5845
  A 0.26 0.26 0.0 0 0 231.1538 272.2996
  L 231.1339 272.2976
  A 0.26 0.26 0.0 0 0 230.8490 272.5299
  L 229.7738 283.1155
  A 0.26 0.26 0.0 0 0 230.0062 283.4004
  L 230.0261 283.4024
  A 0.26 0.26 0.0 0 0 230.3110 283.1701
  L 231.3862 272.5845
  Z"
/>
<path fill="#bfb0a9" d="
  M 230.41 225.01
  Q 230.49 225.76 231.05 226.14
  A 0.51 0.49 -74.2 0 1 231.26 226.53
  L 231.42 262.91
  Q 231.42 263.07 231.31 263.19
  L 230.99 263.51
  Q 230.86 263.63 230.87 263.81
  Q 231.15 269.94 230.01 276.06
  Q 229.81 255.01 229.83 234.00
  Q 229.83 228.77 230.41 225.01
  Z"
/>
<path fill="#bfb0a9" d="
  M 258.78 228.78
  Q 259.10 244.73 258.97 260.66
  C 258.93 265.81 259.31 271.54 259.31 277.00
  Q 259.31 277.69 259.97 278.26
  L 258.80 280.87
  Q 258.65 281.19 258.29 281.18
  Q 258.13 281.18 257.99 281.18
  Q 257.79 281.17 257.79 280.97
  L 258.78 228.78
  Z"
/>
<path fill="#eee5e0" d="
  M 220.45 284.29
  L 223.39 294.36
  Q 223.04 295.27 223.26 296.30
  Q 223.17 296.84 222.52 296.97
  Q 222.09 296.31 221.25 296.26
  Q 213.07 295.74 208.00 296.04
  Q 207.79 296.05 207.67 296.28
  L 206.99 296.32
  Q 206.53 295.60 205.27 295.76
  Q 205.10 292.53 206.37 289.53
  Q 209.79 281.40 212.95 273.19
  Q 213.69 271.29 215.45 271.67
  Q 215.91 271.77 216.02 272.23
  Q 216.35 273.54 217.26 274.55
  Q 217.59 274.91 217.63 275.40
  C 217.72 276.58 218.41 277.54 218.56 278.56
  C 218.88 280.71 218.54 281.92 219.80 284.25
  Q 219.95 284.52 220.25 284.44
  Q 220.36 284.41 220.45 284.29
  Z"
/>
<rect fill="#bfb0a9" x="-0.27" y="-5.58" transform="translate(230.58,277.85) rotate(5.8)" width="0.54" height="11.16" rx="0.26"/>
<path fill="#bfb0a9" d="
  M 279.51 293.51
  L 279.90 383.47
  A 3.42 3.38 -60.8 0 0 280.37 385.16
  C 284.15 391.54 288.59 398.24 291.51 405.21
  Q 290.18 404.78 290.18 405.75
  Q 290.16 421.97 290.11 438.31
  Q 290.11 438.56 289.86 438.56
  L 289.52 438.56
  Q 289.39 438.57 289.37 438.44
  L 288.92 434.90
  Q 288.86 434.44 288.40 434.41
  L 275.90 433.70
  Q 275.43 433.67 275.07 433.98
  Q 274.39 434.55 273.47 434.07
  Q 273.09 433.88 273.09 433.45
  L 273.12 370.50
  Q 273.35 372.65 274.22 374.55
  A 0.58 0.58 0.0 0 0 274.73 374.89
  Q 274.87 374.89 275.00 374.87
  Q 275.53 374.81 275.55 374.28
  L 276.79 350.01
  Q 276.80 349.98 276.85 349.95
  Q 276.89 349.92 276.94 349.90
  Q 277.13 349.83 277.13 349.70
  C 277.12 346.23 277.13 343.53 277.44 339.44
  C 278.09 330.72 277.95 321.56 277.88 316.50
  Q 277.87 315.99 278.10 315.46
  A 0.49 0.41 -39.7 0 0 278.13 315.30
  L 278.13 297.74
  Q 278.13 297.38 278.38 297.13
  L 278.62 296.88
  A 0.15 0.15 0.0 0 0 278.55 296.63
  Q 278.26 296.57 278.26 296.40
  Q 279.76 296.22 279.62 295.25
  Q 279.58 294.97 279.05 294.56
  Q 279.41 294.67 279.51 293.51
  Z"
/>
<path fill="#010101" d="
  M 223.26 296.30
  Q 223.04 295.27 223.39 294.36
  L 226.63 294.82
  Q 227.01 294.87 227.02 295.25
  L 227.04 295.62
  Q 227.05 295.94 226.74 295.99
  Q 226.15 296.10 225.92 295.73
  Q 225.61 295.21 225.16 295.61
  Q 224.35 296.34 223.26 296.30
  Z"
/>
<path fill="#010101" d="
  M 279.05 294.56
  Q 279.58 294.97 279.62 295.25
  Q 279.76 296.22 278.26 296.40
  Q 272.70 295.76 272.76 297.84
  Q 272.30 298.21 271.02 298.18
  L 256.97 298.21
  Q 256.89 297.72 256.71 297.45
  A 0.49 0.49 0.0 0 0 255.92 297.41
  L 255.70 297.68
  Q 255.24 298.24 254.95 297.58
  L 254.53 296.61
  L 271.84 296.23
  Q 272.39 296.22 272.59 295.70
  L 272.77 295.23
  Q 272.96 294.73 273.49 294.71
  L 279.05 294.56
  Z"
/>
<path fill="#010101" d="
  M 205.27 295.76
  Q 206.53 295.60 206.99 296.32
  Q 207.47 297.34 206.48 297.62
  Q 205.92 297.78 205.39 297.71
  Q 204.74 296.77 205.27 295.76
  Z"
/>
<path fill="#010101" d="
  M 222.52 296.97
  Q 222.84 297.10 223.17 297.24
  L 211.63 297.78
  L 208.62 297.80
  Q 206.98 297.81 207.67 296.28
  Q 207.79 296.05 208.00 296.04
  Q 213.07 295.74 221.25 296.26
  Q 222.09 296.31 222.52 296.97
  Z"
/>
<path fill="#bfb0a9" d="
  M 206.99 296.32
  L 207.67 296.28
  Q 206.98 297.81 208.62 297.80
  Q 208.40 304.68 208.63 308.25
  Q 209.37 320.04 211.59 339.98
  Q 212.29 346.24 212.78 352.54
  Q 212.89 353.90 213.44 356.40
  C 214.13 359.57 213.92 363.60 214.26 366.14
  C 214.59 368.67 214.66 371.06 215.27 373.65
  C 215.72 375.60 215.62 378.05 215.73 379.43
  C 216.66 391.47 216.08 402.73 216.88 413.75
  Q 216.99 415.29 217.46 417.11
  C 218.03 419.28 217.66 421.41 218.35 423.64
  Q 218.51 424.15 219.03 424.05
  Q 219.27 424.00 219.48 423.85
  Q 219.78 423.62 219.88 423.03
  Q 220.18 421.36 220.80 419.78
  Q 221.53 417.97 221.64 416.57
  C 222.06 411.19 222.75 405.78 222.78 400.47
  Q 222.89 378.47 222.92 356.46
  L 223.14 349.55
  Q 225.60 339.67 226.94 329.94
  Q 227.07 329.05 228.12 325.73
  Q 228.85 323.42 228.35 321.04
  Q 228.98 320.90 229.46 321.02
  Q 228.53 321.83 229.02 323.05
  Q 229.20 323.51 229.13 323.99
  Q 228.71 327.28 229.09 331.75
  Q 229.63 338.00 228.15 345.25
  Q 227.86 346.65 228.37 349.49
  Q 228.45 349.94 228.18 350.32
  Q 227.52 351.22 228.35 352.07
  A 0.78 0.78 0.0 0 1 228.54 352.82
  Q 228.36 353.51 227.86 353.63
  Q 227.39 353.75 227.19 354.18
  Q 226.57 355.51 226.17 356.89
  C 225.91 357.82 226.19 358.59 227.10 358.91
  Q 227.71 359.12 228.02 358.56
  Q 229.49 355.92 231.76 353.99
  A 1.13 1.13 0.0 0 0 232.16 352.99
  Q 231.78 349.25 233.19 345.77
  Q 233.36 345.34 233.76 345.11
  Q 234.00 344.97 234.13 344.72
  Q 234.44 344.12 234.66 344.76
  C 235.33 346.80 235.75 348.65 236.48 350.99
  C 237.31 353.61 236.99 356.26 237.39 358.76
  Q 237.68 360.54 237.84 362.36
  Q 237.89 362.91 238.38 363.17
  Q 238.84 363.41 238.58 364.10
  Q 238.46 364.40 238.15 364.36
  Q 237.30 364.27 236.56 364.60
  Q 236.04 364.84 235.98 365.42
  L 235.04 374.95
  Q 234.48 374.69 234.14 375.42
  C 232.23 379.60 232.90 383.62 232.27 387.79
  C 231.71 391.48 231.82 395.94 229.72 399.21
  C 227.38 402.86 227.78 406.20 227.26 410.02
  C 226.66 414.49 226.96 418.83 226.41 423.28
  Q 226.40 423.36 226.29 423.37
  Q 226.24 423.38 226.19 423.39
  A 0.53 0.22 -81.4 0 0 225.96 423.77
  L 224.85 428.36
  Q 224.74 428.81 224.28 428.85
  Q 223.16 428.94 222.82 429.99
  Q 222.40 431.30 222.70 431.84
  Q 220.09 433.71 217.05 434.28
  Q 216.12 434.50 215.61 434.32
  L 211.66 434.19
  Q 211.07 433.84 211.93 432.75
  Q 212.28 432.32 212.24 431.76
  L 207.63 375.74
  A 1.36 1.33 -66.1 0 0 207.37 375.04
  C 206.17 373.44 206.87 371.67 206.51 369.88
  Q 206.18 368.21 206.16 367.57
  Q 205.67 349.29 205.76 331.00
  C 205.77 329.32 205.30 327.57 205.34 326.00
  Q 205.53 318.87 205.18 311.76
  L 205.39 297.71
  Q 205.92 297.78 206.48 297.62
  Q 207.47 297.34 206.99 296.32
  Z"
/>
<path fill="#eee5e0" d="
  M 278.26 296.40
  Q 278.26 296.57 278.55 296.63
  A 0.15 0.15 0.0 0 1 278.62 296.88
  L 278.38 297.13
  Q 278.13 297.38 278.13 297.74
  L 278.13 315.30
  A 0.49 0.41 -39.7 0 1 278.10 315.46
  Q 277.87 315.99 277.88 316.50
  C 277.95 321.56 278.09 330.72 277.44 339.44
  C 277.13 343.53 277.12 346.23 277.13 349.70
  Q 277.13 349.83 276.94 349.90
  Q 276.89 349.92 276.85 349.95
  Q 276.80 349.98 276.79 350.01
  L 275.55 374.28
  Q 275.53 374.81 275.00 374.87
  Q 274.87 374.89 274.73 374.89
  A 0.58 0.58 0.0 0 1 274.22 374.55
  Q 273.35 372.65 273.12 370.50
  L 273.11 349.22
  L 272.76 297.84
  Q 272.70 295.76 278.26 296.40
  Z"
/>
<path fill="#bfb0a9" d="
  M 254.53 296.61
  L 254.95 297.58
  Q 255.24 298.24 255.70 297.68
  L 255.92 297.41
  A 0.49 0.49 0.0 0 1 256.71 297.45
  Q 256.89 297.72 256.97 298.21
  Q 256.09 298.46 256.41 299.27
  Q 255.71 303.50 256.90 307.40
  Q 257.99 310.96 258.15 312.61
  Q 259.26 323.93 260.18 335.27
  C 260.39 337.91 261.25 340.41 261.85 343.00
  Q 261.67 343.51 262.06 343.81
  Q 262.41 344.08 262.44 344.51
  Q 262.76 348.29 263.31 352.05
  C 263.44 352.90 264.04 353.32 264.07 354.29
  Q 264.15 357.48 265.58 359.19
  Q 267.13 361.06 267.17 358.63
  Q 267.19 356.72 268.18 354.98
  Q 268.44 354.52 268.45 353.99
  Q 268.47 353.15 268.87 352.39
  A 1.20 1.16 50.1 0 0 268.94 351.47
  Q 268.67 350.63 269.08 349.94
  Q 269.31 349.53 269.36 349.06
  Q 269.70 345.16 269.98 341.27
  Q 271.46 319.99 271.73 298.67
  Q 271.73 298.30 271.37 298.23
  Q 271.19 298.20 271.02 298.18
  Q 272.30 298.21 272.76 297.84
  L 273.11 349.22
  Q 272.88 349.08 272.81 348.61
  Q 272.71 347.95 272.28 348.47
  Q 272.00 348.83 272.08 349.35
  Q 272.18 350.02 272.18 350.17
  Q 271.76 364.82 271.89 379.47
  Q 271.90 379.61 271.78 379.73
  Q 271.72 379.79 271.67 379.86
  Q 271.59 379.98 271.60 380.16
  C 271.98 392.74 270.19 405.90 269.72 418.79
  C 269.66 420.54 268.95 422.29 268.48 423.99
  C 267.83 426.36 268.15 428.32 265.99 430.41
  A 0.74 0.74 0.0 0 1 264.87 430.31
  C 263.15 427.85 264.02 425.08 262.52 422.17
  Q 261.79 420.75 261.62 419.68
  C 261.36 418.07 261.63 415.94 260.40 414.73
  Q 260.07 414.40 260.09 413.94
  Q 260.29 409.59 258.93 405.51
  C 257.87 402.30 257.99 398.97 257.48 395.40
  C 257.26 393.90 257.43 392.39 257.35 390.86
  Q 257.33 390.44 257.60 390.10
  A 0.90 0.88 55.4 0 0 257.75 389.25
  Q 256.56 385.73 256.21 382.02
  C 256.05 380.34 255.17 378.75 255.13 377.01
  Q 254.65 354.99 254.45 321.77
  Q 254.73 319.63 254.19 318.26
  L 254.33 314.76
  Q 254.85 312.61 253.97 309.85
  L 255.60 300.28
  Q 255.75 299.38 255.24 300.13
  Q 254.93 300.58 254.59 300.72
  L 254.53 296.61
  Z"
/>
<path fill="#eee5e0" d="
  M 223.17 297.24
  L 223.14 349.55
  L 222.92 356.46
  Q 222.63 357.12 222.02 357.16
  Q 221.50 357.20 221.36 356.70
  Q 219.95 352.06 219.43 347.25
  C 219.12 344.42 218.96 340.00 217.51 337.54
  Q 217.30 337.18 217.36 336.77
  Q 217.70 334.43 216.25 332.67
  Q 215.98 332.35 215.91 331.94
  C 215.75 330.97 216.08 330.13 215.90 329.28
  Q 214.15 321.11 213.90 312.75
  Q 213.81 309.61 211.63 297.78
  L 223.17 297.24
  Z"
/>
<path fill="#dacdc7" d="
  M 208.62 297.80
  L 211.63 297.78
  Q 213.81 309.61 213.90 312.75
  Q 214.15 321.11 215.90 329.28
  C 216.08 330.13 215.75 330.97 215.91 331.94
  Q 215.98 332.35 216.25 332.67
  Q 217.70 334.43 217.36 336.77
  Q 217.30 337.18 217.51 337.54
  C 218.96 340.00 219.12 344.42 219.43 347.25
  Q 219.95 352.06 221.36 356.70
  Q 221.50 357.20 222.02 357.16
  Q 222.63 357.12 222.92 356.46
  Q 222.89 378.47 222.78 400.47
  C 222.75 405.78 222.06 411.19 221.64 416.57
  Q 221.53 417.97 220.80 419.78
  Q 220.18 421.36 219.88 423.03
  Q 219.78 423.62 219.48 423.85
  Q 219.27 424.00 219.03 424.05
  Q 218.51 424.15 218.35 423.64
  C 217.66 421.41 218.03 419.28 217.46 417.11
  Q 216.99 415.29 216.88 413.75
  C 216.08 402.73 216.66 391.47 215.73 379.43
  C 215.62 378.05 215.72 375.60 215.27 373.65
  C 214.66 371.06 214.59 368.67 214.26 366.14
  C 213.92 363.60 214.13 359.57 213.44 356.40
  Q 212.89 353.90 212.78 352.54
  Q 212.29 346.24 211.59 339.98
  Q 209.37 320.04 208.63 308.25
  Q 208.40 304.68 208.62 297.80
  Z"
/>
<path fill="#eee5e0" d="
  M 256.97 298.21
  L 271.02 298.18
  Q 271.19 298.20 271.37 298.23
  Q 271.73 298.30 271.73 298.67
  Q 271.46 319.99 269.98 341.27
  Q 269.70 345.16 269.36 349.06
  Q 269.31 349.53 269.08 349.94
  Q 268.67 350.63 268.94 351.47
  A 1.20 1.16 50.1 0 1 268.87 352.39
  Q 268.47 353.15 268.45 353.99
  Q 268.44 354.52 268.18 354.98
  Q 267.19 356.72 267.17 358.63
  Q 267.13 361.06 265.58 359.19
  Q 264.15 357.48 264.07 354.29
  C 264.04 353.32 263.44 352.90 263.31 352.05
  Q 262.76 348.29 262.44 344.51
  Q 262.41 344.08 262.06 343.81
  Q 261.67 343.51 261.85 343.00
  C 261.25 340.41 260.39 337.91 260.18 335.27
  Q 259.26 323.93 258.15 312.61
  Q 257.99 310.96 256.90 307.40
  Q 255.71 303.50 256.41 299.27
  Q 256.09 298.46 256.97 298.21
  Z"
/>
<path fill="#af9e97" d="
  M 253.97 309.85
  Q 251.02 310.82 252.12 314.04
  A 0.80 0.79 -5.8 0 0 252.78 314.57
  L 254.33 314.76
  L 254.19 318.26
  Q 253.38 317.82 252.55 317.78
  Q 252.03 317.76 251.93 318.28
  Q 251.12 322.61 254.45 321.77
  Q 254.65 354.99 255.13 377.01
  C 255.17 378.75 256.05 380.34 256.21 382.02
  Q 256.56 385.73 257.75 389.25
  A 0.90 0.88 55.4 0 1 257.60 390.10
  Q 257.33 390.44 257.35 390.86
  C 257.43 392.39 257.26 393.90 257.48 395.40
  C 257.99 398.97 257.87 402.30 258.93 405.51
  Q 260.29 409.59 260.09 413.94
  Q 260.07 414.40 260.40 414.73
  C 261.63 415.94 261.36 418.07 261.62 419.68
  Q 261.79 420.75 262.52 422.17
  C 264.02 425.08 263.15 427.85 264.87 430.31
  A 0.74 0.74 0.0 0 0 265.99 430.41
  C 268.15 428.32 267.83 426.36 268.48 423.99
  C 268.95 422.29 269.66 420.54 269.72 418.79
  C 270.19 405.90 271.98 392.74 271.60 380.16
  Q 271.59 379.98 271.67 379.86
  Q 271.72 379.79 271.78 379.73
  Q 271.90 379.61 271.89 379.47
  Q 271.76 364.82 272.18 350.17
  Q 272.18 350.02 272.08 349.35
  Q 272.00 348.83 272.28 348.47
  Q 272.71 347.95 272.81 348.61
  Q 272.88 349.08 273.11 349.22
  L 273.12 370.50
  L 273.09 433.45
  Q 273.09 433.88 273.47 434.07
  Q 274.39 434.55 275.07 433.98
  Q 275.43 433.67 275.90 433.70
  L 288.40 434.41
  Q 288.86 434.44 288.92 434.90
  L 289.37 438.44
  Q 289.39 438.57 289.52 438.56
  L 289.86 438.56
  Q 290.11 438.56 290.11 438.31
  Q 290.16 421.97 290.18 405.75
  Q 290.18 404.78 291.51 405.21
  L 291.70 466.81
  A 1.21 1.20 -89.3 0 1 290.47 468.02
  L 285.41 467.92
  Q 284.63 467.91 284.31 467.20
  L 271.23 438.32
  Q 270.87 437.54 270.74 438.39
  L 270.50 439.98
  Q 270.18 438.90 270.26 437.92
  A 0.50 0.50 0.0 0 0 269.66 437.39
  Q 265.04 438.32 260.32 437.75
  L 258.81 437.56
  Q 256.31 436.95 254.58 435.24
  A 1.44 1.43 70.9 0 0 253.74 434.83
  Q 252.78 434.70 252.51 434.86
  Q 251.74 432.86 251.87 430.52
  Q 252.06 426.89 252.24 423.24
  Q 252.39 420.16 249.80 418.76
  Q 249.34 418.51 249.36 417.99
  Q 249.73 402.74 250.21 387.50
  Q 250.22 387.09 250.36 386.80
  Q 250.52 386.45 250.53 386.06
  L 250.91 355.42
  Q 250.91 354.91 250.67 354.45
  Q 250.29 353.76 250.36 352.75
  C 250.64 348.44 249.61 343.72 249.62 339.75
  Q 249.62 332.30 249.62 324.83
  Q 249.61 324.35 249.96 324.01
  Q 250.58 323.39 250.63 322.81
  Q 250.88 320.05 250.92 312.50
  Q 250.93 312.15 250.58 312.12
  Q 250.44 312.11 250.30 312.20
  Q 250.15 312.30 250.03 312.65
  Q 249.54 314.06 247.83 313.75
  Q 248.18 312.84 247.45 311.19
  Q 248.77 310.86 249.93 311.12
  A 2.34 2.33 12.4 0 0 252.72 309.34
  L 254.59 300.72
  Q 254.93 300.58 255.24 300.13
  Q 255.75 299.38 255.60 300.28
  L 253.97 309.85
  Z"
/>
<path fill="#010101" d="
  M 253.97 309.85
  Q 254.85 312.61 254.33 314.76
  L 252.78 314.57
  A 0.80 0.79 -5.8 0 1 252.12 314.04
  Q 251.02 310.82 253.97 309.85
  Z"
/>
<path fill="#010101" d="
  M 228.96 310.16
  L 230.92 310.64
  Q 231.59 310.80 231.60 311.49
  L 231.62 313.26
  Q 231.63 313.83 231.06 313.79
  L 228.55 313.58
  Q 227.34 310.64 228.96 310.16
  Z"
/>
<path fill="#010101" d="
  M 247.45 311.19
  Q 248.18 312.84 247.83 313.75
  Q 247.52 313.77 247.54 314.05
  L 236.54 314.15
  Q 236.11 314.15 236.10 313.72
  L 236.06 311.30
  A 0.41 0.41 0.0 0 1 236.48 310.89
  L 247.45 311.19
  Z"
/>
<path fill="#af9e97" d="
  M 205.18 311.76
  Q 205.53 318.87 205.34 326.00
  C 205.30 327.57 205.77 329.32 205.76 331.00
  Q 205.67 349.29 206.16 367.57
  Q 206.18 368.21 206.51 369.88
  C 206.87 371.67 206.17 373.44 207.37 375.04
  A 1.36 1.33 -66.1 0 1 207.63 375.74
  L 212.24 431.76
  Q 212.28 432.32 211.93 432.75
  Q 211.07 433.84 211.66 434.19
  Q 209.60 434.51 206.98 433.59
  Q 203.99 432.87 204.31 429.62
  C 205.62 416.22 203.77 402.48 205.08 389.01
  Q 205.12 388.59 204.76 388.38
  L 204.51 388.23
  L 205.18 311.76
  Z"
/>
<path fill="#bfb0a9" d="
  M 252.51 434.86
  L 241.13 435.47
  L 235.82 434.46
  Q 236.00 429.73 235.60 427.75
  Q 234.48 422.25 234.99 416.56
  Q 235.13 416.50 235.32 416.32
  A 1.35 1.35 0.0 0 0 235.72 415.52
  L 240.55 374.98
  Q 241.21 373.41 241.26 371.48
  Q 241.26 371.37 241.37 371.37
  L 241.63 371.37
  Q 241.67 371.37 241.67 371.42
  C 241.59 375.06 240.88 378.74 240.88 382.16
  C 240.88 384.50 240.36 389.61 241.22 391.61
  Q 241.42 392.06 241.38 392.55
  Q 241.15 395.77 241.93 398.84
  C 242.20 399.95 241.91 401.31 242.72 402.42
  Q 243.02 402.83 243.20 403.30
  L 246.12 410.97
  Q 246.43 411.79 246.76 410.98
  Q 247.76 408.49 247.56 405.82
  Q 247.53 405.41 247.66 405.02
  Q 248.03 403.95 248.13 402.50
  Q 248.75 393.31 248.86 386.76
  Q 249.02 377.13 249.35 367.50
  Q 249.53 362.34 249.07 354.82
  C 248.46 344.98 248.74 335.45 248.33 325.75
  Q 248.27 324.39 249.17 323.39
  A 1.07 1.07 0.0 0 0 248.61 321.63
  L 247.95 321.49
  Q 249.03 320.51 248.38 319.62
  Q 247.41 318.32 245.28 318.69
  Q 247.76 318.13 249.21 318.60
  Q 249.97 318.84 250.06 318.05
  L 250.40 314.82
  A 0.64 0.64 0.0 0 0 249.78 314.12
  L 247.54 314.05
  Q 247.52 313.77 247.83 313.75
  Q 249.54 314.06 250.03 312.65
  Q 250.15 312.30 250.30 312.20
  Q 250.44 312.11 250.58 312.12
  Q 250.93 312.15 250.92 312.50
  Q 250.88 320.05 250.63 322.81
  Q 250.58 323.39 249.96 324.01
  Q 249.61 324.35 249.62 324.83
  Q 249.62 332.30 249.62 339.75
  C 249.61 343.72 250.64 348.44 250.36 352.75
  Q 250.29 353.76 250.67 354.45
  Q 250.91 354.91 250.91 355.42
  L 250.53 386.06
  Q 250.52 386.45 250.36 386.80
  Q 250.22 387.09 250.21 387.50
  Q 249.73 402.74 249.36 417.99
  Q 249.34 418.51 249.80 418.76
  Q 252.39 420.16 252.24 423.24
  Q 252.06 426.89 251.87 430.52
  Q 251.74 432.86 252.51 434.86
  Z"
/>
<path fill="#010101" d="
  M 228.52 317.45
  Q 229.94 318.21 231.33 318.09
  Q 231.72 319.50 231.51 320.76
  Q 231.43 321.26 230.92 321.20
  L 229.46 321.02
  Q 228.98 320.90 228.35 321.04
  Q 227.77 318.32 228.52 317.45
  Z"
/>
<path fill="#010101" d="
  M 254.19 318.26
  Q 254.73 319.63 254.45 321.77
  Q 251.12 322.61 251.93 318.28
  Q 252.03 317.76 252.55 317.78
  Q 253.38 317.82 254.19 318.26
  Z"
/>
<path fill="#dacdc7" d="
  M 236.10 318.49
  Q 235.46 321.97 236.91 321.67
  Q 236.22 321.70 235.83 321.95
  A 0.34 0.34 0.0 0 0 235.89 322.56
  Q 237.90 323.34 240.07 323.08
  Q 240.62 323.02 240.72 323.57
  L 245.36 348.93
  Q 245.40 349.14 245.61 349.14
  Q 245.86 349.13 246.08 349.14
  Q 246.40 349.15 246.41 348.82
  L 246.71 324.57
  Q 246.72 324.08 246.98 323.66
  Q 247.71 322.51 246.53 321.69
  Q 247.14 321.47 247.95 321.49
  L 248.61 321.63
  A 1.07 1.07 0.0 0 1 249.17 323.39
  Q 248.27 324.39 248.33 325.75
  C 248.74 335.45 248.46 344.98 249.07 354.82
  Q 249.53 362.34 249.35 367.50
  Q 249.02 377.13 248.86 386.76
  Q 248.75 393.31 248.13 402.50
  Q 248.03 403.95 247.66 405.02
  Q 247.53 405.41 247.56 405.82
  Q 247.76 408.49 246.76 410.98
  Q 246.43 411.79 246.12 410.97
  L 243.20 403.30
  Q 243.02 402.83 242.72 402.42
  C 241.91 401.31 242.20 399.95 241.93 398.84
  Q 241.15 395.77 241.38 392.55
  Q 241.42 392.06 241.22 391.61
  C 240.36 389.61 240.88 384.50 240.88 382.16
  C 240.88 378.74 241.59 375.06 241.67 371.42
  Q 241.67 371.37 241.63 371.37
  L 241.37 371.37
  Q 241.26 371.37 241.26 371.48
  Q 241.21 373.41 240.55 374.98
  L 241.69 366.23
  Q 241.84 365.13 240.73 365.13
  L 237.49 365.13
  Q 236.38 365.13 236.25 366.24
  L 235.10 376.51
  L 235.04 374.95
  L 235.98 365.42
  Q 236.04 364.84 236.56 364.60
  Q 237.30 364.27 238.15 364.36
  Q 238.46 364.40 238.58 364.10
  Q 238.84 363.41 238.38 363.17
  Q 237.89 362.91 237.84 362.36
  Q 237.68 360.54 237.39 358.76
  C 236.99 356.26 237.31 353.61 236.48 350.99
  C 235.75 348.65 235.33 346.80 234.66 344.76
  Q 234.44 344.12 234.13 344.72
  Q 234.00 344.97 233.76 345.11
  Q 233.36 345.34 233.19 345.77
  Q 231.78 349.25 232.16 352.99
  A 1.13 1.13 0.0 0 1 231.76 353.99
  Q 229.49 355.92 228.02 358.56
  Q 227.71 359.12 227.10 358.91
  C 226.19 358.59 225.91 357.82 226.17 356.89
  Q 226.57 355.51 227.19 354.18
  Q 227.39 353.75 227.86 353.63
  Q 228.36 353.51 228.54 352.82
  A 0.78 0.78 0.0 0 0 228.35 352.07
  Q 227.52 351.22 228.18 350.32
  Q 228.45 349.94 228.37 349.49
  Q 227.86 346.65 228.15 345.25
  Q 229.63 338.00 229.09 331.75
  Q 228.71 327.28 229.13 323.99
  Q 229.20 323.51 229.02 323.05
  Q 228.53 321.83 229.46 321.02
  L 230.92 321.20
  Q 231.43 321.26 231.51 320.76
  Q 231.72 319.50 231.33 318.09
  L 236.10 318.49
  Z"
/>
<path fill="#010101" d="
  M 236.10 318.49
  L 245.28 318.69
  Q 247.41 318.32 248.38 319.62
  Q 249.03 320.51 247.95 321.49
  Q 247.14 321.47 246.53 321.69
  L 236.91 321.67
  Q 235.46 321.97 236.10 318.49
  Z"
/>
<path fill="#eee5e0" d="
  M 236.91 321.67
  L 246.53 321.69
  Q 247.71 322.51 246.98 323.66
  Q 246.72 324.08 246.71 324.57
  L 246.41 348.82
  Q 246.40 349.15 246.08 349.14
  Q 245.86 349.13 245.61 349.14
  Q 245.40 349.14 245.36 348.93
  L 240.72 323.57
  Q 240.62 323.02 240.07 323.08
  Q 237.90 323.34 235.89 322.56
  A 0.34 0.34 0.0 0 1 235.83 321.95
  Q 236.22 321.70 236.91 321.67
  Z"
/>
<path fill="#eee5e0" d="
  M 240.55 374.98
  L 235.72 415.52
  A 1.35 1.35 0.0 0 1 235.32 416.32
  Q 235.13 416.50 234.99 416.56
  L 230.97 416.29
  Q 230.32 416.25 230.40 415.60
  L 235.10 376.51
  L 236.25 366.24
  Q 236.38 365.13 237.49 365.13
  L 240.73 365.13
  Q 241.84 365.13 241.69 366.23
  L 240.55 374.98
  Z"
/>
<path fill="#af9e97" d="
  M 235.04 374.95
  L 235.10 376.51
  L 230.40 415.60
  Q 230.32 416.25 230.97 416.29
  L 234.99 416.56
  Q 234.48 422.25 235.60 427.75
  Q 236.00 429.73 235.82 434.46
  L 235.86 484.65
  L 230.73 483.93
  A 0.59 0.58 3.9 0 1 230.22 483.35
  L 230.25 439.51
  L 230.12 434.74
  Q 230.11 434.23 229.62 434.07
  L 222.70 431.84
  Q 222.40 431.30 222.82 429.99
  Q 223.16 428.94 224.28 428.85
  Q 224.74 428.81 224.85 428.36
  L 225.96 423.77
  A 0.53 0.22 -81.4 0 1 226.19 423.39
  Q 226.24 423.38 226.29 423.37
  Q 226.40 423.36 226.41 423.28
  C 226.96 418.83 226.66 414.49 227.26 410.02
  C 227.78 406.20 227.38 402.86 229.72 399.21
  C 231.82 395.94 231.71 391.48 232.27 387.79
  C 232.90 383.62 232.23 379.60 234.14 375.42
  Q 234.48 374.69 235.04 374.95
  Z"
/>
<path fill="#4c4241" d="
  M 204.51 388.23
  L 204.76 388.38
  Q 205.12 388.59 205.08 389.01
  C 203.77 402.48 205.62 416.22 204.31 429.62
  Q 203.99 432.87 206.98 433.59
  L 206.82 438.82
  A 1.77 1.77 0.0 0 0 208.23 440.60
  L 212.96 441.59
  L 204.28 459.82
  A 2.86 2.86 0.0 0 1 201.40 461.43
  L 197.73 461.03
  Q 196.95 460.94 196.95 460.15
  Q 197.02 431.20 197.24 403.11
  Q 197.26 400.98 198.29 399.13
  Q 201.35 393.65 204.51 388.23
  Z"
/>
<path fill="#010101" d="
  M 222.70 431.84
  L 229.62 434.07
  Q 230.11 434.23 230.12 434.74
  L 230.25 439.51
  Q 224.85 438.42 220.74 435.94
  A 0.42 0.42 0.0 0 0 220.11 436.41
  Q 221.18 440.45 217.05 440.78
  Q 218.17 436.94 217.05 434.28
  Q 220.09 433.71 222.70 431.84
  Z
  M 226.20 434.68
  Q 226.02 435.45 226.50 436.01
  A 0.26 0.26 0.0 0 0 226.94 435.94
  Q 227.28 435.17 226.80 434.55
  Q 226.37 434.00 226.20 434.68
  Z"
/>
<path fill="#010101" d="
  M 206.98 433.59
  Q 209.60 434.51 211.66 434.19
  L 215.61 434.32
  Q 214.75 437.76 215.67 441.03
  L 212.96 441.59
  L 208.23 440.60
  A 1.77 1.77 0.0 0 1 206.82 438.82
  L 206.98 433.59
  Z"
/>
<path fill="#4c4241" d="
  M 226.80 434.55
  Q 227.28 435.17 226.94 435.94
  A 0.26 0.26 0.0 0 1 226.50 436.01
  Q 226.02 435.45 226.20 434.68
  Q 226.37 434.00 226.80 434.55
  Z"
/>
<path fill="#4c4241" d="
  M 215.61 434.32
  Q 216.12 434.50 217.05 434.28
  Q 218.17 436.94 217.05 440.78
  Q 216.69 440.70 215.67 441.03
  Q 214.75 437.76 215.61 434.32
  Z"
/>
<path fill="#4c4241" d="
  M 235.82 434.46
  L 241.13 435.47
  Q 241.24 442.41 239.81 449.05
  Q 239.41 466.93 235.86 484.65
  L 235.82 434.46
  Z"
/>
<path fill="#010101" d="
  M 252.51 434.86
  Q 252.78 434.70 253.74 434.83
  A 1.44 1.43 70.9 0 1 254.58 435.24
  Q 256.31 436.95 258.81 437.56
  Q 258.12 438.44 258.57 439.31
  Q 258.78 439.73 258.84 440.20
  L 259.33 444.23
  C 256.60 444.30 257.09 441.60 257.12 439.88
  Q 257.13 439.65 256.90 439.61
  L 256.57 439.56
  Q 256.42 439.53 256.40 439.69
  L 255.78 444.85
  A 1.48 1.46 70.2 0 1 255.41 445.65
  Q 254.37 446.78 253.81 448.21
  Q 253.65 448.61 253.22 448.62
  L 239.81 449.05
  Q 241.24 442.41 241.13 435.47
  L 252.51 434.86
  Z
  M 253.2275 438.9200
  A 1.43 0.31 90.1 0 0 253.5400 437.4905
  A 1.43 0.31 90.1 0 0 253.2325 436.0600
  A 1.43 0.31 90.1 0 0 252.9200 437.4895
  A 1.43 0.31 90.1 0 0 253.2275 438.9200
  Z"
/>
<ellipse fill="#4c4241" cx="0.00" cy="0.00" transform="translate(253.23,437.49) rotate(90.1)" rx="1.43" ry="0.31"/>
<path fill="#4c4241" d="
  M 258.81 437.56
  L 260.32 437.75
  L 260.39 444.55
  Q 259.66 444.54 259.33 444.23
  L 258.84 440.20
  Q 258.78 439.73 258.57 439.31
  Q 258.12 438.44 258.81 437.56
  Z"
/>
<path fill="#010101" d="
  M 270.50 439.98
  Q 271.03 441.76 270.38 443.31
  Q 270.17 443.81 269.67 444.01
  Q 265.29 445.80 260.39 444.55
  L 260.32 437.75
  Q 265.04 438.32 269.66 437.39
  A 0.50 0.50 0.0 0 1 270.26 437.92
  Q 270.18 438.90 270.50 439.98
  Z"
/>
</svg>
